# Blender v2.90.1 OBJ File: ''
# www.blender.org
mtllib creator_workbench.mtl
o leg1
v 0.500000 0.812500 0.500000
v 0.500000 -0.000000 0.500000
v 0.500000 0.812500 0.312500
v 0.500000 -0.000000 0.312500
v 0.312500 0.812500 0.312500
v 0.312500 -0.000000 0.312500
v 0.312500 0.812500 0.500000
v 0.312500 -0.000000 0.500000
vt 0.000000 0.812500
vt 0.000000 0.000000
vt 0.187500 0.812500
vt 0.187500 0.000000
vt 0.625000 0.812500
vt 0.625000 0.000000
vt 0.812500 0.812500
vt 0.812500 0.000000
vt 0.000000 1.000000
vt 0.000000 0.953125
vt 0.046875 1.000000
vt 0.046875 0.953125
vt 0.500000 0.500000
vt 0.500000 0.312500
vt 0.687500 0.500000
vt 0.687500 0.312500
vt 1.000000 0.812500
vt 1.000000 0.000000
vt 0.375000 0.812500
vt 0.375000 0.000000
vn 1.0000 0.0000 0.0000
vn -1.0000 0.0000 0.0000
vn 0.0000 1.0000 0.0000
vn 0.0000 -1.0000 -0.0000
vn 0.0000 -0.0000 1.0000
vn 0.0000 0.0000 -1.0000
usemtl m_1
s 1
f 1/1/1 2/2/1 3/3/1
f 2/2/1 4/4/1 3/3/1
f 5/5/2 6/6/2 7/7/2
f 6/6/2 8/8/2 7/7/2
f 5/9/3 7/10/3 3/11/3
f 7/10/3 1/12/3 3/11/3
f 8/13/4 6/14/4 2/15/4
f 6/14/4 4/16/4 2/15/4
f 7/7/5 8/8/5 1/17/5
f 8/8/5 2/18/5 1/17/5
f 3/3/6 4/4/6 5/19/6
f 4/4/6 6/20/6 5/19/6
o leg2
v 0.500000 0.812500 -0.312500
v 0.500000 0.000000 -0.312500
v 0.500000 0.812500 -0.500000
v 0.500000 0.000000 -0.500000
v 0.312500 0.812500 -0.500000
v 0.312500 0.000000 -0.500000
v 0.312500 0.812500 -0.312500
v 0.312500 0.000000 -0.312500
vt 0.812500 0.812500
vt 0.812500 0.000000
vt 1.000000 0.812500
vt 1.000000 0.000000
vt 0.187500 0.812500
vt 0.187500 0.000000
vt 0.375000 0.812500
vt 0.375000 0.000000
vt 0.437500 1.000000
vt 0.437500 0.812500
vt 0.625000 1.000000
vt 0.625000 0.812500
vt 0.625000 0.812500
vt 0.625000 0.000000
vt 0.000000 0.812500
vt 0.000000 0.000000
vt 0.000000 1.000000
vt 0.000000 0.953125
vt 0.046875 1.000000
vt 0.046875 0.953125
vn 1.0000 0.0000 0.0000
vn -1.0000 0.0000 0.0000
vn 0.0000 -1.0000 -0.0000
vn 0.0000 -0.0000 1.0000
vn 0.0000 0.0000 -1.0000
vn 0.0000 1.0000 0.0000
usemtl m_1
s 1
f 9/21/7 10/22/7 11/23/7
f 10/22/7 12/24/7 11/23/7
f 13/25/8 14/26/8 15/27/8
f 14/26/8 16/28/8 15/27/8
f 16/29/9 14/30/9 10/31/9
f 14/30/9 12/32/9 10/31/9
f 15/33/10 16/34/10 9/21/10
f 16/34/10 10/22/10 9/21/10
f 11/35/11 12/36/11 13/25/11
f 12/36/11 14/26/11 13/25/11
usemtl none
f 13/37/12 15/38/12 11/39/12
f 15/38/12 9/40/12 11/39/12
o leg3
v -0.312500 0.812500 0.500000
v -0.312500 -0.000000 0.500000
v -0.312500 0.812500 0.312500
v -0.312500 -0.000000 0.312500
v -0.500000 0.812500 0.312500
v -0.500000 -0.000000 0.312500
v -0.500000 0.812500 0.500000
v -0.500000 -0.000000 0.500000
vt 0.187500 0.812500
vt 0.187500 0.000000
vt 0.375000 0.812500
vt 0.375000 0.000000
vt 0.812500 0.812500
vt 0.812500 0.000000
vt 1.000000 0.812500
vt 1.000000 0.000000
vt 0.812500 1.000000
vt 0.812500 0.812500
vt 1.000000 1.000000
vt 1.000000 0.812500
vt 0.000000 0.812500
vt 0.000000 0.000000
vt 0.625000 0.812500
vt 0.625000 0.000000
vt 0.000000 1.000000
vt 0.000000 0.953125
vt 0.046875 1.000000
vt 0.046875 0.953125
vn 1.0000 0.0000 0.0000
vn -1.0000 0.0000 0.0000
vn 0.0000 -1.0000 -0.0000
vn 0.0000 -0.0000 1.0000
vn 0.0000 0.0000 -1.0000
vn 0.0000 1.0000 0.0000
usemtl m_1
s 1
f 17/41/13 18/42/13 19/43/13
f 18/42/13 20/44/13 19/43/13
f 21/45/14 22/46/14 23/47/14
f 22/46/14 24/48/14 23/47/14
f 24/49/15 22/50/15 18/51/15
f 22/50/15 20/52/15 18/51/15
f 23/53/16 24/54/16 17/41/16
f 24/54/16 18/42/16 17/41/16
f 19/55/17 20/56/17 21/45/17
f 20/56/17 22/46/17 21/45/17
usemtl none
f 21/57/18 23/58/18 19/59/18
f 23/58/18 17/60/18 19/59/18
o leg4
v -0.312500 0.812500 -0.312500
v -0.312500 0.000000 -0.312500
v -0.312500 0.812500 -0.500000
v -0.312500 0.000000 -0.500000
v -0.500000 0.812500 -0.500000
v -0.500000 0.000000 -0.500000
v -0.500000 0.812500 -0.312500
v -0.500000 0.000000 -0.312500
vt 0.625000 0.812500
vt 0.625000 0.000000
vt 0.812500 0.812500
vt 0.812500 0.000000
vt 0.000000 0.812500
vt 0.000000 0.000000
vt 0.187500 0.812500
vt 0.187500 0.000000
vt 0.125000 0.375000
vt 0.125000 0.187500
vt 0.312500 0.375000
vt 0.312500 0.187500
vt 0.375000 0.812500
vt 0.375000 0.000000
vt 1.000000 0.812500
vt 1.000000 0.000000
vt 0.000000 1.000000
vt 0.000000 0.953125
vt 0.046875 1.000000
vt 0.046875 0.953125
vn 1.0000 0.0000 0.0000
vn -1.0000 0.0000 0.0000
vn 0.0000 -1.0000 -0.0000
vn 0.0000 -0.0000 1.0000
vn 0.0000 0.0000 -1.0000
vn 0.0000 1.0000 0.0000
usemtl m_1
s 1
f 25/61/19 26/62/19 27/63/19
f 26/62/19 28/64/19 27/63/19
f 29/65/20 30/66/20 31/67/20
f 30/66/20 32/68/20 31/67/20
f 32/69/21 30/70/21 26/71/21
f 30/70/21 28/72/21 26/71/21
f 31/67/22 32/68/22 25/73/22
f 32/68/22 26/74/22 25/73/22
f 27/63/23 28/64/23 29/75/23
f 28/64/23 30/76/23 29/75/23
usemtl none
f 29/77/24 31/78/24 27/79/24
f 31/78/24 25/80/24 27/79/24
o workbench
v 0.500000 1.000000 0.500000
v 0.500000 0.812500 0.500000
v 0.500000 1.000000 -0.500000
v 0.500000 0.812500 -0.500000
v -0.500000 1.000000 -0.500000
v -0.500000 0.812500 -0.500000
v -0.500000 1.000000 0.500000
v -0.500000 0.812500 0.500000
vt 0.000000 1.000000
vt 0.000000 0.812500
vt 1.000000 1.000000
vt 1.000000 0.812500
vt 0.000000 1.000000
vt 0.000000 0.812500
vt 1.000000 1.000000
vt 1.000000 0.812500
vt 0.000000 1.000000
vt 0.000000 0.812500
vt 1.000000 1.000000
vt 1.000000 0.812500
vt 0.000000 1.000000
vt 0.000000 0.812500
vt 1.000000 1.000000
vt 1.000000 0.812500
vt 0.000000 0.000000
vt 1.000000 0.000000
vt 0.000000 1.000000
vt 0.000000 0.000000
vt 1.000000 1.000000
vt 1.000000 0.000000
vn 1.0000 0.0000 0.0000
vn -1.0000 0.0000 0.0000
vn 0.0000 -0.0000 1.0000
vn 0.0000 0.0000 -1.0000
vn 0.0000 1.0000 0.0000
vn 0.0000 -1.0000 -0.0000
usemtl m_2
s 1
f 33/81/25 34/82/25 35/83/25
f 34/82/25 36/84/25 35/83/25
f 37/85/26 38/86/26 39/87/26
f 38/86/26 40/88/26 39/87/26
f 39/89/27 40/90/27 33/91/27
f 40/90/27 34/92/27 33/91/27
f 35/93/28 36/94/28 37/95/28
f 36/94/28 38/96/28 37/95/28
usemtl m_0
f 37/85/29 39/97/29 35/83/29
f 39/97/29 33/98/29 35/83/29
usemtl m_1
f 40/99/30 38/100/30 34/101/30
f 38/100/30 36/102/30 34/101/30
