# WaveFront *.obj file (generated by CINEMA 4D)

mtllib ./signallf6.mtl

v 0 0 -0.03125
v 0 1 -0.03125
v 0.01195899955928 0 -0.02887099981308
v 0.01195899955928 1 -0.02887099981308
v 0.02209700085223 0 -0.02209700085223
v 0.02209700085223 1 -0.02209700085223
v 0.02887099981308 0 -0.01195899955928
v 0.02887099981308 1 -0.01195899955928
v 0.03125 0 0
v 0.03125 1 0
v 0.02887099981308 0 0.01195899955928
v 0.02887099981308 1 0.01195899955928
v 0.02209700085223 0 0.02209700085223
v 0.02209700085223 1 0.02209700085223
v 0.01195899955928 0 0.02887099981308
v 0.01195899955928 1 0.02887099981308
v 0 0 0.03125
v 0 1 0.03125
v -0.01195899955928 0 0.02887099981308
v -0.01195899955928 1 0.02887099981308
v -0.02209700085223 0 0.02209700085223
v -0.02209700085223 1 0.02209700085223
v -0.02887099981308 0 0.01195899955928
v -0.02887099981308 1 0.01195899955928
v -0.03125 0 0
v -0.03125 1 0
v -0.02887099981308 0 -0.01195899955928
v -0.02887099981308 1 -0.01195899955928
v -0.02209700085223 0 -0.02209700085223
v -0.02209700085223 1 -0.02209700085223
v -0.01195899955928 0 -0.02887099981308
v -0.01195899955928 1 -0.02887099981308
# 32 vertices

vn 0.32073286175728 0 -0.94716972112656
vn 0.44297280907631 0 -0.89653503894806
vn 0.19510667026043 0 -0.98078203201294
vn 0 0 0
vn 0.65877628326416 0 -0.75233888626099
vn 0.75233888626099 0 -0.65877628326416
vn 0.89653503894806 0 -0.44297280907631
vn 0.94716966152191 0 -0.3207328915596
vn 0.98078203201294 0 -0.19510667026043
vn 0.98078203201294 0 -0.19510667026043
vn 0.94716972112656 0 0.32073286175728
vn 0.89653503894806 0 0.44297280907631
vn 0.98078203201294 0 0.19510667026043
vn 0.75233888626099 0 0.65877628326416
vn 0.65877628326416 0 0.75233888626099
vn 0.44297280907631 0 0.89653503894806
vn 0.3207328915596 0 0.94716966152191
vn 0.19510667026043 0 0.98078203201294
vn -0.32073286175728 0 0.94716972112656
vn -0.44297280907631 0 0.89653503894806
vn -0.19510667026043 0 0.98078203201294
vn -0.65877628326416 0 0.75233888626099
vn -0.75233888626099 0 0.65877628326416
vn -0.89653503894806 0 0.44297280907631
vn -0.94716966152191 0 0.3207328915596
vn -0.98078203201294 0 0.19510667026043
vn -0.94716972112656 0 -0.32073286175728
vn -0.89653503894806 0 -0.44297280907631
vn -0.98078203201294 0 -0.19510667026043
vn -0.75233888626099 0 -0.65877628326416
vn -0.65877628326416 0 -0.75233888626099
vn 0 1 0
vn -0.19510667026043 0 -0.98078203201294
vn -0.3207328915596 0 -0.94716966152191
vn -0.44297280907631 0 -0.89653503894806
vn 0 -1 0
vn 0 1 0
vn 0 1 0
# 38 normals

vt 0.88097900152206 0 0
vt 0.88097900152206 0.5 0
vt 0.875 0.5 0
vt 0.88604897260666 0 0
vt 0.88604897260666 0.5 0
vt 0.86902099847794 0.5 0
vt 0.86902099847794 0 0
vt 0.86395102739334 0 0
vt 0.875 0 0
vt 0.86395102739334 0.5 0
vt 0.86902099847794 0.49815905094147 0
vt 0.875 0.46809804439545 0
vt 0.88097900152206 0.46928703784943 0
vt 0.88604897260666 0.49477100372314 0
vt 0.890625 0.48372304439545 0
vt 0.88604897260666 0.47267401218414 0
vt 0.88943600654602 0.47774398326874 0
vt 0.88943600654602 0.48970198631287 0
vt 0.88097900152206 0.49815905094147 0
vt 0.875 0.49934804439545 0
vt 0.86395102739334 0.49477100372314 0
vt 0.86056399345398 0.48970198631287 0
vt 0.859375 0.48372304439545 0
vt 0.86056399345398 0.47774398326874 0
vt 0.86395102739334 0.47267401218414 0
vt 0.86902099847794 0.46928703784943 0
# 26 texture coordinates

o Cube_Cube.003
usemtl Default
f 2/3/3 4/2/2 3/1/1
f 4/2/2 6/5/6 5/4/5
f 6/8/6 8/7/8 7/6/7
f 8/7/8 10/9/10 9/3/9
f 10/9/13 12/1/12 11/2/11
f 12/1/12 14/4/15 13/5/14
f 14/5/15 16/2/17 15/1/16
f 16/2/17 18/3/18 17/9/18
f 18/3/21 20/6/20 19/7/19
f 20/6/20 22/10/23 21/8/22
f 22/4/23 24/1/25 23/2/24
f 24/1/25 26/9/26 25/3/26
f 26/9/29 28/7/28 27/6/27
f 28/7/28 30/8/31 29/10/30
f 4/13/32 2/12/32 20/11/32
f 32/6/34 2/3/33 1/9/33
f 30/10/31 32/6/34 31/7/35
f 1/12/36 9/15/36 13/14/36
f 1/9/3 2/3/3 3/1/1
f 3/1/1 4/2/2 5/4/5
f 5/10/5 6/8/6 7/6/7
f 7/6/7 8/7/8 9/3/9
f 9/3/13 10/9/13 11/2/11
f 11/2/11 12/1/12 13/5/14
f 13/4/14 14/5/15 15/1/16
f 15/1/16 16/2/17 17/9/18
f 17/9/21 18/3/21 19/7/19
f 19/7/19 20/6/20 21/8/22
f 21/5/22 22/4/23 23/2/24
f 23/2/24 24/1/25 25/3/26
f 25/3/29 26/9/29 27/6/27
f 27/6/27 28/7/28 29/10/30
f 8/17/32 6/16/32 4/13/32
f 12/18/32 10/15/32 8/17/32
f 20/11/32 14/14/32 12/18/32
f 14/14/32 18/20/32 16/19/37
f 24/22/32 22/21/32 20/11/32
f 20/11/32 26/23/32 24/22/32
f 2/12/32 30/25/32 28/24/32
f 30/25/32 2/12/32 32/26/38
f 12/18/32 8/17/32 4/13/32
f 20/11/32 18/20/32 14/14/32
f 2/12/32 26/23/32 20/11/32
f 26/23/32 2/12/32 28/24/32
f 20/11/32 12/18/32 4/13/32
f 31/7/35 32/6/34 1/9/33
f 29/8/30 30/10/31 31/7/35
f 29/25/36 31/26/36 1/12/36
f 25/23/36 27/24/36 29/25/36
f 21/21/36 23/22/36 25/23/36
f 25/23/36 19/11/36 21/21/36
f 13/14/36 15/19/36 17/20/36
f 9/15/36 11/18/36 13/14/36
f 5/16/36 7/17/36 9/15/36
f 1/12/36 3/13/36 5/16/36
f 25/23/36 29/25/36 1/12/36
f 17/20/36 19/11/36 25/23/36
f 25/23/36 13/14/36 17/20/36
f 1/12/36 5/16/36 9/15/36
f 13/14/36 25/23/36 1/12/36

v -0.30000001192093 0.80000001192093 0.03173999860883
v -0.30000001192093 0.80000001192093 0.0599999986589
v 0.30000001192093 0.80000001192093 0.0599999986589
v 0.30000001192093 0.80000001192093 0.03173999860883
v 0 0.20000000298023 0.0599999986589
v 0 0.20000000298023 0.03173999860883
# 6 vertices

vn -0.89442718029022 -0.44721359014511 0
vn -0.89442718029022 -0.44721359014511 0
vn 0 0 1
vn 0.89442718029022 -0.44721359014511 0
vn 0.89442718029022 -0.44721359014511 0
vn 0 0 -1
# 6 normals

vt 0.00000300000011 0.50000101327896 0
vt 0.49998798966408 0.49999904632568 0
vt 0.49998798966408 0.47893607616425 0
vt 0.40682798624039 0.47892308235168 0
vt 0.20340600609779 0.07208001613617 0
vt -0.00001499999962 0.47892308235168 0
vt 0.99997401237488 0.47893607616425 0
vt 0.43998599052429 0.49999606609344 0
vt 0.43998599052429 0.47893798351288 0
vt 0.6102499961853 0.07208001613617 0
vt 0.99997401237488 0.49999797344208 0
# 11 texture coordinates

o Cube.001_Cube.002
usemtl Default
f 38/29/39 37/28/40 34/27/39
f 34/32/41 37/31/41 35/30/41
f 37/28/42 38/29/43 36/33/42
f 34/32/32 35/35/32 36/34/32
f 33/36/44 36/31/44 38/30/44
f 33/32/40 38/29/39 34/27/39
f 35/37/43 37/28/42 36/33/42
f 33/27/32 34/32/32 36/34/32

