# Blender v2.90.1 OBJ File: ''
# www.blender.org
mtllib straightTrack.mtl
o generalCube
v 0.500000 0.500000 0.500000
v 0.500000 -0.500000 0.500000
v 0.500000 0.500000 -0.500000
v 0.500000 -0.500000 -0.500000
v -0.500000 0.500000 -0.500000
v -0.500000 -0.500000 -0.500000
v -0.500000 0.500000 0.500000
v -0.500000 -0.500000 0.500000
vt 0.500000 1.000000
vt 0.500000 0.500000
vt 1.000000 1.000000
vt 1.000000 0.500000
vt 0.500000 1.000000
vt 0.500000 0.500000
vt 1.000000 1.000000
vt 1.000000 0.500000
vt 0.500000 0.500000
vt 1.000000 0.500000
vt 0.500000 1.000000
vt 1.000000 1.000000
vt 0.500000 1.000000
vt 0.500000 0.500000
vt 1.000000 1.000000
vt 1.000000 0.500000
vt 0.500000 1.000000
vt 0.500000 0.500000
vt 1.000000 1.000000
vt 1.000000 0.500000
vn 1.0000 -0.0000 0.0000
vn -1.0000 0.0000 0.0000
vn 0.0000 1.0000 0.0000
vn 0.0000 -1.0000 -0.0000
vn 0.0000 -0.0000 1.0000
vn 0.0000 0.0000 -1.0000
usemtl m_0
s 1
f 1/1/1 2/2/1 3/3/1
f 2/2/1 4/4/1 3/3/1
f 5/5/2 6/6/2 7/7/2
f 6/6/2 8/8/2 7/7/2
f 5/5/3 7/9/3 3/3/3
f 7/9/3 1/10/3 3/3/3
f 8/11/4 6/6/4 2/12/4
f 6/6/4 4/4/4 2/12/4
f 7/13/5 8/14/5 1/15/5
f 8/14/5 2/16/5 1/15/5
f 3/17/6 4/18/6 5/19/6
f 4/18/6 6/20/6 5/19/6
o off
v 0.500000 0.500000 -0.437500
v 0.500000 -0.500000 -0.437500
v 0.500000 0.500000 -0.500000
v 0.500000 -0.500000 -0.500000
v -0.500000 0.500000 -0.500000
v -0.500000 -0.500000 -0.500000
v -0.500000 0.500000 -0.437500
v -0.500000 -0.500000 -0.437500
vt 0.000000 1.000000
vt 0.000000 0.960938
vt 1.000000 1.000000
vt 1.000000 0.960938
vt 0.000000 1.000000
vt 0.000000 0.921875
vt 1.000000 1.000000
vt 1.000000 0.921875
vt 0.000000 0.937500
vt 1.000000 0.937500
vt 0.000000 1.000000
vt 0.000000 0.937500
vt 1.000000 1.000000
vt 1.000000 0.937500
vt 0.000000 1.000000
vt 0.000000 0.500000
vt 0.500000 1.000000
vt 0.500000 0.500000
vt 0.000000 1.000000
vt 0.000000 0.000000
vt 1.000000 1.000000
vt 1.000000 0.000000
vn 1.0000 0.0000 0.0000
vn -1.0000 0.0000 0.0000
vn 0.0000 1.0000 0.0000
vn 0.0000 -1.0000 0.0000
vn 0.0000 0.0000 -1.0000
vn 0.0000 -0.0000 1.0000
usemtl m_0
s 1
f 9/21/7 10/22/7 11/23/7
f 10/22/7 12/24/7 11/23/7
f 13/25/8 14/26/8 15/27/8
f 14/26/8 16/28/8 15/27/8
f 13/25/9 15/29/9 11/23/9
f 15/29/9 9/30/9 11/23/9
f 16/31/10 14/32/10 10/33/10
f 14/32/10 12/34/10 10/33/10
f 11/35/11 12/36/11 13/37/11
f 12/36/11 14/38/11 13/37/11
usemtl none
f 15/39/12 16/40/12 9/41/12
f 16/40/12 10/42/12 9/41/12
o white
v 0.500000 0.500000 -0.437500
v 0.500000 -0.500000 -0.437500
v 0.500000 0.500000 -0.500000
v 0.500000 -0.500000 -0.500000
v -0.500000 0.500000 -0.500000
v -0.500000 -0.500000 -0.500000
v -0.500000 0.500000 -0.437500
v -0.500000 -0.500000 -0.437500
vt 0.000000 1.000000
vt 0.000000 0.960938
vt 1.000000 1.000000
vt 1.000000 0.960938
vt 0.000000 1.000000
vt 0.000000 0.921875
vt 1.000000 1.000000
vt 1.000000 0.921875
vt 0.000000 0.937500
vt 1.000000 0.937500
vt 0.000000 1.000000
vt 0.000000 0.937500
vt 1.000000 1.000000
vt 1.000000 0.937500
vt 0.500000 0.500000
vt 0.500000 0.000000
vt 1.000000 0.500000
vt 1.000000 0.000000
vt 0.000000 1.000000
vt 0.000000 0.000000
vt 1.000000 1.000000
vt 1.000000 0.000000
vn 1.0000 0.0000 0.0000
vn -1.0000 0.0000 0.0000
vn 0.0000 1.0000 0.0000
vn 0.0000 -1.0000 0.0000
vn 0.0000 0.0000 -1.0000
vn 0.0000 -0.0000 1.0000
usemtl m_0
s 1
f 17/43/13 18/44/13 19/45/13
f 18/44/13 20/46/13 19/45/13
f 21/47/14 22/48/14 23/49/14
f 22/48/14 24/50/14 23/49/14
f 21/47/15 23/51/15 19/45/15
f 23/51/15 17/52/15 19/45/15
f 24/53/16 22/54/16 18/55/16
f 22/54/16 20/56/16 18/55/16
f 19/57/17 20/58/17 21/59/17
f 20/58/17 22/60/17 21/59/17
usemtl none
f 23/61/18 24/62/18 17/63/18
f 24/62/18 18/64/18 17/63/18
o red
v 0.500000 0.500000 -0.437500
v 0.500000 -0.500000 -0.437500
v 0.500000 0.500000 -0.500000
v 0.500000 -0.500000 -0.500000
v -0.500000 0.500000 -0.500000
v -0.500000 -0.500000 -0.500000
v -0.500000 0.500000 -0.437500
v -0.500000 -0.500000 -0.437500
vt 0.000000 1.000000
vt 0.000000 0.960938
vt 1.000000 1.000000
vt 1.000000 0.960938
vt 0.000000 1.000000
vt 0.000000 0.921875
vt 1.000000 1.000000
vt 1.000000 0.921875
vt 0.000000 0.937500
vt 1.000000 0.937500
vt 0.000000 1.000000
vt 0.000000 0.937500
vt 1.000000 1.000000
vt 1.000000 0.937500
vt 0.000000 0.500000
vt 0.000000 0.000000
vt 0.500000 0.500000
vt 0.500000 0.000000
vt 0.000000 1.000000
vt 0.000000 0.000000
vt 1.000000 1.000000
vt 1.000000 0.000000
vn 1.0000 0.0000 0.0000
vn -1.0000 0.0000 0.0000
vn 0.0000 1.0000 0.0000
vn 0.0000 -1.0000 0.0000
vn 0.0000 0.0000 -1.0000
vn 0.0000 -0.0000 1.0000
usemtl m_0
s 1
f 25/65/19 26/66/19 27/67/19
f 26/66/19 28/68/19 27/67/19
f 29/69/20 30/70/20 31/71/20
f 30/70/20 32/72/20 31/71/20
f 29/69/21 31/73/21 27/67/21
f 31/73/21 25/74/21 27/67/21
f 32/75/22 30/76/22 26/77/22
f 30/76/22 28/78/22 26/77/22
f 27/79/23 28/80/23 29/81/23
f 28/80/23 30/82/23 29/81/23
usemtl none
f 31/83/24 32/84/24 25/85/24
f 32/84/24 26/86/24 25/85/24
