# WaveFront *.obj file (generated by CINEMA 4D)

mtllib ./signallf7.mtl

v -0.20000000298023 0.20000000298023 0.0599999986589
v -0.20000000298023 0.20000000298023 0.03174399957061
v 0.20000000298023 0.20000000298023 0.03174399957061
v 0.20000000298023 0.20000000298023 0.0599999986589
v -0.20000000298023 0.80000001192093 0.0599999986589
v -0.20000000298023 0.80000001192093 0.03174399957061
v 0.20000000298023 0.80000001192093 0.03174399957061
v 0.20000000298023 0.80000001192093 0.0599999986589
# 8 vertices

vn -1 0 0
vn 0 0 0
vn 0 0 -1
vn 1 0 0
vn 0 0 1
vn 0 -1 0
vn 0 1 0
vn 1 0 0
# 8 normals

vt -0.00004999999874 0.50001204013824 0
vt 0.02344099991024 0.50001204013824 0
vt 0.02344099991024 1.00000500679016 0
vt 0.33203300833702 0.50001204013824 0
vt 0.66458797454834 0.50001204013824 0
vt 0.66458797454834 1.00000500679016 0
vt -0.00004999999874 1.00000500679016 0
vt 0.3325070142746 0.50001204013824 0
vt -0.0000480000017 0.50001204013824 0
vt -0.0000480000017 1.00000500679016 0
vt 0.3325070142746 0.52349901199341 0
vt -0.0000480000017 0.52349901199341 0
vt 0.33203300833702 1.00000500679016 0
vt 0.3325070142746 1.00000500679016 0
# 14 texture coordinates

o Cube_Cube.001
usemtl Default
f 6/3/1 2/2/1 1/1/1
f 7/6/3 3/5/3 2/4/3
f 8/7/4 4/1/4 3/2/4
f 5/10/5 1/9/5 4/8/5
f 2/12/6 3/11/6 4/8/6
f 7/11/7 6/12/7 5/9/7
f 5/7/1 6/3/1 1/1/1
f 6/13/3 7/6/3 2/4/3
f 7/3/8 8/7/4 3/2/4
f 8/14/5 5/10/5 4/8/5
f 1/9/6 2/12/6 4/8/6
f 8/8/7 7/11/7 5/9/7

