# Blender v2.79 (sub 0) OBJ File: 'switch_right_on.blend'
# www.blender.org
mtllib switch_right_on.mtl
o base_RAIL_BASE.001
v 0.125000 0.000000 0.750000
v 0.375000 0.000000 0.750000
v 0.125000 0.125000 0.750000
v 0.375000 0.125000 0.750000
v -0.375000 0.000000 0.750000
v -0.125000 0.000000 0.750000
v -0.375000 0.125000 0.750000
v -0.125000 0.125000 0.750000
v 0.125000 0.000000 -0.500000
v 0.375000 0.000000 -0.500000
v 0.125000 0.125000 -0.500000
v 0.375000 0.125000 -0.500000
v -0.375000 0.000000 -0.500000
v -0.125000 0.000000 -0.500000
v -0.375000 0.125000 -0.500000
v -0.125000 0.125000 -0.500000
v -0.031250 0.093750 2.621875
v -0.031250 0.156250 2.621875
v -0.031250 0.093750 -0.253125
v -0.031250 0.156250 -0.253125
v 0.031250 0.093750 2.621875
v 0.031250 0.156250 2.621875
v 0.031250 0.093750 -0.253125
v 0.031250 0.156250 -0.253125
v -0.250000 0.125000 0.000000
v -0.250000 0.375000 -0.062500
v -0.250000 0.125000 -0.250000
v -0.250000 0.375000 -0.187500
v -0.125000 0.125000 0.000000
v -0.125000 0.375000 -0.062500
v -0.125000 0.125000 -0.250000
v -0.125000 0.375000 -0.187500
v -0.093750 0.288502 -0.012560
v -0.031250 0.288502 -0.012560
v -0.093750 0.382252 -0.174940
v -0.031250 0.134495 -0.245813
v -0.031250 0.382252 -0.174940
v -0.312500 0.281250 -0.080806
v 0.000000 0.281250 -0.080806
v -0.312500 0.325444 -0.125000
v 0.000000 0.325444 -0.125000
v 0.000000 0.237056 -0.125000
v -0.312500 0.237056 -0.125000
v 0.000000 0.281250 -0.169194
v -0.312500 0.281250 -0.169194
v -0.250000 0.437500 -0.062500
v -0.250000 0.437500 -0.187500
v -0.125000 0.437500 -0.187500
v -0.125000 0.437500 -0.062500
v -0.375000 0.375000 -0.062500
v -0.375000 0.375000 -0.187500
v -0.375000 0.437500 -0.062500
v -0.375000 0.437500 -0.187500
v -0.268306 0.281250 -0.125000
v -0.312500 0.281250 -0.169194
v -0.312500 0.281250 -0.080806
v -0.356694 0.281250 -0.125000
v -0.268306 0.906250 -0.125000
v -0.312500 0.906250 -0.169194
v -0.312500 0.906250 -0.080806
v -0.356694 0.906250 -0.125000
v 0.000000 0.568512 0.339039
v -0.125000 0.568512 0.339039
v -0.125000 0.745289 0.162262
v 0.000000 0.745289 0.162262
v -0.125000 0.480124 0.162262
v -0.125000 0.568512 0.073874
v 0.000000 0.480124 0.162262
v 0.000000 0.568512 0.073874
v 0.000000 0.656900 0.073874
v 0.000000 0.480124 0.250650
v -0.125000 0.656900 0.073874
v -0.125000 0.480124 0.250650
v 0.000000 0.612706 0.250650
v 0.000000 0.656900 0.206456
v 0.125000 0.612706 0.250650
v 0.125000 0.656900 0.206456
v 0.000000 0.656900 0.294845
v 0.000000 0.701095 0.250651
v 0.125000 0.656900 0.294845
v 0.125000 0.701095 0.250651
v -0.125000 0.656901 0.339039
v -0.125000 0.745289 0.250651
v 0.000000 0.656901 0.339039
v 0.000000 0.745289 0.250651
v -0.093750 0.281250 -0.080806
v -0.093750 0.325444 -0.125000
v -0.093750 0.502221 0.140165
v -0.093750 0.546415 0.095971
v -0.031250 0.502221 0.140165
v -0.031250 0.546415 0.095971
v -0.031250 0.319752 -0.066687
v -0.031250 0.351002 -0.120813
v -0.093750 0.351002 -0.120813
v -0.093750 0.319752 -0.066687
v -0.093750 0.134495 -0.245813
v -0.093750 0.103245 -0.191687
v -0.031250 0.103245 -0.191687
v -0.031250 0.342628 0.018690
v -0.093750 0.436378 -0.143690
v -0.031250 0.436378 -0.143690
v -0.093750 0.342628 0.018690
v -0.437500 0.906250 0.093750
v -0.437500 1.343750 0.093750
v -0.437500 0.906250 -0.343750
v -0.437500 1.343750 -0.343750
v -0.187500 0.906250 0.093750
v -0.187500 1.343750 0.093750
v -0.187500 0.906250 -0.343750
v -0.187500 1.343750 -0.343750
v -0.218750 1.036612 0.051777
v -0.218750 1.301777 -0.213388
v -0.218750 0.948223 -0.036612
v -0.218750 1.213388 -0.301777
v -0.156250 1.036612 0.051777
v -0.156250 1.301777 -0.213388
v -0.156250 1.213388 -0.301777
v -0.156250 0.948223 -0.036612
v -0.406250 1.301777 -0.213388
v -0.406250 1.036612 0.051777
v -0.406250 1.213388 -0.301777
v -0.406250 0.948223 -0.036612
v -0.468750 1.301777 -0.213388
v -0.468750 1.036612 0.051777
v -0.468750 0.948223 -0.036612
v -0.468750 1.213388 -0.301777
v -0.375000 0.968750 0.062500
v -0.375000 1.281250 0.062500
v -0.250000 0.968750 0.062500
v -0.250000 1.281250 0.062500
v -0.375000 0.968750 0.125000
v -0.375000 1.281250 0.125000
v -0.250000 1.281250 0.125000
v -0.250000 0.968750 0.125000
v -0.250000 0.968750 -0.312500
v -0.250000 1.281250 -0.312500
v -0.375000 0.968750 -0.312500
v -0.375000 1.281250 -0.312500
v -0.250000 0.968750 -0.375000
v -0.250000 1.281250 -0.375000
v -0.375000 1.281250 -0.375000
v -0.375000 0.968750 -0.375000
v -0.031250 0.325444 -0.125000
v -0.031250 0.281250 -0.080806
vt 0.437500 0.890625
vt 0.406250 0.953125
vt 0.406250 0.890625
vt 0.046875 0.890625
vt 0.015625 0.953125
vt 0.015625 0.890625
vt 0.781250 0.953125
vt 0.750000 0.890625
vt 0.781250 0.890625
vt 0.390625 0.953125
vt 0.359375 0.890625
vt 0.390625 0.890625
vt 0.046875 0.953125
vt 0.359375 0.984375
vt 0.046875 0.984375
vt 0.437500 0.953125
vt 0.750000 0.984375
vt 0.437500 0.984375
vt 0.046875 0.859375
vt 0.359375 0.953125
vt 0.437500 0.859375
vt 0.750000 0.953125
vt 0.031250 0.812500
vt 0.750000 0.828125
vt 0.031250 0.828125
vt 0.765625 0.828125
vt 0.750000 0.843750
vt 0.750000 0.796875
vt 0.031250 0.781250
vt 0.750000 0.781250
vt 0.015625 0.843750
vt 0.031250 0.843750
vt 0.750000 0.812500
vt 0.031250 0.796875
vt 0.531250 0.328125
vt 0.578125 0.390625
vt 0.515625 0.390625
vt 0.468750 0.328125
vt 0.500000 0.390625
vt 0.468750 0.390625
vt 0.562500 0.265625
vt 0.515625 0.203125
vt 0.578125 0.203125
vt 0.500000 0.265625
vt 0.468750 0.203125
vt 0.500000 0.203125
vt 0.500000 0.312500
vt 0.500000 0.328125
vt 0.687500 0.421875
vt 0.703125 0.359375
vt 0.703125 0.421875
vt 0.703125 0.281250
vt 0.687500 0.218750
vt 0.703125 0.218750
vt 0.687500 0.296875
vt 0.687500 0.281250
vt 0.609375 0.203125
vt 0.609375 0.265625
vt 0.593750 0.265625
vt 0.625000 0.359375
vt 0.625000 0.296875
vt 0.640625 0.359375
vt 0.656250 0.437500
vt 0.578125 0.421875
vt 0.656250 0.421875
vt 0.578125 0.468750
vt 0.656250 0.453125
vt 0.656250 0.468750
vt 0.578125 0.453125
vt 0.578125 0.437500
vt 0.562500 0.453125
vt 0.562500 0.468750
vt 0.656250 0.406250
vt 0.468750 0.312500
vt 0.500000 0.281250
vt 0.531250 0.281250
vt 0.531250 0.265625
vt 0.437500 0.281250
vt 0.468750 0.281250
vt 0.468750 0.265625
vt 0.421875 0.281250
vt 0.437500 0.312500
vt 0.421875 0.312500
vt 0.437500 0.265625
vt 0.562500 0.296875
vt 0.562500 0.328125
vt 0.406250 0.234375
vt 0.390625 0.250000
vt 0.390625 0.234375
vt 0.375000 0.406250
vt 0.375000 0.250000
vt 0.359375 0.406250
vt 0.359375 0.250000
vt 0.343750 0.406250
vt 0.343750 0.250000
vt 0.406250 0.250000
vt 0.390625 0.406250
vt 0.671875 0.453125
vt 0.062500 0.656250
vt 0.078125 0.703125
vt 0.062500 0.718750
vt 0.156250 0.765625
vt 0.140625 0.734375
vt 0.156250 0.734375
vt 0.109375 0.734375
vt 0.140625 0.765625
vt 0.109375 0.765625
vt 0.140625 0.718750
vt 0.109375 0.656250
vt 0.140625 0.656250
vt 0.187500 0.765625
vt 0.187500 0.734375
vt 0.031250 0.718750
vt 0.093750 0.703125
vt 0.093750 0.671875
vt 0.156250 0.703125
vt 0.203125 0.765625
vt 0.031250 0.656250
vt 0.015625 0.703125
vt 0.015625 0.671875
vt 0.062500 0.765625
vt 0.046875 0.734375
vt 0.062500 0.734375
vt 0.015625 0.765625
vt 0.046875 0.765625
vt 0.093750 0.765625
vt 0.296875 0.703125
vt 0.265625 0.718750
vt 0.265625 0.703125
vt 0.265625 0.671875
vt 0.296875 0.687500
vt 0.265625 0.687500
vt 0.312500 0.718750
vt 0.296875 0.718750
vt 0.296875 0.656250
vt 0.265625 0.656250
vt 0.093750 0.734375
vt 0.171875 0.703125
vt 0.250000 0.687500
vt 0.250000 0.703125
vt 0.250000 0.718750
vt 0.171875 0.718750
vt 0.171875 0.671875
vt 0.171875 0.687500
vt 0.171875 0.656250
vt 0.250000 0.671875
vt 0.703125 0.203125
vt 0.687500 0.203125
vt 0.593750 0.359375
vt 0.609375 0.296875
vt 0.609375 0.359375
vt 0.625000 0.203125
vt 0.640625 0.265625
vt 0.625000 0.265625
vt 0.640625 0.375000
vt 0.687500 0.328125
vt 0.703125 0.312500
vt 0.703125 0.328125
vt 0.687500 0.359375
vt 0.703125 0.343750
vt 0.687500 0.312500
vt 0.703125 0.296875
vt 0.593750 0.281250
vt 0.640625 0.281250
vt 0.593750 0.375000
vt 0.687500 0.343750
vt 0.125000 0.578125
vt 0.015625 0.468750
vt 0.125000 0.468750
vt 0.359375 0.578125
vt 0.296875 0.468750
vt 0.359375 0.468750
vt 0.296875 0.578125
vt 0.187500 0.468750
vt 0.187500 0.578125
vt 0.015625 0.406250
vt 0.015625 0.578125
vt 0.125000 0.640625
vt 0.015625 0.640625
vt 0.140625 0.359375
vt 0.109375 0.265625
vt 0.140625 0.265625
vt 0.109375 0.375000
vt 0.140625 0.375000
vt 0.156250 0.359375
vt 0.156250 0.265625
vt 0.093750 0.265625
vt 0.109375 0.359375
vt 0.093750 0.359375
vt 0.031250 0.265625
vt 0.062500 0.359375
vt 0.031250 0.359375
vt 0.062500 0.250000
vt 0.031250 0.250000
vt 0.015625 0.265625
vt 0.015625 0.359375
vt 0.062500 0.375000
vt 0.078125 0.359375
vt 0.062500 0.265625
vt 0.078125 0.265625
vt 0.218750 0.343750
vt 0.187500 0.265625
vt 0.218750 0.265625
vt 0.187500 0.359375
vt 0.218750 0.359375
vt 0.234375 0.343750
vt 0.234375 0.265625
vt 0.218750 0.250000
vt 0.187500 0.250000
vt 0.171875 0.265625
vt 0.187500 0.343750
vt 0.171875 0.343750
vt 0.296875 0.343750
vt 0.265625 0.265625
vt 0.296875 0.265625
vt 0.296875 0.359375
vt 0.265625 0.343750
vt 0.312500 0.343750
vt 0.312500 0.265625
vt 0.296875 0.250000
vt 0.265625 0.250000
vt 0.250000 0.265625
vt 0.250000 0.343750
vt 0.109375 0.250000
vt 0.359375 0.859375
vt 0.750000 0.859375
vt 0.765625 0.843750
vt 0.015625 0.828125
vt 0.578125 0.406250
vt 0.562500 0.281250
vt 0.531250 0.296875
vt 0.437500 0.328125
vt 0.406250 0.406250
vt 0.671875 0.468750
vt 0.078125 0.671875
vt 0.109375 0.718750
vt 0.156250 0.671875
vt 0.203125 0.734375
vt 0.015625 0.734375
vt 0.296875 0.671875
vt 0.312500 0.703125
vt 0.250000 0.656250
vt 0.125000 0.406250
vt 0.031250 0.375000
vt 0.265625 0.359375
vt 0.140625 0.250000
vn 0.0000 0.0000 1.0000
vn 0.0000 0.0000 -1.0000
vn -1.0000 0.0000 0.0000
vn 1.0000 0.0000 0.0000
vn 0.0000 1.0000 0.0000
vn 0.0000 -1.0000 0.0000
vn 0.0000 0.2425 -0.9701
vn 0.0000 0.2425 0.9701
vn 0.0000 -0.6951 0.7189
vn 0.0000 0.2750 -0.9614
vn 0.0000 0.5000 -0.8660
vn 0.0000 0.7071 0.7071
vn 0.0000 -0.7071 -0.7071
vn 0.0000 0.7071 -0.7071
vn 0.0000 -0.7071 0.7071
vn -0.7071 0.0000 -0.7071
vn 0.7071 0.0000 -0.7071
vn 0.7071 0.0000 0.7071
vn -0.7071 0.0000 0.7071
vn 0.0000 -0.8660 -0.5000
vn 0.0000 0.8660 0.5000
vn 0.0000 -0.5000 0.8660
vn 0.0000 0.2588 0.9659
vn 0.0000 0.9659 -0.2588
usemtl None
s off
f 4/1/1 1/2/1 2/3/1
f 8/4/1 5/5/1 6/6/1
f 9/7/2 12/8/2 10/9/2
f 13/10/2 16/11/2 14/12/2
f 7/13/3 13/14/3 5/15/3
f 3/16/3 9/17/3 1/18/3
f 6/19/4 16/11/4 8/4/4
f 8/4/5 15/20/5 7/13/5
f 2/21/4 12/8/4 4/1/4
f 4/1/5 11/22/5 3/16/5
f 18/23/3 19/24/3 17/25/3
f 20/26/2 23/27/2 19/24/2
f 24/28/4 21/29/4 23/30/4
f 22/31/1 17/25/1 21/32/1
f 23/27/6 17/25/6 19/24/6
f 20/33/5 22/34/5 24/28/5
f 26/35/3 27/36/3 25/37/3
f 28/38/7 31/39/7 27/40/7
f 32/41/4 29/42/4 31/43/4
f 30/44/8 25/45/8 29/46/8
f 28/38/2 48/47/2 32/48/2
f 98/49/9 33/50/9 97/51/9
f 35/52/10 36/53/10 96/54/10
f 35/52/11 101/55/11 37/56/11
f 96/57/3 94/58/3 35/59/3
f 93/60/4 36/61/4 37/62/4
f 41/63/12 38/64/12 39/65/12
f 43/66/13 44/67/13 42/68/13
f 41/63/14 45/69/14 40/70/14
f 40/71/3 43/66/3 38/72/3
f 38/64/15 42/73/15 39/65/15
f 47/74/5 49/75/5 48/47/5
f 32/41/4 49/76/4 30/77/4
f 47/74/5 52/78/5 46/79/5
f 30/44/1 46/79/1 26/80/1
f 50/81/3 53/82/3 51/83/3
f 46/79/1 50/84/1 26/80/1
f 26/35/6 51/85/6 28/86/6
f 28/38/2 53/82/2 47/74/2
f 54/87/6 57/88/6 55/89/6
f 57/88/16 59/90/16 55/91/16
f 55/91/17 58/92/17 54/93/17
f 54/93/18 60/94/18 56/95/18
f 56/96/19 61/97/19 57/88/19
f 41/98/4 42/68/4 44/67/4
f 63/99/3 83/100/3 64/101/3
f 62/102/1 82/103/1 63/104/1
f 83/105/12 84/106/12 85/107/12
f 70/108/4 62/109/4 71/110/4
f 71/111/15 63/104/15 73/112/15
f 72/113/3 63/99/3 64/101/3
f 62/109/4 85/114/4 84/115/4
f 71/110/4 69/116/4 70/108/4
f 73/112/6 68/117/6 71/111/6
f 73/118/3 67/119/3 66/120/3
f 70/121/2 67/122/2 72/123/2
f 68/124/13 67/122/13 69/125/13
f 72/123/14 65/126/14 70/121/14
f 77/127/13 74/128/13 75/129/13
f 78/130/12 81/131/12 79/132/12
f 75/129/14 81/131/14 77/127/14
f 77/127/4 80/133/4 76/134/4
f 76/135/15 78/130/15 74/136/15
f 64/137/5 85/107/5 65/126/5
f 87/138/3 88/139/3 89/140/3
f 87/138/14 91/141/14 143/142/14
f 144/143/15 88/139/15 86/144/15
f 143/145/4 90/146/4 144/143/4
f 97/147/20 36/53/20 98/148/20
f 34/149/4 98/150/4 92/151/4
f 98/150/4 93/60/4 92/151/4
f 97/152/3 33/153/3 95/154/3
f 95/154/3 96/57/3 97/152/3
f 93/60/4 37/62/4 101/155/4
f 92/156/21 94/157/21 95/158/21
f 34/159/22 102/160/22 33/50/22
f 93/161/23 100/162/23 94/157/23
f 35/59/3 94/58/3 100/163/3
f 95/154/3 33/153/3 102/164/3
f 34/149/4 92/151/4 99/165/4
f 95/158/24 99/166/24 92/156/24
f 104/167/3 105/168/3 103/169/3
f 106/170/2 109/171/2 105/172/2
f 110/173/4 107/174/4 109/171/4
f 108/175/1 103/169/1 107/174/1
f 109/176/6 103/169/6 105/168/6
f 106/177/5 108/178/5 110/179/5
f 117/180/4 115/181/4 118/182/4
f 112/183/14 117/180/14 114/184/14
f 114/185/13 118/182/13 113/186/13
f 111/187/12 116/188/12 112/189/12
f 125/190/3 123/191/3 126/192/3
f 120/193/15 125/190/15 122/194/15
f 122/195/13 126/192/13 121/196/13
f 119/197/14 126/192/14 123/191/14
f 119/198/12 124/199/12 120/200/12
f 133/201/1 131/202/1 134/203/1
f 128/204/5 133/201/5 130/205/5
f 130/206/4 134/203/4 129/207/4
f 129/208/6 131/202/6 127/209/6
f 127/210/3 132/211/3 128/212/3
f 141/213/2 139/214/2 142/215/2
f 138/216/5 140/217/5 141/213/5
f 138/218/3 142/215/3 137/219/3
f 137/220/6 139/214/6 135/221/6
f 135/222/4 140/217/4 136/223/4
f 111/224/15 118/182/15 115/181/15
f 4/1/1 3/16/1 1/2/1
f 8/4/1 7/13/1 5/5/1
f 9/7/2 11/22/2 12/8/2
f 13/10/2 15/20/2 16/11/2
f 7/13/3 15/20/3 13/14/3
f 3/16/3 11/22/3 9/17/3
f 6/19/4 14/225/4 16/11/4
f 8/4/5 16/11/5 15/20/5
f 2/21/4 10/226/4 12/8/4
f 4/1/5 12/8/5 11/22/5
f 18/23/3 20/33/3 19/24/3
f 20/26/2 24/227/2 23/27/2
f 24/28/4 22/34/4 21/29/4
f 22/31/1 18/228/1 17/25/1
f 23/27/6 21/32/6 17/25/6
f 20/33/5 18/23/5 22/34/5
f 26/35/3 28/86/3 27/36/3
f 28/38/7 32/48/7 31/39/7
f 32/41/4 30/77/4 29/42/4
f 30/44/8 26/80/8 25/45/8
f 28/38/2 47/74/2 48/47/2
f 98/49/9 34/159/9 33/50/9
f 35/52/10 37/56/10 36/53/10
f 35/52/11 100/162/11 101/55/11
f 41/63/12 40/70/12 38/64/12
f 43/66/13 45/69/13 44/67/13
f 41/63/14 44/67/14 45/69/14
f 40/71/3 45/69/3 43/66/3
f 38/64/15 43/229/15 42/73/15
f 47/74/5 46/79/5 49/75/5
f 32/41/4 48/230/4 49/76/4
f 47/74/5 53/82/5 52/78/5
f 30/44/1 49/75/1 46/79/1
f 50/81/3 52/78/3 53/82/3
f 46/79/1 52/78/1 50/84/1
f 26/35/6 50/231/6 51/85/6
f 28/38/2 51/232/2 53/82/2
f 54/87/6 56/96/6 57/88/6
f 57/88/16 61/97/16 59/90/16
f 55/91/17 59/90/17 58/92/17
f 54/93/18 58/92/18 60/94/18
f 56/96/19 60/233/19 61/97/19
f 41/98/4 39/234/4 42/68/4
f 63/99/3 82/235/3 83/100/3
f 62/102/1 84/106/1 82/103/1
f 83/105/12 82/103/12 84/106/12
f 70/108/4 65/236/4 62/109/4
f 71/111/15 62/102/15 63/104/15
f 72/113/3 73/118/3 63/99/3
f 62/109/4 65/236/4 85/114/4
f 71/110/4 68/237/4 69/116/4
f 73/112/6 66/238/6 68/117/6
f 73/118/3 72/113/3 67/119/3
f 70/121/2 69/125/2 67/122/2
f 68/124/13 66/239/13 67/122/13
f 72/123/14 64/137/14 65/126/14
f 77/127/13 76/134/13 74/128/13
f 78/130/12 80/240/12 81/131/12
f 75/129/14 79/132/14 81/131/14
f 77/127/4 81/241/4 80/133/4
f 76/135/15 80/240/15 78/130/15
f 64/137/5 83/105/5 85/107/5
f 87/138/3 86/144/3 88/139/3
f 87/138/14 89/140/14 91/141/14
f 144/143/15 90/146/15 88/139/15
f 143/145/4 91/242/4 90/146/4
f 97/147/20 96/54/20 36/53/20
f 98/150/4 36/61/4 93/60/4
f 95/154/3 94/58/3 96/57/3
f 92/156/21 93/161/21 94/157/21
f 34/159/22 99/166/22 102/160/22
f 93/161/23 101/55/23 100/162/23
f 95/158/24 102/160/24 99/166/24
f 104/167/3 106/177/3 105/168/3
f 106/170/2 110/173/2 109/171/2
f 110/173/4 108/175/4 107/174/4
f 108/175/1 104/167/1 103/169/1
f 109/176/6 107/243/6 103/169/6
f 106/177/5 104/167/5 108/178/5
f 117/180/4 116/188/4 115/181/4
f 112/183/14 116/188/14 117/180/14
f 114/185/13 117/180/13 118/182/13
f 111/187/12 115/181/12 116/188/12
f 125/190/3 124/199/3 123/191/3
f 120/193/15 124/199/15 125/190/15
f 122/195/13 125/190/13 126/192/13
f 119/197/14 121/244/14 126/192/14
f 119/198/12 123/191/12 124/199/12
f 133/201/1 132/211/1 131/202/1
f 128/204/5 132/211/5 133/201/5
f 130/206/4 133/201/4 134/203/4
f 129/208/6 134/203/6 131/202/6
f 127/210/3 131/202/3 132/211/3
f 141/213/2 140/217/2 139/214/2
f 138/216/5 136/245/5 140/217/5
f 138/218/3 141/213/3 142/215/3
f 137/220/6 142/215/6 139/214/6
f 135/222/4 139/214/4 140/217/4
f 111/224/15 113/246/15 118/182/15
