# Blender v2.90.1 OBJ File: ''
# www.blender.org
mtllib microchip.mtl
o base1
v 0.500000 -0.375000 0.500000
v 0.500000 -0.500000 0.500000
v 0.500000 -0.375000 -0.500000
v 0.500000 -0.500000 -0.500000
v -0.437500 -0.375000 -0.500000
v -0.437500 -0.500000 -0.500000
v -0.437500 -0.375000 0.500000
v -0.437500 -0.500000 0.500000
vt 0.500000 1.000000
vt 0.500000 0.875000
vt 1.000000 1.000000
vt 1.000000 0.875000
vt 0.500000 1.000000
vt 0.500000 0.875000
vt 1.000000 1.000000
vt 1.000000 0.875000
vt 0.687500 1.000000
vt 0.687500 0.687500
vt 1.000000 0.687500
vt 0.500000 1.000000
vt 0.500000 0.687500
vt 1.000000 1.000000
vt 1.000000 0.687500
vt 0.500000 1.000000
vt 0.500000 0.875000
vt 1.000000 1.000000
vt 1.000000 0.875000
vt 0.500000 1.000000
vt 0.500000 0.875000
vt 1.000000 1.000000
vt 1.000000 0.875000
vn 1.0000 0.0000 0.0000
vn -1.0000 0.0000 0.0000
vn 0.0000 1.0000 0.0000
vn 0.0000 -1.0000 -0.0000
vn 0.0000 -0.0000 1.0000
vn 0.0000 0.0000 -1.0000
usemtl m_3
s 1
f 1/1/1 2/2/1 3/3/1
f 2/2/1 4/4/1 3/3/1
f 5/5/2 6/6/2 7/7/2
f 6/6/2 8/8/2 7/7/2
f 5/9/3 7/10/3 3/3/3
f 7/10/3 1/11/3 3/3/3
f 8/12/4 6/13/4 2/14/4
f 6/13/4 4/15/4 2/14/4
f 7/16/5 8/17/5 1/18/5
f 8/17/5 2/19/5 1/18/5
f 3/20/6 4/21/6 5/22/6
f 4/21/6 6/23/6 5/22/6
o unit
v 0.250000 -0.187500 0.250000
v 0.250000 -0.375000 0.250000
v 0.250000 -0.187500 -0.437500
v 0.250000 -0.375000 -0.437500
v -0.437500 -0.187500 -0.437500
v -0.437500 -0.375000 -0.437500
v -0.437500 -0.187500 0.250000
v -0.437500 -0.375000 0.250000
vt 0.500000 1.000000
vt 0.500000 0.812500
vt 1.000000 1.000000
vt 1.000000 0.812500
vt 0.500000 1.000000
vt 0.500000 0.812500
vt 1.000000 1.000000
vt 1.000000 0.812500
vt 0.687500 1.000000
vt 0.687500 0.687500
vt 1.000000 0.687500
vt 0.500000 1.000000
vt 0.500000 0.687500
vt 1.000000 1.000000
vt 1.000000 0.687500
vt 0.500000 1.000000
vt 0.500000 0.812500
vt 1.000000 1.000000
vt 1.000000 0.812500
vt 0.500000 1.000000
vt 0.500000 0.812500
vt 1.000000 1.000000
vt 1.000000 0.812500
vn 1.0000 0.0000 0.0000
vn -1.0000 0.0000 0.0000
vn 0.0000 1.0000 0.0000
vn 0.0000 -1.0000 -0.0000
vn 0.0000 -0.0000 1.0000
vn 0.0000 0.0000 -1.0000
usemtl m_3
s 1
f 9/24/7 10/25/7 11/26/7
f 10/25/7 12/27/7 11/26/7
f 13/28/8 14/29/8 15/30/8
f 14/29/8 16/31/8 15/30/8
f 13/32/9 15/33/9 11/26/9
f 15/33/9 9/34/9 11/26/9
f 16/35/10 14/36/10 10/37/10
f 14/36/10 12/38/10 10/37/10
f 15/39/11 16/40/11 9/41/11
f 16/40/11 10/42/11 9/41/11
f 11/43/12 12/44/12 13/45/12
f 12/44/12 14/46/12 13/45/12
o base3
v 0.375000 -0.312500 0.500000
v 0.375000 -0.375000 0.500000
v 0.375000 -0.312500 0.250000
v 0.375000 -0.375000 0.250000
v -0.437500 -0.312500 0.250000
v -0.437500 -0.375000 0.250000
v -0.437500 -0.312500 0.500000
v -0.437500 -0.375000 0.500000
vt 0.750000 1.000000
vt 0.750000 0.937500
vt 1.000000 1.000000
vt 1.000000 0.937500
vt 0.750000 1.000000
vt 0.750000 0.937500
vt 1.000000 1.000000
vt 1.000000 0.937500
vt 0.750000 0.750000
vt 1.000000 0.750000
vt 0.500000 1.000000
vt 0.500000 0.750000
vt 1.000000 1.000000
vt 1.000000 0.750000
vt 0.500000 1.000000
vt 0.500000 0.937500
vt 1.000000 1.000000
vt 1.000000 0.937500
vt 0.500000 1.000000
vt 0.500000 0.937500
vt 1.000000 1.000000
vt 1.000000 0.937500
vn 1.0000 0.0000 0.0000
vn -1.0000 0.0000 0.0000
vn 0.0000 1.0000 0.0000
vn 0.0000 -1.0000 0.0000
vn 0.0000 0.0000 1.0000
vn 0.0000 0.0000 -1.0000
usemtl m_3
s 1
f 17/47/13 18/48/13 19/49/13
f 18/48/13 20/50/13 19/49/13
f 21/51/14 22/52/14 23/53/14
f 22/52/14 24/54/14 23/53/14
f 21/51/15 23/55/15 19/49/15
f 23/55/15 17/56/15 19/49/15
f 24/57/16 22/58/16 18/59/16
f 22/58/16 20/60/16 18/59/16
f 23/61/17 24/62/17 17/63/17
f 24/62/17 18/64/17 17/63/17
f 19/65/18 20/66/18 21/67/18
f 20/66/18 22/68/18 21/67/18
o antenne_bottom
v 0.375000 0.062500 0.250000
v 0.375000 -0.375000 0.250000
v 0.375000 0.062500 0.125000
v 0.375000 -0.375000 0.125000
v 0.250000 0.062500 0.125000
v 0.250000 -0.375000 0.125000
v 0.250000 0.062500 0.250000
v 0.250000 -0.375000 0.250000
vt 0.875000 1.000000
vt 0.875000 0.687500
vt 1.000000 1.000000
vt 1.000000 0.687500
vt 0.875000 1.000000
vt 0.875000 0.687500
vt 1.000000 1.000000
vt 1.000000 0.687500
vt 0.875000 0.875000
vt 1.000000 0.875000
vt 0.875000 1.000000
vt 0.875000 0.875000
vt 1.000000 1.000000
vt 1.000000 0.875000
vt 0.875000 1.000000
vt 0.875000 0.687500
vt 1.000000 1.000000
vt 1.000000 0.687500
vt 0.875000 1.000000
vt 0.875000 0.687500
vt 1.000000 1.000000
vt 1.000000 0.687500
vn 1.0000 0.0000 0.0000
vn -1.0000 0.0000 0.0000
vn 0.0000 1.0000 0.0000
vn 0.0000 -1.0000 0.0000
vn 0.0000 -0.0000 1.0000
vn 0.0000 0.0000 -1.0000
usemtl m_3
s 1
f 25/69/19 26/70/19 27/71/19
f 26/70/19 28/72/19 27/71/19
f 29/73/20 30/74/20 31/75/20
f 30/74/20 32/76/20 31/75/20
f 29/73/21 31/77/21 27/71/21
f 31/77/21 25/78/21 27/71/21
f 32/79/22 30/80/22 26/81/22
f 30/80/22 28/82/22 26/81/22
f 31/83/23 32/84/23 25/85/23
f 32/84/23 26/86/23 25/85/23
f 27/87/24 28/88/24 29/89/24
f 28/88/24 30/90/24 29/89/24
o antenne_top
v 0.343750 0.500000 0.218750
v 0.343750 0.062500 0.218750
v 0.343750 0.500000 0.156250
v 0.343750 0.062500 0.156250
v 0.281250 0.500000 0.156250
v 0.281250 0.062500 0.156250
v 0.281250 0.500000 0.218750
v 0.281250 0.062500 0.218750
vt 0.000000 1.000000
vt 0.000000 0.687500
vt 0.062500 1.000000
vt 0.062500 0.687500
vt 0.000000 1.000000
vt 0.000000 0.687500
vt 0.062500 1.000000
vt 0.062500 0.687500
vt 0.000000 0.937500
vt 0.062500 0.937500
vt 0.000000 1.000000
vt 0.000000 0.937500
vt 0.062500 1.000000
vt 0.062500 0.937500
vt 0.000000 1.000000
vt 0.000000 0.687500
vt 0.062500 1.000000
vt 0.062500 0.687500
vt 0.000000 1.000000
vt 0.000000 0.718750
vt 0.062500 1.000000
vt 0.062500 0.718750
vn 1.0000 0.0000 0.0000
vn -1.0000 0.0000 0.0000
vn 0.0000 1.0000 0.0000
vn 0.0000 -1.0000 -0.0000
vn 0.0000 -0.0000 1.0000
vn 0.0000 0.0000 -1.0000
usemtl m_3
s 1
f 33/91/25 34/92/25 35/93/25
f 34/92/25 36/94/25 35/93/25
f 37/95/26 38/96/26 39/97/26
f 38/96/26 40/98/26 39/97/26
f 37/95/27 39/99/27 35/93/27
f 39/99/27 33/100/27 35/93/27
f 40/101/28 38/102/28 34/103/28
f 38/102/28 36/104/28 34/103/28
f 39/105/29 40/106/29 33/107/29
f 40/106/29 34/108/29 33/107/29
f 35/109/30 36/110/30 37/111/30
f 36/110/30 38/112/30 37/111/30
o base2
v -0.437500 -0.312500 0.500000
v -0.437500 -0.500000 0.500000
v -0.437500 -0.312500 -0.500000
v -0.437500 -0.500000 -0.500000
v -0.500000 -0.312500 -0.500000
v -0.500000 -0.500000 -0.500000
v -0.500000 -0.312500 0.500000
v -0.500000 -0.500000 0.500000
vt 0.500000 1.000000
vt 0.500000 0.687500
vt 1.000000 1.000000
vt 1.000000 0.687500
vt 0.500000 1.000000
vt 0.500000 0.687500
vt 1.000000 1.000000
vt 1.000000 0.687500
vt 0.500000 0.687500
vt 1.000000 0.687500
vt 0.500000 1.000000
vt 1.000000 1.000000
vt 0.500000 1.000000
vt 0.500000 0.687500
vt 1.000000 1.000000
vt 1.000000 0.687500
vt 0.500000 1.000000
vt 0.500000 0.687500
vt 1.000000 1.000000
vt 1.000000 0.687500
vn 1.0000 0.0000 0.0000
vn -1.0000 0.0000 0.0000
vn 0.0000 1.0000 0.0000
vn 0.0000 -1.0000 -0.0000
vn 0.0000 -0.0000 1.0000
vn 0.0000 0.0000 -1.0000
usemtl m_3
s 1
f 41/113/31 42/114/31 43/115/31
f 42/114/31 44/116/31 43/115/31
f 45/117/32 46/118/32 47/119/32
f 46/118/32 48/120/32 47/119/32
f 45/117/33 47/121/33 43/115/33
f 47/121/33 41/122/33 43/115/33
f 48/123/34 46/118/34 42/124/34
f 46/118/34 44/116/34 42/124/34
f 47/125/35 48/126/35 41/127/35
f 48/126/35 42/128/35 41/127/35
f 43/129/36 44/130/36 45/131/36
f 44/130/36 46/132/36 45/131/36
o leuchte
v 0.187500 -0.184375 -0.312500
v 0.187500 -0.246875 -0.312500
v 0.187500 -0.184375 -0.375000
v 0.187500 -0.246875 -0.375000
v 0.125000 -0.184375 -0.375000
v 0.125000 -0.246875 -0.375000
v 0.125000 -0.184375 -0.312500
v 0.125000 -0.246875 -0.312500
vt 0.937500 0.062500
vt 0.937500 0.000000
vt 1.000000 0.062500
vt 1.000000 0.000000
vt 0.937500 0.062500
vt 0.937500 0.000000
vt 1.000000 0.062500
vt 1.000000 0.000000
vt 0.937500 0.000000
vt 1.000000 0.000000
vt 0.937500 0.062500
vt 1.000000 0.062500
vt 0.937500 0.062500
vt 0.937500 0.000000
vt 1.000000 0.062500
vt 1.000000 0.000000
vt 0.937500 0.062500
vt 0.937500 0.000000
vt 1.000000 0.062500
vt 1.000000 0.000000
vn 1.0000 0.0000 0.0000
vn -1.0000 0.0000 0.0000
vn 0.0000 1.0000 0.0000
vn 0.0000 -1.0000 0.0000
vn 0.0000 0.0000 1.0000
vn 0.0000 0.0000 -1.0000
usemtl m_3
s 1
f 49/133/37 50/134/37 51/135/37
f 50/134/37 52/136/37 51/135/37
f 53/137/38 54/138/38 55/139/38
f 54/138/38 56/140/38 55/139/38
f 53/137/39 55/141/39 51/135/39
f 55/141/39 49/142/39 51/135/39
f 56/143/40 54/138/40 50/144/40
f 54/138/40 52/136/40 50/144/40
f 55/145/41 56/146/41 49/147/41
f 56/146/41 50/148/41 49/147/41
f 51/149/42 52/150/42 53/151/42
f 52/150/42 54/152/42 53/151/42
