# WaveFront *.obj file (generated by CINEMA 4D)

mtllib ./signalra10b.mtl

v 0 0 -0.03125
v 0 1 -0.03125
v 0.01195899955928 0 -0.02887099981308
v 0.01195899955928 1 -0.02887099981308
v 0.02209700085223 0 -0.02209700085223
v 0.02209700085223 1 -0.02209700085223
v 0.02887099981308 0 -0.01195899955928
v 0.02887099981308 1 -0.01195899955928
v 0.03125 0 0
v 0.03125 1 0
v 0.02887099981308 0 0.01195899955928
v 0.02887099981308 1 0.01195899955928
v 0.02209700085223 0 0.02209700085223
v 0.02209700085223 1 0.02209700085223
v 0.01195899955928 0 0.02887099981308
v 0.01195899955928 1 0.02887099981308
v 0 0 0.03125
v 0 1 0.03125
v -0.01195899955928 0 0.02887099981308
v -0.01195899955928 1 0.02887099981308
v -0.02209700085223 0 0.02209700085223
v -0.02209700085223 1 0.02209700085223
v -0.02887099981308 0 0.01195899955928
v -0.02887099981308 1 0.01195899955928
v -0.03125 0 0
v -0.03125 1 0
v -0.02887099981308 0 -0.01195899955928
v -0.02887099981308 1 -0.01195899955928
v -0.02209700085223 0 -0.02209700085223
v -0.02209700085223 1 -0.02209700085223
v -0.01195899955928 0 -0.02887099981308
v -0.01195899955928 1 -0.02887099981308
# 32 vertices

vn 0.32073286175728 0 -0.94716972112656
vn 0.44297280907631 0 -0.89653503894806
vn 0.19510667026043 0 -0.98078203201294
vn 0 0 0
vn 0.65877628326416 0 -0.75233888626099
vn 0.75233888626099 0 -0.65877628326416
vn 0.89653503894806 0 -0.44297280907631
vn 0.94716966152191 0 -0.3207328915596
vn 0.98078203201294 0 -0.19510667026043
vn 0.98078203201294 0 -0.19510667026043
vn 0.94716972112656 0 0.32073286175728
vn 0.89653503894806 0 0.44297280907631
vn 0.98078203201294 0 0.19510667026043
vn 0.75233888626099 0 0.65877628326416
vn 0.65877628326416 0 0.75233888626099
vn 0.44297280907631 0 0.89653503894806
vn 0.3207328915596 0 0.94716966152191
vn 0.19510667026043 0 0.98078203201294
vn -0.32073286175728 0 0.94716972112656
vn -0.44297280907631 0 0.89653503894806
vn -0.19510667026043 0 0.98078203201294
vn -0.65877628326416 0 0.75233888626099
vn -0.75233888626099 0 0.65877628326416
vn -0.89653503894806 0 0.44297280907631
vn -0.94716966152191 0 0.3207328915596
vn -0.98078203201294 0 0.19510667026043
vn -0.94716972112656 0 -0.32073286175728
vn -0.89653503894806 0 -0.44297280907631
vn -0.98078203201294 0 -0.19510667026043
vn -0.75233888626099 0 -0.65877628326416
vn -0.65877628326416 0 -0.75233888626099
vn 0 1 0
vn -0.19510667026043 0 -0.98078203201294
vn -0.3207328915596 0 -0.94716966152191
vn -0.44297280907631 0 -0.89653503894806
vn 0 -1 0
vn 0 1 0
vn 0 1 0
# 38 normals

vt 0.38097900152206 0 0
vt 0.38097900152206 0.5 0
vt 0.375 0.5 0
vt 0.38604900240898 0 0
vt 0.38604900240898 0.5 0
vt 0.36902099847794 0.5 0
vt 0.36902099847794 0 0
vt 0.36395099759102 0 0
vt 0.375 0 0
vt 0.36395099759102 0.5 0
vt 0.36902099847794 0.49815905094147 0
vt 0.375 0.46809804439545 0
vt 0.38097900152206 0.46928703784943 0
vt 0.38604900240898 0.49477100372314 0
vt 0.390625 0.48372304439545 0
vt 0.38604900240898 0.47267401218414 0
vt 0.38943600654602 0.47774398326874 0
vt 0.38943600654602 0.48970198631287 0
vt 0.38097900152206 0.49815905094147 0
vt 0.375 0.49934804439545 0
vt 0.36395099759102 0.49477100372314 0
vt 0.36056399345398 0.48970198631287 0
vt 0.359375 0.48372304439545 0
vt 0.36056399345398 0.47774398326874 0
vt 0.36395099759102 0.47267401218414 0
vt 0.36902099847794 0.46928703784943 0
# 26 texture coordinates

o Cube_Cube.003
usemtl Default
f 2/3/3 4/2/2 3/1/1
f 4/2/2 6/5/6 5/4/5
f 6/8/6 8/7/8 7/6/7
f 8/7/8 10/9/10 9/3/9
f 10/9/13 12/1/12 11/2/11
f 12/1/12 14/4/15 13/5/14
f 14/5/15 16/2/17 15/1/16
f 16/2/17 18/3/18 17/9/18
f 18/3/21 20/6/20 19/7/19
f 20/6/20 22/10/23 21/8/22
f 22/4/23 24/1/25 23/2/24
f 24/1/25 26/9/26 25/3/26
f 26/9/29 28/7/28 27/6/27
f 28/7/28 30/8/31 29/10/30
f 4/13/32 2/12/32 20/11/32
f 32/6/34 2/3/33 1/9/33
f 30/10/31 32/6/34 31/7/35
f 1/12/36 9/15/36 13/14/36
f 1/9/3 2/3/3 3/1/1
f 3/1/1 4/2/2 5/4/5
f 5/10/5 6/8/6 7/6/7
f 7/6/7 8/7/8 9/3/9
f 9/3/13 10/9/13 11/2/11
f 11/2/11 12/1/12 13/5/14
f 13/4/14 14/5/15 15/1/16
f 15/1/16 16/2/17 17/9/18
f 17/9/21 18/3/21 19/7/19
f 19/7/19 20/6/20 21/8/22
f 21/5/22 22/4/23 23/2/24
f 23/2/24 24/1/25 25/3/26
f 25/3/29 26/9/29 27/6/27
f 27/6/27 28/7/28 29/10/30
f 8/17/32 6/16/32 4/13/32
f 12/18/32 10/15/32 8/17/32
f 20/11/32 14/14/32 12/18/32
f 14/14/32 18/20/32 16/19/37
f 24/22/32 22/21/32 20/11/32
f 20/11/32 26/23/32 24/22/32
f 2/12/32 30/25/32 28/24/32
f 30/25/32 2/12/32 32/26/38
f 12/18/32 8/17/32 4/13/32
f 20/11/32 18/20/32 14/14/32
f 2/12/32 26/23/32 20/11/32
f 26/23/32 2/12/32 28/24/32
f 20/11/32 12/18/32 4/13/32
f 31/7/35 32/6/34 1/9/33
f 29/8/30 30/10/31 31/7/35
f 29/25/36 31/26/36 1/12/36
f 25/23/36 27/24/36 29/25/36
f 21/21/36 23/22/36 25/23/36
f 25/23/36 19/11/36 21/21/36
f 13/14/36 15/19/36 17/20/36
f 9/15/36 11/18/36 13/14/36
f 5/16/36 7/17/36 9/15/36
f 1/12/36 3/13/36 5/16/36
f 25/23/36 29/25/36 1/12/36
f 17/20/36 19/11/36 25/23/36
f 25/23/36 13/14/36 17/20/36
f 1/12/36 5/16/36 9/15/36
f 13/14/36 25/23/36 1/12/36

v 0 0.89999997615814 0.03173999860883
v 0 0.89999997615814 0.0599999986589
v 0.03901800140738 0.89615702629089 0.03173999860883
v 0.03901800140738 0.89615702629089 0.0599999986589
v 0.07653699815273 0.88477599620819 0.03173999860883
v 0.07653699815273 0.88477599620819 0.0599999986589
v 0.11111400276422 0.86629402637482 0.03173999860883
v 0.11111400276422 0.86629402637482 0.0599999986589
v 0.14142100512981 0.84142100811005 0.03173999860883
v 0.14142100512981 0.84142100811005 0.0599999986589
v 0.16629399359226 0.81111401319504 0.03173999860883
v 0.16629399359226 0.81111401319504 0.0599999986589
v 0.18477599322796 0.77653700113297 0.03173999860883
v 0.18477599322796 0.77653700113297 0.0599999986589
v 0.19615699350834 0.73901802301407 0.03173999860883
v 0.19615699350834 0.73901802301407 0.0599999986589
v 0.20000000298023 0.69999998807907 0.03173999860883
v 0.20000000298023 0.69999998807907 0.0599999986589
v 0.20000000298023 0.66098201274872 0.03173999860883
v 0.20000000298023 0.66098201274872 0.0599999986589
v 0.20000000298023 0.62346297502518 0.03173999860883
v 0.20000000298023 0.62346297502518 0.0599999986589
v -0.20000000298023 0.62346297502518 0.03173999860883
v -0.20000000298023 0.62346297502518 0.0599999986589
v -0.20000000298023 0.66098201274872 0.03173999860883
v -0.20000000298023 0.66098201274872 0.0599999986589
v -0.20000000298023 0.69999998807907 0.03173999860883
v -0.20000000298023 0.69999998807907 0.0599999986589
v -0.19615699350834 0.73901802301407 0.03173999860883
v -0.19615699350834 0.73901802301407 0.0599999986589
v -0.18477599322796 0.77653700113297 0.03173999860883
v -0.18477599322796 0.77653700113297 0.0599999986589
v -0.16629399359226 0.81111401319504 0.03173999860883
v -0.16629399359226 0.81111401319504 0.0599999986589
v -0.14142100512981 0.84142100811005 0.03173999860883
v -0.14142100512981 0.84142100811005 0.0599999986589
v -0.11111400276422 0.86629402637482 0.03173999860883
v -0.11111400276422 0.86629402637482 0.0599999986589
v -0.07653599977493 0.88477599620819 0.03173999860883
v -0.07653599977493 0.88477599620819 0.0599999986589
v -0.03901800140738 0.89615702629089 0.03173999860883
v -0.03901800140738 0.89615702629089 0.0599999986589
# 42 vertices

vn 0.16280131042004 0.98665887117386 0
vn 0.22716397047043 0.97385650873184 0
vn 0.03281289339066 0.9994615316391 0
vn 0.35215994715691 0.935939848423 0
vn 0.41279309988022 0.91082483530045 0
vn 0.52799439430237 0.84924787282944 0
vn 0.58256256580353 0.81278586387634 0
vn 0.68352735042572 0.72992485761642 0
vn 0.72992515563965 0.6835270524025 0
vn 0.81278598308563 0.58256244659424 0
vn 0.84924775362015 0.5279945731163 0
vn 0.92387986183166 0.38268262147903 0
vn 0.97385650873184 0.22716403007507 0
vn 0.99879539012909 0.04906854405999 0
vn 0.98665875196457 0.16280204057693 0
vn 1 0 0
vn 0 0 1
vn 0 0 -1
vn -1 0 0
vn -0.99946492910385 0.03270797803998 0
vn -0.99785810709 0.06541594862938 0
vn -0.98665875196457 0.16280204057693 0
vn -0.97385650873184 0.22716403007507 0
vn -0.93593990802765 0.35215976834297 0
vn -0.91082471609116 0.41279330849648 0
vn -0.83146464824677 0.55557769536972 0
vn -0.83146458864212 0.55557769536972 0
vn -0.70710694789886 0.70710664987564 0
vn -0.58255928754807 0.81278824806213 0
vn -0.52798753976822 0.84925210475922 0
vn -0.41278803348541 0.91082710027695 0
vn -0.3521608710289 0.93593949079514 0
vn -0.03281289339066 0.9994615316391 0
vn -0.16280375421047 0.98665845394135 0
vn -0.22716878354549 0.97385537624359 0
vn 0.99879539012909 0.0490685403347 0
vn 0 0 1
vn 0 0 1
vn 0 0 -1
vn -1 0 0
vn -0.70710694789886 0.707106590271 0
# 41 normals

vt 0.70349597930908 0.04635906219482 0
vt 0.70349597930908 0 0
vt 0.64195501804352 0 0
vt 0.76146602630615 0.04635906219482 0
vt 0.76146602630615 0 0
vt 0.81363797187805 0.04635906219482 0
vt 0.81363701820374 0 0
vt 0.35984399914742 0 0
vt 0.35984399914742 0.04635906219482 0
vt 0.40752699971199 0.04635906219482 0
vt 0.30511999130249 0 0
vt 0.30511999130249 0.04635906219482 0
vt 0.24545800685883 0 0
vt 0.24545800685883 0.04635906219482 0
vt 0.18315300345421 0.04635906219482 0
vt 0.12059599906206 0.04635906219482 0
vt 0.18315200507641 0 0
vt 0.05911700055003 0 0
vt 0.05911700055003 0.04635906219482 0
vt 0 0 0
vt 0 0.04635906219482 0
vt 0.00614999979734 0.73591899871826 0
vt 0.25763401389122 0.99369597434998 0
vt 0.58621299266815 0.85418796539307 0
vt 0.64015597105026 0.09271800518036 0
vt 0.64015597105026 0.04635906219482 0
vt 0 0.21827101707458 0
vt 0.61579102277756 0.34382498264313 0
vt 0.64015597105026 0.2182719707489 0
vt 0.69927299022675 1 0
vt 0.69927299022675 0.95364099740982 0
vt 0.64015597105026 0.95364099740982 0
vt 0.76075202226639 1 0
vt 0.76075202226639 0.95364099740982 0
vt 0.82330799102783 1 0
vt 0.82330799102783 0.95364099740982 0
vt 0.88561397790909 1 0
vt 0.88561397790909 0.95364099740982 0
vt 0.9452760219574 1 0
vt 0.9452760219574 0.95364099740982 0
vt 1 0.95364099740982 0
vt 0.45969900488853 0.04635906219482 0
vt 0.45969900488853 0 0
vt 0.40752699971199 0 0
vt 0.51766902208328 0.04635906219482 0
vt 0.51766902208328 0 0
vt 0.64195501804352 0.04635906219482 0
vt 0.57920998334885 0 0
vt 0.57920998334885 0.04635906219482 0
vt 0.12059599906206 0 0
vt 0.38252198696136 0.99369597434998 0
vt 0.44256600737572 0.97502601146698 0
vt 0.49790298938751 0.94470697641373 0
vt 0.54640698432922 0.90390503406525 0
vt 0.61579102277756 0.79746603965759 0
vt 0.63400501012802 0.73591899871826 0
vt 0.64015597105026 0.67191302776337 0
vt 0.64015597105026 0.60790604352951 0
vt 0.64015597105026 0.54635900259018 0
vt 0 0.54635900259018 0
vt 0 0.60790604352951 0
vt 0 0.67191201448441 0
vt 0.32007798552513 1 0
vt 0.14225199818611 0.94470697641373 0
vt 0.19758999347687 0.97502601146698 0
vt 0.05394300073385 0.85418796539307 0
vt 0.0937490016222 0.90390598773956 0
vt 0.02436500042677 0.79746603965759 0
vt 0 0.09271800518036 0
vt 0.32007798552513 0.54635900259018 0
vt 0.38252198696136 0.5400550365448 0
vt 0.25763401389122 0.5400550365448 0
vt 0.44256600737572 0.52138501405716 0
vt 0.49790298938751 0.49106597900391 0
vt 0.54640698432922 0.45026397705078 0
vt 0.58621299266815 0.40054702758789 0
vt 0.63400501012802 0.28227806091309 0
vt 0.64015597105026 0.15426504611969 0
vt 0.14225199818611 0.49106597900391 0
vt 0.19758899509907 0.52138501405716 0
vt 0.05394300073385 0.40054702758789 0
vt 0.0937490016222 0.45026397705078 0
vt 0.00614999979734 0.28227806091309 0
vt 0.02436500042677 0.34382498264313 0
vt 0 0.15426504611969 0
vt 0.64015597105026 1 0
vt 1 1 0
# 87 texture coordinates

o Cylinder.001
usemtl Default
f 34/29/41 36/28/40 35/27/39
f 36/28/40 38/31/43 37/30/42
f 38/31/43 40/33/45 39/32/44
f 40/36/45 42/35/47 41/34/46
f 42/35/47 44/38/49 43/37/48
f 44/38/49 46/40/50 45/39/50
f 45/39/50 46/40/50 48/41/51
f 47/43/53 48/41/51 50/42/52
f 50/42/52 52/45/54 51/44/54
f 52/45/54 54/47/54 53/46/54
f 44/50/55 74/49/55 62/48/55
f 54/47/36 56/52/36 55/51/36
f 59/55/56 63/54/56 49/53/56
f 56/58/57 58/57/57 57/56/57
f 58/57/57 60/60/59 59/59/58
f 60/60/59 62/62/61 61/61/60
f 62/62/61 64/64/63 63/63/62
f 64/64/63 66/66/65 65/65/64
f 65/65/64 66/66/65 68/67/66
f 68/70/66 70/69/68 69/68/67
f 70/69/68 72/72/70 71/71/69
f 74/74/72 34/29/41 33/73/71
f 72/72/70 74/74/72 73/75/73
f 33/73/71 34/29/41 35/27/39
f 35/27/39 36/28/40 37/30/42
f 37/30/42 38/31/43 39/32/44
f 39/70/44 40/36/45 41/34/46
f 41/34/46 42/35/47 43/37/48
f 43/37/48 44/38/49 45/39/50
f 47/43/53 45/39/50 48/41/51
f 49/76/74 47/43/53 50/42/52
f 49/76/74 50/42/52 51/44/54
f 51/44/54 52/45/54 53/46/54
f 40/79/55 38/78/55 36/77/55
f 44/50/55 42/80/55 40/79/55
f 62/48/55 46/81/55 44/50/55
f 46/81/55 50/83/55 48/82/75
f 56/86/55 54/85/76 52/84/55
f 52/84/55 50/83/55 58/87/55
f 58/87/55 56/86/55 52/84/55
f 62/48/55 60/88/55 50/83/55
f 74/49/55 40/79/55 36/77/55
f 36/77/55 34/89/55 74/49/55
f 74/49/55 72/91/55 70/90/55
f 70/90/55 68/93/55 66/92/55
f 74/49/55 64/94/55 62/48/55
f 50/83/55 60/88/55 58/87/55
f 74/49/55 44/50/55 40/79/55
f 66/92/55 74/49/55 70/90/55
f 74/49/55 66/92/55 64/94/55
f 46/81/55 62/48/55 50/83/55
f 53/95/36 54/47/36 55/51/36
f 35/98/56 73/97/56 33/96/56
f 73/97/56 69/100/77 71/99/77
f 73/97/56 65/102/56 67/101/77
f 59/55/56 61/103/56 63/54/56
f 53/95/56 55/51/56 57/104/56
f 65/102/56 73/97/56 63/54/56
f 73/97/56 67/101/77 69/100/77
f 39/105/56 73/97/56 35/98/56
f 35/98/56 37/106/56 39/105/56
f 39/105/56 41/108/56 43/107/56
f 43/107/56 45/110/56 47/109/56
f 57/104/56 49/53/56 51/111/56
f 51/111/56 53/95/56 57/104/56
f 73/97/56 39/105/56 63/54/56
f 47/109/56 63/54/56 39/105/56
f 39/105/56 43/107/56 47/109/56
f 59/55/56 49/53/56 57/104/56
f 47/109/56 49/53/56 63/54/56
f 55/112/78 56/58/57 57/56/57
f 57/56/57 58/57/57 59/59/58
f 59/59/58 60/60/59 61/61/60
f 61/61/60 62/62/61 63/63/62
f 63/63/62 64/64/63 65/65/64
f 67/113/79 65/65/64 68/67/66
f 67/36/79 68/70/66 69/68/67
f 69/68/67 70/69/68 71/71/69
f 73/75/73 74/74/72 33/73/71
f 71/71/69 72/72/70 73/75/73

