# Blender v2.90.1 OBJ File: ''
# www.blender.org
mtllib hsigright.mtl
o generalCube
v 0.500000 0.500000 0.500000
v 0.500000 -0.500000 0.500000
v 0.500000 0.500000 -0.468750
v 0.500000 -0.500000 -0.468750
v -0.500000 0.500000 -0.468750
v -0.500000 -0.500000 -0.468750
v -0.500000 0.500000 0.500000
v -0.500000 -0.500000 0.500000
vt 0.828125 0.164062
vt 0.828125 0.000000
vt 1.000000 0.164062
vt 1.000000 0.000000
vt 0.937500 0.062500
vt 0.937500 0.000000
vt 1.000000 0.062500
vt 1.000000 0.000000
vt 0.937500 0.000000
vt 1.000000 0.062500
vt 1.000000 0.000000
vt 0.867188 0.109375
vt 0.867188 0.000000
vt 1.000000 0.109375
vt 0.890625 0.109375
vt 0.890625 0.000000
vt 1.000000 0.109375
vt 1.000000 0.000000
vt 0.500000 0.500000
vt 0.500000 0.000000
vt 1.000000 0.500000
vt 1.000000 0.000000
vn 1.0000 -0.0000 0.0000
vn -1.0000 -0.0000 0.0000
vn 0.0000 1.0000 0.0000
vn 0.0000 -1.0000 -0.0000
vn 0.0000 -0.0000 1.0000
vn 0.0000 0.0000 -1.0000
usemtl m_0
s 1
f 1/1/1 2/2/1 3/3/1
f 2/2/1 4/4/1 3/3/1
f 5/5/2 6/6/2 7/7/2
f 6/6/2 8/8/2 7/7/2
f 5/5/3 7/9/3 3/10/3
f 7/9/3 1/11/3 3/10/3
f 8/12/4 6/13/4 2/14/4
f 6/13/4 4/4/4 2/14/4
f 7/15/5 8/16/5 1/17/5
f 8/16/5 2/18/5 1/17/5
usemtl none
f 3/19/6 4/20/6 5/21/6
f 4/20/6 6/22/6 5/21/6
o off
v 0.500000 0.500000 -0.437500
v 0.500000 -0.500000 -0.437500
v 0.500000 0.500000 -0.500000
v 0.500000 -0.500000 -0.500000
v -0.500000 0.500000 -0.500000
v -0.500000 -0.500000 -0.500000
v -0.500000 0.500000 -0.437500
v -0.500000 -0.500000 -0.437500
vt 0.937500 0.062500
vt 0.937500 0.000000
vt 1.000000 0.062500
vt 1.000000 0.000000
vt 0.937500 0.039062
vt 0.937500 0.000000
vt 1.000000 0.039062
vt 1.000000 0.000000
vt 0.000000 0.078125
vt 0.000000 0.015625
vt 1.000000 0.078125
vt 1.000000 0.015625
vt 0.000000 0.062500
vt 0.000000 0.000000
vt 1.000000 0.062500
vt 0.000000 1.000000
vt 0.000000 0.500000
vt 0.500000 1.000000
vt 0.500000 0.500000
vt 0.500000 0.500000
vt 0.500000 0.000000
vt 1.000000 0.500000
vt 1.000000 0.000000
vn 1.0000 0.0000 0.0000
vn -1.0000 0.0000 0.0000
vn 0.0000 1.0000 0.0000
vn 0.0000 -1.0000 0.0000
vn 0.0000 0.0000 -1.0000
vn 0.0000 -0.0000 1.0000
usemtl m_0
s 1
f 9/23/7 10/24/7 11/25/7
f 10/24/7 12/26/7 11/25/7
f 13/27/8 14/28/8 15/29/8
f 14/28/8 16/30/8 15/29/8
f 13/31/9 15/32/9 11/33/9
f 15/32/9 9/34/9 11/33/9
f 16/35/10 14/36/10 10/37/10
f 14/36/10 12/26/10 10/37/10
f 11/38/11 12/39/11 13/40/11
f 12/39/11 14/41/11 13/40/11
usemtl none
f 15/42/12 16/43/12 9/44/12
f 16/43/12 10/45/12 9/44/12
o green
v 0.500000 0.500000 -0.437500
v 0.500000 -0.500000 -0.437500
v 0.500000 0.500000 -0.500000
v 0.500000 -0.500000 -0.500000
v -0.500000 0.500000 -0.500000
v -0.500000 -0.500000 -0.500000
v -0.500000 0.500000 -0.437500
v -0.500000 -0.500000 -0.437500
vt 0.937500 0.062500
vt 0.937500 0.000000
vt 1.000000 0.062500
vt 1.000000 0.000000
vt 0.937500 0.039062
vt 0.937500 0.000000
vt 1.000000 0.039062
vt 1.000000 0.000000
vt 0.000000 0.078125
vt 0.000000 0.015625
vt 1.000000 0.078125
vt 1.000000 0.015625
vt 0.000000 0.062500
vt 0.000000 0.000000
vt 1.000000 0.062500
vt 0.500000 1.000000
vt 0.500000 0.500000
vt 1.000000 1.000000
vt 1.000000 0.500000
vt 0.500000 0.500000
vt 0.500000 0.000000
vt 1.000000 0.500000
vt 1.000000 0.000000
vn 1.0000 0.0000 0.0000
vn -1.0000 0.0000 0.0000
vn 0.0000 1.0000 0.0000
vn 0.0000 -1.0000 0.0000
vn 0.0000 0.0000 -1.0000
vn 0.0000 -0.0000 1.0000
usemtl m_0
s 1
f 17/46/13 18/47/13 19/48/13
f 18/47/13 20/49/13 19/48/13
f 21/50/14 22/51/14 23/52/14
f 22/51/14 24/53/14 23/52/14
f 21/54/15 23/55/15 19/56/15
f 23/55/15 17/57/15 19/56/15
f 24/58/16 22/59/16 18/60/16
f 22/59/16 20/49/16 18/60/16
f 19/61/17 20/62/17 21/63/17
f 20/62/17 22/64/17 21/63/17
usemtl none
f 23/65/18 24/66/18 17/67/18
f 24/66/18 18/68/18 17/67/18
o orange
v 0.500000 0.500000 -0.437500
v 0.500000 -0.500000 -0.437500
v 0.500000 0.500000 -0.500000
v 0.500000 -0.500000 -0.500000
v -0.500000 0.500000 -0.500000
v -0.500000 -0.500000 -0.500000
v -0.500000 0.500000 -0.437500
v -0.500000 -0.500000 -0.437500
vt 0.937500 0.062500
vt 0.937500 0.000000
vt 1.000000 0.062500
vt 1.000000 0.000000
vt 0.937500 0.039062
vt 0.937500 0.000000
vt 1.000000 0.039062
vt 1.000000 0.000000
vt 0.000000 0.078125
vt 0.000000 0.015625
vt 1.000000 0.078125
vt 1.000000 0.015625
vt 0.000000 0.062500
vt 0.000000 0.000000
vt 1.000000 0.062500
vt 0.000000 0.500000
vt 0.000000 0.000000
vt 0.500000 0.500000
vt 0.500000 0.000000
vt 0.500000 0.500000
vt 0.500000 0.000000
vt 1.000000 0.500000
vt 1.000000 0.000000
vn 1.0000 0.0000 0.0000
vn -1.0000 0.0000 0.0000
vn 0.0000 1.0000 0.0000
vn 0.0000 -1.0000 0.0000
vn 0.0000 0.0000 -1.0000
vn 0.0000 -0.0000 1.0000
usemtl m_0
s 1
f 25/69/19 26/70/19 27/71/19
f 26/70/19 28/72/19 27/71/19
f 29/73/20 30/74/20 31/75/20
f 30/74/20 32/76/20 31/75/20
f 29/77/21 31/78/21 27/79/21
f 31/78/21 25/80/21 27/79/21
f 32/81/22 30/82/22 26/83/22
f 30/82/22 28/72/22 26/83/22
f 27/84/23 28/85/23 29/86/23
f 28/85/23 30/87/23 29/86/23
usemtl none
f 31/88/24 32/89/24 25/90/24
f 32/89/24 26/91/24 25/90/24
o red
v 0.500000 0.500000 -0.437500
v 0.500000 -0.500000 -0.437500
v 0.500000 0.500000 -0.500000
v 0.500000 -0.500000 -0.500000
v -0.500000 0.500000 -0.500000
v -0.500000 -0.500000 -0.500000
v -0.500000 0.500000 -0.437500
v -0.500000 -0.500000 -0.437500
vt 0.937500 0.062500
vt 0.937500 0.000000
vt 1.000000 0.062500
vt 1.000000 0.000000
vt 0.937500 0.039062
vt 0.937500 0.000000
vt 1.000000 0.039062
vt 1.000000 0.000000
vt 0.000000 0.078125
vt 0.000000 0.015625
vt 1.000000 0.078125
vt 1.000000 0.015625
vt 0.000000 0.062500
vt 0.000000 0.000000
vt 1.000000 0.062500
vt 0.500000 0.500000
vt 0.500000 0.000000
vt 1.000000 0.500000
vt 1.000000 0.000000
vt 0.500000 0.500000
vt 0.500000 0.000000
vt 1.000000 0.500000
vt 1.000000 0.000000
vn 1.0000 0.0000 0.0000
vn -1.0000 0.0000 0.0000
vn 0.0000 1.0000 0.0000
vn 0.0000 -1.0000 0.0000
vn 0.0000 0.0000 -1.0000
vn 0.0000 -0.0000 1.0000
usemtl m_0
s 1
f 33/92/25 34/93/25 35/94/25
f 34/93/25 36/95/25 35/94/25
f 37/96/26 38/97/26 39/98/26
f 38/97/26 40/99/26 39/98/26
f 37/100/27 39/101/27 35/102/27
f 39/101/27 33/103/27 35/102/27
f 40/104/28 38/105/28 34/106/28
f 38/105/28 36/95/28 34/106/28
f 35/107/29 36/108/29 37/109/29
f 36/108/29 38/110/29 37/109/29
usemtl none
f 39/111/30 40/112/30 33/113/30
f 40/112/30 34/114/30 33/113/30
