# Blender v2.90.1 OBJ File: ''
# www.blender.org
mtllib trackdiagupleft.mtl
o generalCube
v 0.500000 0.500000 0.500000
v 0.500000 -0.500000 0.500000
v 0.500000 0.500000 -0.468750
v 0.500000 -0.500000 -0.468750
v -0.500000 0.500000 -0.468750
v -0.500000 -0.500000 -0.468750
v -0.500000 0.500000 0.500000
v -0.500000 -0.500000 0.500000
vt 0.500000 0.500000
vt 0.500000 0.000000
vt 1.000000 0.500000
vt 1.000000 0.000000
vt 0.500000 0.500000
vt 0.500000 0.000000
vt 1.000000 0.500000
vt 1.000000 0.000000
vt 0.500000 0.000000
vt 1.000000 0.000000
vt 0.500000 0.500000
vt 1.000000 0.500000
vt 0.500000 0.500000
vt 0.500000 0.000000
vt 1.000000 0.500000
vt 1.000000 0.000000
vt 0.500000 0.500000
vt 0.500000 0.000000
vt 1.000000 0.500000
vt 1.000000 0.000000
vn 1.0000 -0.0000 0.0000
vn -1.0000 -0.0000 0.0000
vn 0.0000 1.0000 0.0000
vn 0.0000 -1.0000 -0.0000
vn 0.0000 -0.0000 1.0000
vn 0.0000 0.0000 -1.0000
usemtl m_0
s 1
f 1/1/1 2/2/1 3/3/1
f 2/2/1 4/4/1 3/3/1
f 5/5/2 6/6/2 7/7/2
f 6/6/2 8/8/2 7/7/2
f 5/5/3 7/9/3 3/3/3
f 7/9/3 1/10/3 3/3/3
f 8/11/4 6/6/4 2/12/4
f 6/6/4 4/4/4 2/12/4
f 7/13/5 8/14/5 1/15/5
f 8/14/5 2/16/5 1/15/5
f 3/17/6 4/18/6 5/19/6
f 4/18/6 6/20/6 5/19/6
o off
v 0.500000 0.500000 -0.437500
v 0.500000 -0.500000 -0.437500
v 0.500000 0.500000 -0.500000
v 0.500000 -0.500000 -0.500000
v -0.500000 0.500000 -0.500000
v -0.500000 -0.500000 -0.500000
v -0.500000 0.500000 -0.437500
v -0.500000 -0.500000 -0.437500
vt 0.937500 0.062500
vt 0.937500 0.000000
vt 1.000000 0.062500
vt 1.000000 0.000000
vt 0.937500 1.000000
vt 0.937500 0.000000
vt 1.000000 1.000000
vt 1.000000 0.000000
vt 0.000000 0.585938
vt 0.000000 0.523438
vt 1.000000 0.585938
vt 1.000000 0.523438
vt 0.000000 0.625000
vt 0.000000 0.562500
vt 1.000000 0.625000
vt 1.000000 0.562500
vt 0.000000 1.000000
vt 0.000000 0.500000
vt 0.500000 1.000000
vt 0.500000 0.500000
vt 0.500000 0.500000
vt 0.500000 0.000000
vt 1.000000 0.500000
vt 1.000000 0.000000
vn 1.0000 0.0000 0.0000
vn -1.0000 0.0000 0.0000
vn 0.0000 1.0000 0.0000
vn 0.0000 -1.0000 0.0000
vn 0.0000 0.0000 -1.0000
vn 0.0000 -0.0000 1.0000
usemtl m_0
s 1
f 9/21/7 10/22/7 11/23/7
f 10/22/7 12/24/7 11/23/7
f 13/25/8 14/26/8 15/27/8
f 14/26/8 16/28/8 15/27/8
f 13/29/9 15/30/9 11/31/9
f 15/30/9 9/32/9 11/31/9
f 16/33/10 14/34/10 10/35/10
f 14/34/10 12/36/10 10/35/10
f 11/37/11 12/38/11 13/39/11
f 12/38/11 14/40/11 13/39/11
usemtl none
f 15/41/12 16/42/12 9/43/12
f 16/42/12 10/44/12 9/43/12
o white
v 0.500000 0.500000 -0.437500
v 0.500000 -0.500000 -0.437500
v 0.500000 0.500000 -0.500000
v 0.500000 -0.500000 -0.500000
v -0.500000 0.500000 -0.500000
v -0.500000 -0.500000 -0.500000
v -0.500000 0.500000 -0.437500
v -0.500000 -0.500000 -0.437500
vt 0.937500 0.062500
vt 0.937500 0.000000
vt 1.000000 0.062500
vt 1.000000 0.000000
vt 0.937500 1.000000
vt 0.937500 0.000000
vt 1.000000 1.000000
vt 1.000000 0.000000
vt 0.000000 0.585938
vt 0.000000 0.523438
vt 1.000000 0.585938
vt 1.000000 0.523438
vt 0.000000 0.625000
vt 0.000000 0.562500
vt 1.000000 0.625000
vt 1.000000 0.562500
vt 0.500000 1.000000
vt 0.500000 0.500000
vt 1.000000 1.000000
vt 1.000000 0.500000
vt 0.500000 0.500000
vt 0.500000 0.000000
vt 1.000000 0.500000
vt 1.000000 0.000000
vn 1.0000 0.0000 0.0000
vn -1.0000 0.0000 0.0000
vn 0.0000 1.0000 0.0000
vn 0.0000 -1.0000 0.0000
vn 0.0000 0.0000 -1.0000
vn 0.0000 -0.0000 1.0000
usemtl m_0
s 1
f 17/45/13 18/46/13 19/47/13
f 18/46/13 20/48/13 19/47/13
f 21/49/14 22/50/14 23/51/14
f 22/50/14 24/52/14 23/51/14
f 21/53/15 23/54/15 19/55/15
f 23/54/15 17/56/15 19/55/15
f 24/57/16 22/58/16 18/59/16
f 22/58/16 20/60/16 18/59/16
f 19/61/17 20/62/17 21/63/17
f 20/62/17 22/64/17 21/63/17
usemtl none
f 23/65/18 24/66/18 17/67/18
f 24/66/18 18/68/18 17/67/18
o red
v 0.500000 0.500000 -0.437500
v 0.500000 -0.500000 -0.437500
v 0.500000 0.500000 -0.500000
v 0.500000 -0.500000 -0.500000
v -0.500000 0.500000 -0.500000
v -0.500000 -0.500000 -0.500000
v -0.500000 0.500000 -0.437500
v -0.500000 -0.500000 -0.437500
vt 0.937500 0.062500
vt 0.937500 0.000000
vt 1.000000 0.062500
vt 1.000000 0.000000
vt 0.937500 1.000000
vt 0.937500 0.000000
vt 1.000000 1.000000
vt 1.000000 0.000000
vt 0.000000 0.585938
vt 0.000000 0.523438
vt 1.000000 0.585938
vt 1.000000 0.523438
vt 0.000000 0.625000
vt 0.000000 0.562500
vt 1.000000 0.625000
vt 1.000000 0.562500
vt 0.000000 0.500000
vt 0.000000 0.000000
vt 0.500000 0.500000
vt 0.500000 0.000000
vt 0.500000 0.500000
vt 0.500000 0.000000
vt 1.000000 0.500000
vt 1.000000 0.000000
vn 1.0000 0.0000 0.0000
vn -1.0000 0.0000 0.0000
vn 0.0000 1.0000 0.0000
vn 0.0000 -1.0000 0.0000
vn 0.0000 0.0000 -1.0000
vn 0.0000 -0.0000 1.0000
usemtl m_0
s 1
f 25/69/19 26/70/19 27/71/19
f 26/70/19 28/72/19 27/71/19
f 29/73/20 30/74/20 31/75/20
f 30/74/20 32/76/20 31/75/20
f 29/77/21 31/78/21 27/79/21
f 31/78/21 25/80/21 27/79/21
f 32/81/22 30/82/22 26/83/22
f 30/82/22 28/84/22 26/83/22
f 27/85/23 28/86/23 29/87/23
f 28/86/23 30/88/23 29/87/23
usemtl none
f 31/89/24 32/90/24 25/91/24
f 32/90/24 26/92/24 25/91/24
