# WaveFront *.obj file (generated by CINEMA 4D)

mtllib ./signalne1.mtl

v -0.05000000074506 -0.21915100514889 0.04299899935722
v -0.05000000074506 -0.21915100514889 0.03173999860883
v 0.05000000074506 -0.21915100514889 0.03173999860883
v 0.05000000074506 -0.21915100514889 0.04299899935722
v -0.05000000074506 0.58084899187088 0.04299899935722
v -0.05000000074506 0.58084899187088 0.03173999860883
v 0.05000000074506 0.58084899187088 0.03173999860883
v 0.05000000074506 0.58084899187088 0.04299899935722
# 8 vertices

vn -1 0 0
vn 0 0 0
vn 0 0 -1
vn 1 0 0
vn 0 0 1
vn 0 -1 0
vn 0 1 0
vn 1 0 0
# 8 normals

vt 0.98369997739792 1.00000405311584 0
vt 0.98913502693176 1.00000405311584 0
vt 0.98913502693176 0.8750039935112 0
vt 0.9066150188446 1.00000405311584 0
vt 0.96882301568985 1.00000405311584 0
vt 0.96882301568985 0.8750039935112 0
vt 0.99457001686096 0.8750039935112 0
vt 0.9687619805336 0.65498203039169 0
vt 1.00037205219269 0.65498203039169 0
vt 1.00037205219269 0.8749960064888 0
vt 0.99457001686096 0.9062539935112 0
vt 1.00000500679016 0.9062539935112 0
vt 1.00000500679016 0.8906289935112 0
vt 1.00000500679016 0.8750039935112 0
vt 0.99457001686096 0.8906289935112 0
vt 0.98369997739792 0.8750039935112 0
vt 0.9066150188446 0.8750039935112 0
vt 0.99457001686096 1.00000405311584 0
# 18 texture coordinates

o MS1_MS01
usemtl Default
f 6/3/1 2/2/1 1/1/1
f 7/6/3 3/5/3 2/4/3
f 8/2/4 4/3/4 3/7/4
f 5/10/5 1/9/5 4/8/5
f 2/13/6 3/12/6 4/11/6
f 7/15/7 6/7/7 5/14/7
f 5/16/1 6/3/1 1/1/1
f 6/17/3 7/6/3 2/4/3
f 7/18/8 8/2/4 3/7/4
f 8/6/5 5/10/5 4/8/5
f 1/15/6 2/13/6 4/11/6
f 8/13/7 7/15/7 5/14/7

v -0.40000000596046 0.58569002151489 0.05999799817801
v -0.40000000596046 0.58569002151489 0.03173999860883
v 0.40000000596046 0.58569002151489 0.03173999860883
v 0.40000000596046 0.58569002151489 0.05999799817801
v -0.20000000298023 0.98568999767303 0.05999799817801
v -0.20000000298023 0.98568999767303 0.03173999860883
v 0.20000000298023 0.98568999767303 0.03173999860883
v 0.20000000298023 0.98568999767303 0.05999799817801
# 8 vertices

vn -0.89442718029022 0.44721364974976 0
vn -0.89442718029022 0.44721364974976 0
vn 0.89442718029022 0.44721364974976 0
vn 0.89442718029022 0.44721364974976 0
# 4 normals

vt 1 0.06597805023193 0
vt 1 0.03298902511597 0
vt 0.75 0.03298902511597 0
vt 1 0.53298902511597 0
vt 0 0.53298902511597 0
vt 0.25 1 0
vt 0 0.03298902511597 0
vt 0 0.06597805023193 0
vt 0.25 0.06597805023193 0
vt 0.25 0.53298902511597 0
vt 0 0 0
vt 0.75 0.06597805023193 0
vt 0.25 0.03298902511597 0
vt 0.75 1 0
vt 0.75 0.53298902511597 0
vt 1 0 0
# 16 texture coordinates

o NE1_NE01
usemtl Default
f 14/21/9 10/20/10 9/19/9
f 15/24/3 11/23/3 10/22/3
f 16/27/11 12/26/12 11/25/11
f 13/28/5 9/26/5 12/19/5
f 10/20/6 11/25/6 12/29/6
f 15/31/7 14/21/7 13/30/7
f 13/30/10 14/21/9 9/19/9
f 14/32/3 15/24/3 10/22/3
f 15/31/12 16/27/11 11/25/11
f 16/33/5 13/28/5 12/19/5
f 9/34/6 10/20/6 12/29/6
f 16/27/7 15/31/7 13/30/7

