# Blender v2.90.1 OBJ File: ''
# www.blender.org
mtllib blocksender2.mtl
o stand
v 0.125000 -0.187500 0.125000
v 0.125000 -0.500000 0.125000
v 0.125000 -0.187500 -0.125000
v 0.125000 -0.500000 -0.125000
v -0.125000 -0.187500 -0.125000
v -0.125000 -0.500000 -0.125000
v -0.125000 -0.187500 0.125000
v -0.125000 -0.500000 0.125000
vt 0.750000 0.312500
vt 0.750000 0.000000
vt 1.000000 0.312500
vt 1.000000 0.000000
vt 0.750000 0.312500
vt 0.750000 0.000000
vt 1.000000 0.312500
vt 1.000000 0.000000
vt 0.750000 0.250000
vt 1.000000 0.250000
vt 0.750000 0.312500
vt 0.750000 0.000000
vt 1.000000 0.312500
vt 1.000000 0.000000
vt 0.750000 0.312500
vt 0.750000 0.000000
vt 1.000000 0.312500
vt 1.000000 0.000000
vt 0.000000 1.000000
vt 0.000000 0.750000
vt 0.250000 1.000000
vt 0.250000 0.750000
vn 1.0000 0.0000 0.0000
vn -1.0000 0.0000 0.0000
vn 0.0000 -1.0000 0.0000
vn 0.0000 -0.0000 1.0000
vn 0.0000 0.0000 -1.0000
vn 0.0000 1.0000 0.0000
usemtl m_0
s 1
f 1/1/1 2/2/1 3/3/1
f 2/2/1 4/4/1 3/3/1
f 5/5/2 6/6/2 7/7/2
f 6/6/2 8/8/2 7/7/2
f 8/9/3 6/6/3 2/10/3
f 6/6/3 4/4/3 2/10/3
f 7/11/4 8/12/4 1/13/4
f 8/12/4 2/14/4 1/13/4
f 3/15/5 4/16/5 5/17/5
f 4/16/5 6/18/5 5/17/5
usemtl none
f 5/19/6 7/20/6 3/21/6
f 7/20/6 1/22/6 3/21/6
o fuss
v 0.500000 -0.437500 0.500000
v 0.500000 -0.500000 0.500000
v 0.500000 -0.437500 -0.500000
v 0.500000 -0.500000 -0.500000
v -0.500000 -0.437500 -0.500000
v -0.500000 -0.500000 -0.500000
v -0.500000 -0.437500 0.500000
v -0.500000 -0.500000 0.500000
vt 0.000000 0.062500
vt 0.000000 0.000000
vt 1.000000 0.062500
vt 1.000000 0.000000
vt 0.000000 0.062500
vt 0.000000 0.000000
vt 1.000000 0.062500
vt 1.000000 0.000000
vt 0.000000 0.781250
vt 0.000000 0.093750
vt 0.687500 0.781250
vt 0.687500 0.093750
vt 0.437500 0.562500
vt 0.437500 0.000000
vt 1.000000 0.562500
vt 0.000000 0.062500
vt 0.000000 0.000000
vt 1.000000 0.062500
vt 1.000000 0.000000
vt 0.000000 0.062500
vt 0.000000 0.000000
vt 1.000000 0.062500
vt 1.000000 0.000000
vn 1.0000 0.0000 0.0000
vn -1.0000 0.0000 0.0000
vn 0.0000 1.0000 0.0000
vn 0.0000 -1.0000 -0.0000
vn 0.0000 -0.0000 1.0000
vn 0.0000 0.0000 -1.0000
usemtl m_0
s 1
f 9/23/7 10/24/7 11/25/7
f 10/24/7 12/26/7 11/25/7
f 13/27/8 14/28/8 15/29/8
f 14/28/8 16/30/8 15/29/8
f 13/31/9 15/32/9 11/33/9
f 15/32/9 9/34/9 11/33/9
f 16/35/10 14/36/10 10/37/10
f 14/36/10 12/26/10 10/37/10
f 15/38/11 16/39/11 9/40/11
f 16/39/11 10/41/11 9/40/11
f 11/42/12 12/43/12 13/44/12
f 12/43/12 14/45/12 13/44/12
o box
v 0.375000 0.500000 0.250000
v 0.375000 -0.187500 0.250000
v 0.375000 0.500000 -0.250000
v 0.375000 -0.187500 -0.250000
v -0.375000 0.500000 -0.250000
v -0.375000 -0.187500 -0.250000
v -0.375000 0.500000 0.250000
v -0.375000 -0.187500 0.250000
vt 0.000000 0.812500
vt 0.000000 0.531250
vt 0.281250 0.812500
vt 0.281250 0.531250
vt 0.000000 0.812500
vt 0.000000 0.531250
vt 0.281250 0.812500
vt 0.281250 0.531250
vt 0.468750 1.000000
vt 0.468750 0.781250
vt 0.687500 1.000000
vt 0.687500 0.781250
vt 0.250000 0.500000
vt 0.250000 0.000000
vt 1.000000 0.500000
vt 1.000000 0.000000
vt 0.000000 0.781250
vt 0.000000 0.562500
vt 0.281250 0.781250
vt 0.281250 0.562500
vt 0.000000 1.000000
vt 0.000000 0.156250
vt 0.843750 1.000000
vt 0.843750 0.156250
vn 1.0000 0.0000 0.0000
vn -1.0000 0.0000 0.0000
vn 0.0000 1.0000 0.0000
vn 0.0000 -1.0000 -0.0000
vn 0.0000 -0.0000 1.0000
vn 0.0000 0.0000 -1.0000
usemtl m_0
s 1
f 17/46/13 18/47/13 19/48/13
f 18/47/13 20/49/13 19/48/13
f 21/50/14 22/51/14 23/52/14
f 22/51/14 24/53/14 23/52/14
f 21/54/15 23/55/15 19/56/15
f 23/55/15 17/57/15 19/56/15
f 24/58/16 22/59/16 18/60/16
f 22/59/16 20/61/16 18/60/16
f 23/62/17 24/63/17 17/64/17
f 24/63/17 18/65/17 17/64/17
f 19/66/18 20/67/18 21/68/18
f 20/67/18 22/69/18 21/68/18
