# WaveFront *.obj file (generated by CINEMA 4D)

mtllib ./signallf1.mtl

v -0.0599999986589 0.36875000596046 0.02999999932945
v -0.0599999986589 0.36875000596046 -0.02999999932945
v -0.04804100096226 0.37112900614738 0.02999999932945
v -0.04804100096226 0.37112900614738 -0.02999999932945
v -0.03790299966931 0.37790301442146 0.02999999932945
v -0.03790299966931 0.37790301442146 -0.02999999932945
v -0.03112900070846 0.38804098963737 0.02999999932945
v -0.03112900070846 0.38804098963737 -0.02999999932945
v -0.02875000052154 0.40000000596046 0.02999999932945
v -0.02875000052154 0.40000000596046 -0.02999999932945
v -0.03112900070846 0.41195899248123 0.02999999932945
v -0.03112900070846 0.41195899248123 -0.02999999932945
v -0.03790299966931 0.42209699749947 0.02999999932945
v -0.03790299966931 0.42209699749947 -0.02999999932945
v -0.04804100096226 0.42887100577354 0.02999999932945
v -0.04804100096226 0.42887100577354 -0.02999999932945
v -0.0599999986589 0.43125000596046 0.02999999932945
v -0.0599999986589 0.43125000596046 -0.02999999932945
v -0.07195899635553 0.42887100577354 0.02999999932945
v -0.07195899635553 0.42887100577354 -0.02999999932945
v -0.08209700137377 0.42209699749947 0.02999999932945
v -0.08209700137377 0.42209699749947 -0.02999999932945
v -0.08887100219727 0.41195899248123 0.02999999932945
v -0.08887100219727 0.41195899248123 -0.02999999932945
v -0.09125000238419 0.40000000596046 0.02999999932945
v -0.09125000238419 0.40000000596046 -0.02999999932945
v -0.08887100219727 0.38804098963737 0.02999999932945
v -0.08887100219727 0.38804098963737 -0.02999999932945
v -0.08209700137377 0.37790301442146 0.02999999932945
v -0.08209700137377 0.37790301442146 -0.02999999932945
v -0.07195899635553 0.37112900614738 0.02999999932945
v -0.07195899635553 0.37112900614738 -0.02999999932945
# 32 vertices

vn 0.38269156217575 -0.92387616634369 0
vn 0.38269156217575 -0.92387616634369 0
vn 0.19510671496391 -0.98078203201294 0
vn 0 0 0
vn 0.707106590271 -0.70710694789886 0
vn 0.89653468132019 -0.44297349452972 0
vn 0.94716960191727 -0.32073310017586 0
vn 0.98078209161758 -0.19510641694069 0
vn 0.98078209161758 -0.19510641694069 0
vn 0.94716966152191 0.32073295116425 0
vn 0.89653503894806 0.44297280907631 0
vn 0.98078197240829 0.19510689377785 0
vn 0.75233912467957 0.65877604484558 0
vn 0.65877658128738 0.75233864784241 0
vn 0.44297328591347 0.89653480052948 0
vn 0.32073312997818 0.94716960191727 0
vn 0.19510671496391 0.98078203201294 0
vn 0.19510671496391 0.98078203201294 0
vn -0.38269147276878 0.92387622594833 0
vn -0.38269150257111 0.92387616634369 0
vn -0.19510671496391 0.98078203201294 0
vn -0.65877652168274 0.75233864784241 0
vn -0.89653503894806 0.44297289848328 0
vn -0.75233906507492 0.65877610445023 0
vn -0.98078197240829 0.19510689377785 0
vn -0.94716966152191 0.32073298096657 0
vn -0.94716960191727 -0.32073312997818 0
vn -0.98078209161758 -0.19510641694069 0
vn -0.98078209161758 -0.19510641694069 0
vn -0.70710641145706 -0.70710718631744 0
vn -0.89653468132019 -0.44297352433205 0
vn 0 0 -1
vn -0.19510668516159 -0.98078203201294 0
vn -0.38269150257111 -0.92387616634369 0
vn -0.38269138336182 -0.92387622594833 0
vn 0.19510671496391 -0.98078203201294 0
vn 0.98078197240829 0.19510687887669 0
vn -0.19510671496391 0.98078203201294 0
vn -0.98078197240829 0.19510687887669 0
vn -0.70710635185242 -0.70710724592209 0
vn -0.19510665535927 -0.98078203201294 0
# 41 normals

vt 0.89126300811768 0.9666600227356 0
vt 0.89126300811768 0.93665999174118 0
vt 0.88528299331665 0.93665999174118 0
vt 0.89633202552795 0.93665999174118 0
vt 0.85930401086807 0.9666600227356 0
vt 0.85930401086807 0.93665999174118 0
vt 0.85423499345779 0.93665999174118 0
vt 0.86528301239014 0.9666600227356 0
vt 0.86528301239014 0.93665999174118 0
vt 0.87126302719116 0.9666600227356 0
vt 0.87126302719116 0.93665999174118 0
vt 0.8763319849968 0.9666600227356 0
vt 0.8763319849968 0.93665999174118 0
vt 0.88528299331665 0.9666600227356 0
vt 0.87930399179459 0.9666600227356 0
vt 0.87930399179459 0.93665999174118 0
vt 0.87423497438431 0.93665999174118 0
vt 0.86056399345398 0.98970198631287 0
vt 0.86056399345398 0.97774398326874 0
vt 0.88943600654602 0.98970198631287 0
vt 0.89633202552795 0.9666600227356 0
vt 0.85423499345779 0.9666600227356 0
vt 0.87423497438431 0.9666600227356 0
vt 0.88097900152206 0.96928697824478 0
vt 0.88604897260666 0.97267401218414 0
vt 0.88943600654602 0.97774398326874 0
vt 0.890625 0.9837229847908 0
vt 0.88604897260666 0.99477100372314 0
vt 0.88097900152206 0.99815899133682 0
vt 0.875 0.9993479847908 0
vt 0.86902099847794 0.99815899133682 0
vt 0.86395102739334 0.99477100372314 0
vt 0.859375 0.9837229847908 0
vt 0.86395102739334 0.97267401218414 0
vt 0.86902099847794 0.96928697824478 0
vt 0.875 0.9680979847908 0
# 36 texture coordinates

o Cube_Cube.001
usemtl Default
f 2/3/3 4/2/2 3/1/1
f 3/1/1 4/2/2 6/4/5
f 6/7/5 8/6/7 7/5/6
f 8/6/7 10/9/9 9/8/8
f 10/9/12 12/11/11 11/10/10
f 12/11/11 14/13/14 13/12/13
f 14/4/14 16/2/16 15/1/15
f 16/2/16 18/3/18 17/14/17
f 18/3/21 20/16/20 19/15/19
f 19/15/19 20/16/20 22/17/22
f 21/12/24 22/13/22 24/11/23
f 23/10/26 24/11/23 26/9/25
f 25/8/29 26/9/28 28/6/27
f 27/5/31 28/6/27 30/7/30
f 12/20/32 28/19/32 24/18/32
f 31/15/35 32/16/34 2/3/33
f 30/17/30 32/16/34 31/15/35
f 1/14/36 2/3/3 3/1/1
f 5/21/5 3/1/1 6/4/5
f 5/22/5 6/7/5 7/5/6
f 7/5/6 8/6/7 9/8/8
f 9/8/37 10/9/12 11/10/10
f 11/10/10 12/11/11 13/12/13
f 13/21/13 14/4/14 15/1/15
f 15/1/15 16/2/16 17/14/17
f 17/14/38 18/3/21 19/15/19
f 21/23/24 19/15/19 22/17/22
f 23/10/26 21/12/24 24/11/23
f 25/8/39 23/10/26 26/9/25
f 27/5/31 25/8/29 28/6/27
f 29/22/40 27/5/31 30/7/30
f 8/26/32 6/25/32 4/24/32
f 12/20/32 10/27/32 8/26/32
f 16/29/32 14/28/32 12/20/32
f 12/20/32 18/30/32 16/29/32
f 24/18/32 22/32/32 20/31/32
f 28/19/32 26/33/32 24/18/32
f 32/35/32 30/34/32 28/19/32
f 28/19/32 8/26/32 32/35/32
f 2/36/32 8/26/32 4/24/32
f 24/18/32 18/30/32 12/20/32
f 18/30/32 24/18/32 20/31/32
f 8/26/32 2/36/32 32/35/32
f 28/19/32 12/20/32 8/26/32
f 1/14/41 31/15/35 2/3/33
f 29/23/40 30/17/30 31/15/35

v 0 0 -0.03125
v 0 1 -0.03125
v 0.01195899955928 0 -0.02887099981308
v 0.01195899955928 1 -0.02887099981308
v 0.02209700085223 0 -0.02209700085223
v 0.02209700085223 1 -0.02209700085223
v 0.02887099981308 0 -0.01195899955928
v 0.02887099981308 1 -0.01195899955928
v 0.03125 0 0
v 0.03125 1 0
v 0.02887099981308 0 0.01195899955928
v 0.02887099981308 1 0.01195899955928
v 0.02209700085223 0 0.02209700085223
v 0.02209700085223 1 0.02209700085223
v 0.01195899955928 0 0.02887099981308
v 0.01195899955928 1 0.02887099981308
v 0 0 0.03125
v 0 1 0.03125
v -0.01195899955928 0 0.02887099981308
v -0.01195899955928 1 0.02887099981308
v -0.02209700085223 0 0.02209700085223
v -0.02209700085223 1 0.02209700085223
v -0.02887099981308 0 0.01195899955928
v -0.02887099981308 1 0.01195899955928
v -0.03125 0 0
v -0.03125 1 0
v -0.02887099981308 0 -0.01195899955928
v -0.02887099981308 1 -0.01195899955928
v -0.02209700085223 0 -0.02209700085223
v -0.02209700085223 1 -0.02209700085223
v -0.01195899955928 0 -0.02887099981308
v -0.01195899955928 1 -0.02887099981308
# 32 vertices

vn 0.32073286175728 0 -0.94716972112656
vn 0.44297280907631 0 -0.89653503894806
vn 0.19510667026043 0 -0.98078203201294
vn 0.65877628326416 0 -0.75233888626099
vn 0.75233888626099 0 -0.65877628326416
vn 0.89653503894806 0 -0.44297280907631
vn 0.94716966152191 0 -0.3207328915596
vn 0.98078203201294 0 -0.19510667026043
vn 0.98078203201294 0 -0.19510667026043
vn 0.94716972112656 0 0.32073286175728
vn 0.89653503894806 0 0.44297280907631
vn 0.98078203201294 0 0.19510667026043
vn 0.75233888626099 0 0.65877628326416
vn 0.65877628326416 0 0.75233888626099
vn 0.44297280907631 0 0.89653503894806
vn 0.3207328915596 0 0.94716966152191
vn 0.19510667026043 0 0.98078203201294
vn -0.32073286175728 0 0.94716972112656
vn -0.44297280907631 0 0.89653503894806
vn -0.19510667026043 0 0.98078203201294
vn -0.65877628326416 0 0.75233888626099
vn -0.75233888626099 0 0.65877628326416
vn -0.89653503894806 0 0.44297280907631
vn -0.94716966152191 0 0.3207328915596
vn -0.98078203201294 0 0.19510667026043
vn -0.94716972112656 0 -0.32073286175728
vn -0.89653503894806 0 -0.44297280907631
vn -0.98078203201294 0 -0.19510667026043
vn -0.75233888626099 0 -0.65877628326416
vn -0.65877628326416 0 -0.75233888626099
vn 0 1 0
vn -0.19510667026043 0 -0.98078203201294
vn -0.3207328915596 0 -0.94716966152191
vn -0.44297280907631 0 -0.89653503894806
vn 0 -1 0
vn 0 1 0
vn 0 1 0
# 37 normals

vt 0.88097900152206 0.5 0
vt 0.88097900152206 1 0
vt 0.875 1 0
vt 0.88604897260666 0.5 0
vt 0.88604897260666 1 0
vt 0.86902099847794 1 0
vt 0.86902099847794 0.5 0
vt 0.86395102739334 0.5 0
vt 0.875 0.5 0
vt 0.86395102739334 1 0
# 10 texture coordinates

o Cube_Cube.000
usemtl Default
f 34/39/44 36/38/43 35/37/42
f 36/38/43 38/41/46 37/40/45
f 38/44/46 40/43/48 39/42/47
f 40/43/48 42/45/50 41/39/49
f 42/45/53 44/37/52 43/38/51
f 44/37/52 46/40/55 45/41/54
f 46/41/55 48/38/57 47/37/56
f 48/38/57 50/39/58 49/45/58
f 50/39/61 52/42/60 51/43/59
f 52/42/60 54/46/63 53/44/62
f 54/40/63 56/37/65 55/38/64
f 56/37/65 58/45/66 57/39/66
f 58/45/69 60/43/68 59/42/67
f 60/43/68 62/44/71 61/46/70
f 36/24/72 34/36/72 52/31/72
f 64/42/74 34/39/73 33/45/73
f 62/46/71 64/42/74 63/43/75
f 33/36/76 41/27/76 45/28/76
f 33/45/44 34/39/44 35/37/42
f 35/37/42 36/38/43 37/40/45
f 37/46/45 38/44/46 39/42/47
f 39/42/47 40/43/48 41/39/49
f 41/39/53 42/45/53 43/38/51
f 43/38/51 44/37/52 45/41/54
f 45/40/54 46/41/55 47/37/56
f 47/37/56 48/38/57 49/45/58
f 49/45/61 50/39/61 51/43/59
f 51/43/59 52/42/60 53/44/62
f 53/41/62 54/40/63 55/38/64
f 55/38/64 56/37/65 57/39/66
f 57/39/69 58/45/69 59/42/67
f 59/42/67 60/43/68 61/46/70
f 40/26/72 38/25/72 36/24/72
f 44/20/72 42/27/72 40/26/72
f 52/31/72 46/28/72 44/20/72
f 46/28/72 50/30/72 48/29/77
f 56/18/72 54/32/72 52/31/72
f 52/31/72 58/33/72 56/18/72
f 34/36/72 62/34/72 60/19/72
f 62/34/72 34/36/72 64/35/78
f 44/20/72 40/26/72 36/24/72
f 52/31/72 50/30/72 46/28/72
f 34/36/72 58/33/72 52/31/72
f 58/33/72 34/36/72 60/19/72
f 52/31/72 44/20/72 36/24/72
f 63/43/75 64/42/74 33/45/73
f 61/44/70 62/46/71 63/43/75
f 61/34/76 63/35/76 33/36/76
f 57/33/76 59/19/76 61/34/76
f 53/32/76 55/18/76 57/33/76
f 57/33/76 51/31/76 53/32/76
f 45/28/76 47/29/76 49/30/76
f 41/27/76 43/20/76 45/28/76
f 37/25/76 39/26/76 41/27/76
f 33/36/76 35/24/76 37/25/76
f 57/33/76 61/34/76 33/36/76
f 49/30/76 51/31/76 57/33/76
f 57/33/76 45/28/76 49/30/76
f 33/36/76 37/25/76 41/27/76
f 45/28/76 57/33/76 33/36/76

v 0.0599999986589 0.06875000149012 0.02999999932945
v 0.0599999986589 0.06875000149012 -0.02999999932945
v 0.07195899635553 0.07112900167704 0.02999999932945
v 0.07195899635553 0.07112900167704 -0.02999999932945
v 0.08209700137377 0.07790300250053 0.02999999932945
v 0.08209700137377 0.07790300250053 -0.02999999932945
v 0.08887100219727 0.08804100006819 0.02999999932945
v 0.08887100219727 0.08804100006819 -0.02999999932945
v 0.09125000238419 0.10000000149012 0.02999999932945
v 0.09125000238419 0.10000000149012 -0.02999999932945
v 0.08887100219727 0.11195900291204 0.02999999932945
v 0.08887100219727 0.11195900291204 -0.02999999932945
v 0.08209700137377 0.1220970004797 0.02999999932945
v 0.08209700137377 0.1220970004797 -0.02999999932945
v 0.07195899635553 0.12887099385262 0.02999999932945
v 0.07195899635553 0.12887099385262 -0.02999999932945
v 0.0599999986589 0.13124999403954 0.02999999932945
v 0.0599999986589 0.13124999403954 -0.02999999932945
v 0.04804100096226 0.12887099385262 0.02999999932945
v 0.04804100096226 0.12887099385262 -0.02999999932945
v 0.03790299966931 0.1220970004797 0.02999999932945
v 0.03790299966931 0.1220970004797 -0.02999999932945
v 0.03112900070846 0.11195900291204 0.02999999932945
v 0.03112900070846 0.11195900291204 -0.02999999932945
v 0.02875000052154 0.10000000149012 0.02999999932945
v 0.02875000052154 0.10000000149012 -0.02999999932945
v 0.03112900070846 0.08804100006819 0.02999999932945
v 0.03112900070846 0.08804100006819 -0.02999999932945
v 0.03790299966931 0.07790300250053 0.02999999932945
v 0.03790299966931 0.07790300250053 -0.02999999932945
v 0.04804100096226 0.07112900167704 0.02999999932945
v 0.04804100096226 0.07112900167704 -0.02999999932945
# 32 vertices

vn 0.3826912343502 -0.92387628555298 0
vn 0.38269120454788 -0.92387628555298 0
vn 0.65877616405487 -0.75233900547028 0
vn 0.92387622594833 -0.38269138336182 0
vn 0.7523387670517 -0.65877640247345 0
vn 0.98078203201294 -0.19510664045811 0
vn 0.89653491973877 0.44297301769257 0
vn 0.98078203201294 0.19510664045811 0
vn 0.75233870744705 0.65877652168274 0
vn 0.65877592563629 0.75233918428421 0
vn 0.44297251105309 0.89653521776199 0
vn 0.32073277235031 0.94716972112656 0
vn -0.38269105553627 0.92387634515762 0
vn -0.38269108533859 0.92387634515762 0
vn -0.55557006597519 0.83146971464157 0
vn -0.89653497934341 0.44297295808792 0
vn -0.83146941661835 0.55557054281235 0
vn -0.83146941661835 0.55557054281235 0
vn -0.98078203201294 0.19510664045811 0
vn -0.94716966152191 0.32073292136192 0
vn -0.94716966152191 -0.3207328915596 0
vn -0.98078203201294 -0.19510664045811 0
vn -0.70710670948029 -0.70710682868958 0
vn -0.89653497934341 -0.44297295808792 0
vn -0.19510671496391 -0.98078203201294 0
vn -0.3207328915596 -0.94716966152191 0
vn -0.44297289848328 -0.89653497934341 0
vn 0.92387622594833 -0.38269135355949 0
vn -0.55557012557983 0.83146971464157 0
vn -0.70710676908493 -0.70710676908493 0
# 30 normals

# 0 texture coordinate

o Cube_Cube.003
usemtl Default
f 66/3/3 68/2/80 67/1/79
f 67/1/79 68/2/80 70/4/81
f 69/22/83 70/7/81 72/6/82
f 72/6/82 74/9/84 73/8/84
f 74/9/86 76/11/85 75/10/10
f 76/11/85 78/13/88 77/12/87
f 78/4/88 80/2/90 79/1/89
f 80/2/90 82/3/18 81/14/17
f 82/3/21 84/16/92 83/15/91
f 83/15/91 84/16/92 86/17/93
f 85/12/96 86/13/95 88/11/94
f 87/10/98 88/11/94 90/9/97
f 89/8/100 90/9/100 92/6/99
f 91/5/102 92/6/99 94/7/101
f 76/20/32 92/19/32 88/18/32
f 96/16/104 66/3/103 65/14/33
f 94/17/101 96/16/104 95/15/105
f 65/14/36 66/3/3 67/1/79
f 69/21/83 67/1/79 70/4/81
f 71/5/106 69/22/83 72/6/82
f 71/5/106 72/6/82 73/8/84
f 73/8/86 74/9/86 75/10/10
f 75/10/10 76/11/85 77/12/87
f 77/21/87 78/4/88 79/1/89
f 79/1/89 80/2/90 81/14/17
f 81/14/38 82/3/21 83/15/91
f 85/23/107 83/15/91 86/17/93
f 87/10/98 85/12/96 88/11/94
f 89/8/97 87/10/98 90/9/97
f 91/5/102 89/8/100 92/6/99
f 93/22/108 91/5/102 94/7/101
f 72/26/32 70/25/32 68/24/32
f 76/20/32 74/27/32 72/26/32
f 80/29/32 78/28/32 76/20/32
f 76/20/32 82/30/32 80/29/32
f 88/18/32 86/32/32 84/31/32
f 92/19/32 90/33/32 88/18/32
f 96/35/32 94/34/32 92/19/32
f 92/19/32 72/26/32 96/35/32
f 66/36/32 72/26/32 68/24/32
f 88/18/32 82/30/32 76/20/32
f 82/30/32 88/18/32 84/31/32
f 72/26/32 66/36/32 96/35/32
f 92/19/32 76/20/32 72/26/32
f 95/15/105 96/16/104 65/14/33
f 93/23/108 94/17/101 95/15/105

v -0.30000001192093 1 0.03173999860883
v -0.30000001192093 1 0.0599999986589
v 0.30000001192093 1 0.0599999986589
v 0.30000001192093 1 0.03173999860883
v 0 0.40000000596046 0.0599999986589
v 0 0.40000000596046 0.03173999860883
# 6 vertices

vn -0.89442718029022 -0.44721359014511 0
vn -0.89442718029022 -0.44721359014511 0
vn 0 0 1
vn 0.89442718029022 -0.44721359014511 0
vn 0.89442718029022 -0.44721359014511 0
vn 0 0 -1
# 6 normals

vt 0.49998798966408 0.99999898672104 0
vt 0.49998798966408 0.9789360165596 0
vt 0.00000300000011 0.97893798351288 0
vt 0.40682798624039 0.97892302274704 0
vt 0.20340600609779 0.57208001613617 0
vt 0.99997401237488 0.99999797344208 0
vt 0.99997401237488 0.9789360165596 0
vt 0.43998599052429 0.9999960064888 0
vt 0.43998599052429 0.97893798351288 0
vt 0.6102499961853 0.57208001613617 0
vt 0.00000300000011 1.00000095367432 0
# 11 texture coordinates

o Cube.001_Cube.002
usemtl Default
f 97/49/109 102/48/110 101/47/109
f 98/49/111 101/51/111 99/50/111
f 102/48/112 100/53/113 99/52/112
f 98/49/72 99/55/72 100/54/72
f 97/56/114 100/51/114 102/50/114
f 98/57/110 97/49/109 101/47/109
f 101/47/113 102/48/112 99/52/112
f 97/57/72 98/49/72 100/54/72

