# MagicaVoxel @ Ephtracy

# group
o 

# material
mtllib ticketautomat.mtl
usemtl palette

# normals
vn -1 0 0
vn 1 0 0
vn 0 0 1
vn 0 0 -1
vn 0 -1 0
vn 0 1 0

# texcoords
vt 0.845703 0.5
vt 0.876953 0.5
vt 0.908203 0.5
vt 0.912109 0.5
vt 0.939453 0.5
vt 0.943359 0.5
vt 0.947266 0.5
vt 0.951172 0.5
vt 0.970703 0.5
vt 0.974609 0.5
vt 0.978516 0.5
vt 0.982422 0.5
vt 0.986328 0.5
vt 0.990234 0.5

# verts
v -0.8 0 0.1
v -0.8 0 -0.8
v -0.8 0.7 0.1
v -0.8 0.7 -0.8
v -0.8 3 0.3
v -0.8 3 0.1
v -0.8 3 -0.5
v -0.8 3 -0.8
v -0.8 3.1 0.3
v -0.8 3.1 0.2
v -0.8 3.1 -0.2
v -0.8 3.1 -0.5
v -0.8 3.2 0.2
v -0.8 3.2 -0.2
v -0.6 1.4 0.2
v -0.6 1.4 0.1
v -0.6 1.5 0.3
v -0.6 1.5 0.2
v -0.6 1.8 0.3
v -0.6 1.8 0.2
v -0.6 2.1 0.2
v -0.6 2.1 0.1
v -0.3 1.3 0
v -0.3 1.3 -0.2
v -0.3 1.7 0
v -0.3 1.7 -0.2
v 0 1.3 0
v 0 1.3 -0.2
v 0 1.7 0
v 0 1.7 -0.2
v 0.1 1.1 0.1
v 0.1 1.1 -0.1
v 0.1 1.2 -0.1
v 0.1 1.2 -0.2
v 0.1 1.3 0.1
v 0.1 1.3 -0.2
v 0.6 1.9 0.1
v 0.6 1.9 0
v 0.6 2.1 0
v 0.6 2.1 -0.1
v 0.6 2.3 0.1
v 0.6 2.3 0
v 0.6 2.3 -0.1
v -0.6 1.1 0.1
v -0.6 1.1 -0.1
v -0.6 1.2 -0.1
v -0.6 1.2 -0.2
v -0.6 1.3 0.1
v -0.6 1.3 -0.2
v -0.5 1.3 0
v -0.5 1.3 -0.2
v -0.5 1.7 0
v -0.5 1.7 -0.2
v -0.2 1.3 0
v -0.2 1.3 -0.2
v -0.2 1.7 0
v -0.2 1.7 -0.2
v 0.1 1.4 0.2
v 0.1 1.4 0.1
v 0.1 1.5 0.3
v 0.1 1.5 0.2
v 0.1 1.8 0.3
v 0.1 1.8 0.2
v 0.1 2.1 0.2
v 0.1 2.1 0.1
v 0.4 1.9 0.1
v 0.4 1.9 0
v 0.4 2.1 0
v 0.4 2.1 -0.1
v 0.4 2.3 0.1
v 0.4 2.3 0
v 0.4 2.3 -0.1
v 0.8 0 0.1
v 0.8 0 -0.8
v 0.8 0.7 0.1
v 0.8 0.7 -0.8
v 0.8 3 0.3
v 0.8 3 0.1
v 0.8 3 -0.5
v 0.8 3 -0.8
v 0.8 3.1 0.3
v 0.8 3.1 0.2
v 0.8 3.1 -0.2
v 0.8 3.1 -0.5
v 0.8 3.2 0.2
v 0.8 3.2 -0.2
v -0.8 3 0.3
v -0.8 3.1 0.3
v -0.7 3 0.3
v -0.7 3.1 0.3
v -0.6 1.5 0.3
v -0.6 1.8 0.3
v -0.5 1.6 0.3
v -0.5 1.8 0.3
v 0 1.6 0.3
v 0 1.8 0.3
v 0.1 1.5 0.3
v 0.1 1.8 0.3
v 0.7 3 0.3
v 0.7 3.1 0.3
v 0.8 3 0.3
v 0.8 3.1 0.3
v -0.8 3.1 0.2
v -0.8 3.2 0.2
v -0.7 3.1 0.2
v -0.6 1.4 0.2
v -0.6 1.5 0.2
v -0.6 1.8 0.2
v -0.6 2.1 0.2
v -0.5 1.8 0.2
v -0.5 2 0.2
v 0 1.8 0.2
v 0 2 0.2
v 0.1 1.4 0.2
v 0.1 1.5 0.2
v 0.1 1.8 0.2
v 0.1 2.1 0.2
v 0.7 3.1 0.2
v 0.8 3.1 0.2
v 0.8 3.2 0.2
v -0.8 0 0.1
v -0.8 0.7 0.1
v -0.8 3 0.1
v -0.7 0.7 0.1
v -0.7 2.9 0.1
v -0.6 0.2 0.1
v -0.6 0.6 0.1
v -0.6 0.8 0.1
v -0.6 0.9 0.1
v -0.6 1.1 0.1
v -0.6 1.3 0.1
v -0.6 1.4 0.1
v -0.6 2.1 0.1
v -0.6 2.2 0.1
v -0.6 2.6 0.1
v -0.6 2.7 0.1
v -0.6 3 0.1
v -0.5 0.3 0.1
v -0.5 0.5 0.1
v -0.5 0.8 0.1
v -0.5 0.9 0.1
v -0.5 3 0.1
v -0.4 0.8 0.1
v -0.4 0.9 0.1
v -0.4 3 0.1
v -0.3 3 0.1
v -0.2 0.8 0.1
v -0.2 0.9 0.1
v -0.2 3 0.1
v -0.1 2.2 0.1
v -0.1 2.6 0.1
v -0.1 2.7 0.1
v -0.1 3 0.1
v 0.1 1.1 0.1
v 0.1 1.3 0.1
v 0.1 1.4 0.1
v 0.1 2.1 0.1
v 0.1 2.2 0.1
v 0.1 2.7 0.1
v 0.1 2.8 0.1
v 0.1 2.9 0.1
v 0.1 3 0.1
v 0.2 1.1 0.1
v 0.2 1.2 0.1
v 0.2 1.5 0.1
v 0.2 1.6 0.1
v 0.2 1.7 0.1
v 0.2 1.8 0.1
v 0.2 2 0.1
v 0.2 2.1 0.1
v 0.2 3 0.1
v 0.3 1.1 0.1
v 0.3 1.2 0.1
v 0.3 1.5 0.1
v 0.3 1.6 0.1
v 0.3 1.7 0.1
v 0.3 1.8 0.1
v 0.3 2 0.1
v 0.3 2.1 0.1
v 0.3 2.8 0.1
v 0.3 2.9 0.1
v 0.3 3 0.1
v 0.4 1.7 0.1
v 0.4 1.8 0.1
v 0.4 1.9 0.1
v 0.4 2.3 0.1
v 0.4 2.4 0.1
v 0.4 2.6 0.1
v 0.4 3 0.1
v 0.5 0.3 0.1
v 0.5 0.5 0.1
v 0.5 3 0.1
v 0.6 0.2 0.1
v 0.6 0.6 0.1
v 0.6 1.1 0.1
v 0.6 1.2 0.1
v 0.6 1.5 0.1
v 0.6 1.6 0.1
v 0.6 1.7 0.1
v 0.6 1.8 0.1
v 0.6 1.9 0.1
v 0.6 2.3 0.1
v 0.6 2.4 0.1
v 0.6 2.6 0.1
v 0.6 3 0.1
v 0.7 0.7 0.1
v 0.7 2.8 0.1
v 0.7 2.9 0.1
v 0.8 0 0.1
v 0.8 0.7 0.1
v 0.8 3 0.1
v 0.4 1.9 0
v 0.4 2.1 0
v 0.6 1.9 0
v 0.6 2.1 0
v -0.6 1.1 -0.1
v -0.6 1.2 -0.1
v 0.1 1.1 -0.1
v 0.1 1.2 -0.1
v 0.4 2.1 -0.1
v 0.4 2.3 -0.1
v 0.6 2.1 -0.1
v 0.6 2.3 -0.1
v -0.6 1.2 -0.2
v -0.6 1.3 -0.2
v -0.5 1.3 -0.2
v -0.5 1.7 -0.2
v -0.3 1.3 -0.2
v -0.3 1.7 -0.2
v -0.2 1.3 -0.2
v -0.2 1.7 -0.2
v 0 1.3 -0.2
v 0 1.7 -0.2
v 0.1 1.2 -0.2
v 0.1 1.3 -0.2
v -0.5 1.3 0
v -0.5 1.7 0
v -0.3 1.3 0
v -0.3 1.7 0
v -0.2 1.3 0
v -0.2 1.7 0
v 0 1.3 0
v 0 1.7 0
v -0.8 3.1 -0.2
v -0.8 3.2 -0.2
v 0.8 3.1 -0.2
v 0.8 3.2 -0.2
v -0.8 3 -0.5
v -0.8 3.1 -0.5
v 0.8 3 -0.5
v 0.8 3.1 -0.5
v -0.8 0 -0.8
v -0.8 0.7 -0.8
v -0.8 3 -0.8
v 0.8 0 -0.8
v 0.8 0.7 -0.8
v 0.8 3 -0.8
v -0.8 0 0.1
v 0.8 0 0.1
v -0.8 0 -0.8
v 0.8 0 -0.8
v -0.6 1.3 0.1
v 0.1 1.3 0.1
v -0.5 1.3 0
v -0.3 1.3 0
v -0.2 1.3 0
v 0 1.3 0
v -0.6 1.3 -0.2
v -0.5 1.3 -0.2
v -0.3 1.3 -0.2
v -0.2 1.3 -0.2
v 0 1.3 -0.2
v 0.1 1.3 -0.2
v -0.6 1.4 0.2
v 0.1 1.4 0.2
v -0.6 1.4 0.1
v 0.1 1.4 0.1
v -0.6 1.5 0.3
v 0.1 1.5 0.3
v -0.6 1.5 0.2
v 0.1 1.5 0.2
v -0.5 1.7 0
v -0.3 1.7 0
v -0.2 1.7 0
v 0 1.7 0
v -0.5 1.7 -0.2
v -0.3 1.7 -0.2
v -0.2 1.7 -0.2
v 0 1.7 -0.2
v 0.4 2.3 0.1
v 0.6 2.3 0.1
v 0.4 2.3 0
v 0.6 2.3 0
v 0.4 2.3 -0.1
v 0.6 2.3 -0.1
v -0.8 3 0.3
v -0.7 3 0.3
v 0.7 3 0.3
v 0.8 3 0.3
v -0.7 3 0.2
v -0.6 3 0.2
v -0.5 3 0.2
v -0.4 3 0.2
v -0.3 3 0.2
v -0.2 3 0.2
v -0.1 3 0.2
v 0.1 3 0.2
v 0.2 3 0.2
v 0.3 3 0.2
v 0.4 3 0.2
v 0.5 3 0.2
v 0.6 3 0.2
v 0.7 3 0.2
v -0.8 3 0.1
v -0.6 3 0.1
v -0.5 3 0.1
v -0.4 3 0.1
v -0.3 3 0.1
v -0.2 3 0.1
v -0.1 3 0.1
v 0.1 3 0.1
v 0.2 3 0.1
v 0.3 3 0.1
v 0.4 3 0.1
v 0.5 3 0.1
v 0.6 3 0.1
v 0.8 3 0.1
v -0.6 1.1 0.1
v 0.1 1.1 0.1
v -0.6 1.1 -0.1
v 0.1 1.1 -0.1
v -0.6 1.2 -0.1
v 0.1 1.2 -0.1
v -0.6 1.2 -0.2
v 0.1 1.2 -0.2
v -0.6 1.8 0.3
v -0.5 1.8 0.3
v 0 1.8 0.3
v 0.1 1.8 0.3
v -0.6 1.8 0.2
v -0.5 1.8 0.2
v 0 1.8 0.2
v 0.1 1.8 0.2
v 0.4 1.9 0.1
v 0.6 1.9 0.1
v 0.4 1.9 0
v 0.6 1.9 0
v -0.6 2.1 0.2
v 0.1 2.1 0.2
v -0.6 2.1 0.1
v 0.1 2.1 0.1
v 0.4 2.1 0
v 0.6 2.1 0
v 0.4 2.1 -0.1
v 0.6 2.1 -0.1
v -0.8 3 -0.5
v 0.8 3 -0.5
v -0.8 3 -0.8
v 0.8 3 -0.8
v -0.8 3.1 0.3
v -0.7 3.1 0.3
v 0.7 3.1 0.3
v 0.8 3.1 0.3
v -0.8 3.1 0.2
v -0.7 3.1 0.2
v 0.7 3.1 0.2
v 0.8 3.1 0.2
v -0.8 3.1 -0.2
v 0.8 3.1 -0.2
v -0.8 3.1 -0.5
v 0.8 3.1 -0.5
v -0.8 3.2 0.2
v 0.8 3.2 0.2
v -0.8 3.2 -0.2
v 0.8 3.2 -0.2

# faces
f 3/9/1 2/9/1 1/9/1
f 4/9/1 2/9/1 3/9/1
f 6/10/1 4/10/1 3/10/1
f 7/10/1 4/10/1 6/10/1
f 8/10/1 4/10/1 7/10/1
f 9/10/1 6/10/1 5/10/1
f 9/10/1 7/10/1 6/10/1
f 10/10/1 7/10/1 9/10/1
f 11/10/1 7/10/1 10/10/1
f 12/10/1 7/10/1 11/10/1
f 13/10/1 11/10/1 10/10/1
f 14/10/1 11/10/1 13/10/1
f 18/12/1 16/12/1 15/12/1
f 19/12/1 18/12/1 17/12/1
f 20/12/1 16/12/1 18/12/1
f 20/12/1 18/12/1 19/12/1
f 21/12/1 16/12/1 20/12/1
f 22/12/1 16/12/1 21/12/1
f 25/11/1 24/11/1 23/11/1
f 26/11/1 24/11/1 25/11/1
f 29/11/1 28/11/1 27/11/1
f 30/11/1 28/11/1 29/11/1
f 33/11/1 32/11/1 31/11/1
f 35/11/1 33/11/1 31/11/1
f 35/11/1 34/11/1 33/11/1
f 36/11/1 34/11/1 35/11/1
f 39/11/1 38/11/1 37/11/1
f 41/11/1 39/11/1 37/11/1
f 42/9/1 40/9/1 39/9/1
f 42/11/1 39/11/1 41/11/1
f 43/9/1 40/9/1 42/9/1
f 44/11/2 45/11/2 46/11/2
f 44/11/2 46/11/2 48/11/2
f 46/11/2 47/11/2 48/11/2
f 48/11/2 47/11/2 49/11/2
f 50/11/2 51/11/2 52/11/2
f 52/11/2 51/11/2 53/11/2
f 54/11/2 55/11/2 56/11/2
f 56/11/2 55/11/2 57/11/2
f 58/12/2 59/12/2 61/12/2
f 60/12/2 61/12/2 62/12/2
f 61/12/2 59/12/2 63/12/2
f 62/12/2 61/12/2 63/12/2
f 63/12/2 59/12/2 64/12/2
f 64/12/2 59/12/2 65/12/2
f 66/11/2 67/11/2 68/11/2
f 66/11/2 68/11/2 70/11/2
f 68/9/2 69/9/2 71/9/2
f 70/11/2 68/11/2 71/11/2
f 71/9/2 69/9/2 72/9/2
f 73/9/2 74/9/2 75/9/2
f 75/9/2 74/9/2 76/9/2
f 75/10/2 76/10/2 78/10/2
f 78/10/2 76/10/2 79/10/2
f 79/10/2 76/10/2 80/10/2
f 77/10/2 78/10/2 81/10/2
f 78/10/2 79/10/2 81/10/2
f 81/10/2 79/10/2 82/10/2
f 82/10/2 79/10/2 83/10/2
f 83/10/2 79/10/2 84/10/2
f 82/10/2 83/10/2 85/10/2
f 85/10/2 83/10/2 86/10/2
f 89/10/3 88/10/3 87/10/3
f 90/10/3 88/10/3 89/10/3
f 93/12/3 92/12/3 91/12/3
f 94/12/3 92/12/3 93/12/3
f 95/12/3 93/12/3 91/12/3
f 95/13/3 94/13/3 93/13/3
f 96/13/3 94/13/3 95/13/3
f 97/12/3 95/12/3 91/12/3
f 97/12/3 96/12/3 95/12/3
f 98/12/3 96/12/3 97/12/3
f 99/14/3 90/14/3 89/14/3
f 100/14/3 90/14/3 99/14/3
f 101/10/3 100/10/3 99/10/3
f 102/10/3 100/10/3 101/10/3
f 105/10/3 104/10/3 103/10/3
f 110/12/3 109/12/3 108/12/3
f 111/12/3 109/12/3 110/12/3
f 112/13/3 111/13/3 110/13/3
f 113/12/3 109/12/3 111/12/3
f 113/13/3 111/13/3 112/13/3
f 114/12/3 107/12/3 106/12/3
f 115/12/3 107/12/3 114/12/3
f 116/12/3 113/12/3 112/12/3
f 117/12/3 109/12/3 113/12/3
f 117/12/3 113/12/3 116/12/3
f 118/10/3 104/10/3 105/10/3
f 119/10/3 104/10/3 118/10/3
f 120/10/3 104/10/3 119/10/3
f 124/9/3 122/9/3 121/9/3
f 124/10/3 123/10/3 122/10/3
f 125/10/3 123/10/3 124/10/3
f 126/9/3 124/9/3 121/9/3
f 127/9/3 124/9/3 126/9/3
f 128/11/3 125/11/3 124/11/3
f 129/11/3 125/11/3 128/11/3
f 130/11/3 125/11/3 129/11/3
f 131/11/3 125/11/3 130/11/3
f 132/11/3 125/11/3 131/11/3
f 133/11/3 125/11/3 132/11/3
f 134/11/3 125/11/3 133/11/3
f 135/11/3 125/11/3 134/11/3
f 136/11/3 125/11/3 135/11/3
f 137/10/3 123/10/3 125/10/3
f 138/1/3 127/1/3 126/1/3
f 139/1/3 127/1/3 138/1/3
f 140/11/3 128/11/3 124/11/3
f 140/3/3 129/3/3 128/3/3
f 141/11/3 130/11/3 129/11/3
f 141/3/3 129/3/3 140/3/3
f 142/10/3 137/10/3 125/10/3
f 143/11/3 140/11/3 124/11/3
f 143/11/3 141/11/3 140/11/3
f 144/11/3 130/11/3 141/11/3
f 144/11/3 141/11/3 143/11/3
f 145/10/3 142/10/3 125/10/3
f 146/10/3 145/10/3 125/10/3
f 147/11/3 143/11/3 124/11/3
f 147/3/3 144/3/3 143/3/3
f 148/11/3 130/11/3 144/11/3
f 148/3/3 144/3/3 147/3/3
f 149/10/3 146/10/3 125/10/3
f 150/8/3 134/8/3 133/8/3
f 150/7/3 135/7/3 134/7/3
f 151/5/3 136/5/3 135/5/3
f 151/7/3 135/7/3 150/7/3
f 152/11/3 125/11/3 136/11/3
f 152/5/3 136/5/3 151/5/3
f 153/10/3 149/10/3 125/10/3
f 154/11/3 130/11/3 148/11/3
f 154/11/3 148/11/3 147/11/3
f 155/11/3 132/11/3 131/11/3
f 156/11/3 132/11/3 155/11/3
f 157/8/3 150/8/3 133/8/3
f 158/6/3 151/6/3 150/6/3
f 158/6/3 152/6/3 151/6/3
f 158/8/3 150/8/3 157/8/3
f 159/11/3 125/11/3 152/11/3
f 159/6/3 152/6/3 158/6/3
f 160/11/3 125/11/3 159/11/3
f 161/10/3 153/10/3 125/10/3
f 161/11/3 125/11/3 160/11/3
f 162/10/3 153/10/3 161/10/3
f 163/11/3 157/11/3 156/11/3
f 163/11/3 154/11/3 147/11/3
f 163/11/3 156/11/3 155/11/3
f 163/11/3 158/11/3 157/11/3
f 163/11/3 159/11/3 158/11/3
f 163/11/3 155/11/3 154/11/3
f 163/11/3 160/11/3 159/11/3
f 164/11/3 160/11/3 163/11/3
f 165/11/3 160/11/3 164/11/3
f 166/11/3 160/11/3 165/11/3
f 167/11/3 160/11/3 166/11/3
f 168/11/3 160/11/3 167/11/3
f 169/11/3 160/11/3 168/11/3
f 170/11/3 160/11/3 169/11/3
f 171/10/3 162/10/3 161/10/3
f 172/11/3 163/11/3 147/11/3
f 172/9/3 164/9/3 163/9/3
f 173/11/3 165/11/3 164/11/3
f 173/9/3 164/9/3 172/9/3
f 174/9/3 166/9/3 165/9/3
f 174/11/3 165/11/3 173/11/3
f 175/11/3 167/11/3 166/11/3
f 175/9/3 166/9/3 174/9/3
f 176/9/3 168/9/3 167/9/3
f 176/11/3 167/11/3 175/11/3
f 177/11/3 169/11/3 168/11/3
f 177/9/3 168/9/3 176/9/3
f 178/9/3 170/9/3 169/9/3
f 178/11/3 169/11/3 177/11/3
f 179/11/3 160/11/3 170/11/3
f 179/9/3 170/9/3 178/9/3
f 180/12/3 161/12/3 160/12/3
f 180/11/3 160/11/3 179/11/3
f 181/10/3 171/10/3 161/10/3
f 181/12/3 161/12/3 180/12/3
f 182/10/3 171/10/3 181/10/3
f 183/11/3 178/11/3 177/11/3
f 183/11/3 179/11/3 178/11/3
f 183/11/3 180/11/3 179/11/3
f 183/11/3 176/11/3 175/11/3
f 183/11/3 177/11/3 176/11/3
f 184/11/3 180/11/3 183/11/3
f 185/11/3 180/11/3 184/11/3
f 186/11/3 180/11/3 185/11/3
f 187/11/3 180/11/3 186/11/3
f 188/11/3 180/11/3 187/11/3
f 189/10/3 182/10/3 181/10/3
f 190/9/3 139/9/3 138/9/3
f 190/1/3 138/1/3 126/1/3
f 191/1/3 127/1/3 139/1/3
f 191/9/3 139/9/3 190/9/3
f 192/10/3 189/10/3 181/10/3
f 193/9/3 126/9/3 121/9/3
f 193/1/3 190/1/3 126/1/3
f 193/1/3 191/1/3 190/1/3
f 194/9/3 124/9/3 127/9/3
f 194/1/3 191/1/3 193/1/3
f 194/1/3 127/1/3 191/1/3
f 195/11/3 172/11/3 147/11/3
f 195/14/3 173/14/3 172/14/3
f 196/11/3 174/11/3 173/11/3
f 196/14/3 173/14/3 195/14/3
f 197/14/3 175/14/3 174/14/3
f 197/11/3 174/11/3 196/11/3
f 198/11/3 183/11/3 175/11/3
f 198/14/3 175/14/3 197/14/3
f 199/14/3 184/14/3 183/14/3
f 199/11/3 183/11/3 198/11/3
f 200/11/3 185/11/3 184/11/3
f 200/14/3 184/14/3 199/14/3
f 201/11/3 185/11/3 200/11/3
f 202/11/3 187/11/3 186/11/3
f 203/3/3 188/3/3 187/3/3
f 203/11/3 187/11/3 202/11/3
f 204/11/3 180/11/3 188/11/3
f 204/3/3 188/3/3 203/3/3
f 205/10/3 192/10/3 181/10/3
f 206/11/3 203/11/3 202/11/3
f 206/11/3 201/11/3 200/11/3
f 206/11/3 147/11/3 124/11/3
f 206/11/3 204/11/3 203/11/3
f 206/9/3 124/9/3 194/9/3
f 206/11/3 200/11/3 199/11/3
f 206/11/3 202/11/3 201/11/3
f 206/11/3 199/11/3 198/11/3
f 206/11/3 198/11/3 197/11/3
f 206/11/3 197/11/3 196/11/3
f 206/11/3 196/11/3 195/11/3
f 206/11/3 195/11/3 147/11/3
f 206/9/3 194/9/3 193/9/3
f 207/11/3 180/11/3 204/11/3
f 207/11/3 204/11/3 206/11/3
f 207/2/3 181/2/3 180/2/3
f 208/10/3 205/10/3 181/10/3
f 208/2/3 181/2/3 207/2/3
f 209/9/3 193/9/3 121/9/3
f 209/9/3 206/9/3 193/9/3
f 210/10/3 208/10/3 207/10/3
f 210/9/3 206/9/3 209/9/3
f 210/10/3 207/10/3 206/10/3
f 211/10/3 205/10/3 208/10/3
f 211/10/3 208/10/3 210/10/3
f 214/14/3 213/14/3 212/14/3
f 215/14/3 213/14/3 214/14/3
f 218/11/3 217/11/3 216/11/3
f 219/11/3 217/11/3 218/11/3
f 222/9/3 221/9/3 220/9/3
f 223/9/3 221/9/3 222/9/3
f 226/11/3 225/11/3 224/11/3
f 228/11/3 226/11/3 224/11/3
f 228/11/3 227/11/3 226/11/3
f 229/11/3 227/11/3 228/11/3
f 230/11/3 228/11/3 224/11/3
f 232/11/3 230/11/3 224/11/3
f 232/11/3 231/11/3 230/11/3
f 233/11/3 231/11/3 232/11/3
f 234/11/3 232/11/3 224/11/3
f 235/11/3 232/11/3 234/11/3
f 236/11/4 237/11/4 238/11/4
f 238/11/4 237/11/4 239/11/4
f 240/11/4 241/11/4 242/11/4
f 242/11/4 241/11/4 243/11/4
f 244/10/4 245/10/4 246/10/4
f 246/10/4 245/10/4 247/10/4
f 248/10/4 249/10/4 250/10/4
f 250/10/4 249/10/4 251/10/4
f 252/9/4 253/9/4 255/9/4
f 253/10/4 254/10/4 256/10/4
f 255/9/4 253/9/4 256/9/4
f 256/10/4 254/10/4 257/10/4
f 260/9/5 259/9/5 258/9/5
f 261/9/5 259/9/5 260/9/5
f 264/11/5 263/11/5 262/11/5
f 265/11/5 263/11/5 264/11/5
f 266/11/5 263/11/5 265/11/5
f 267/11/5 263/11/5 266/11/5
f 268/11/5 264/11/5 262/11/5
f 269/11/5 264/11/5 268/11/5
f 270/11/5 266/11/5 265/11/5
f 271/11/5 266/11/5 270/11/5
f 272/11/5 263/11/5 267/11/5
f 273/11/5 263/11/5 272/11/5
f 276/12/5 275/12/5 274/12/5
f 277/12/5 275/12/5 276/12/5
f 280/12/5 279/12/5 278/12/5
f 281/12/5 279/12/5 280/12/5
f 286/11/5 283/11/5 282/11/5
f 287/11/5 283/11/5 286/11/5
f 288/11/5 285/11/5 284/11/5
f 289/11/5 285/11/5 288/11/5
f 292/11/5 291/11/5 290/11/5
f 293/11/5 291/11/5 292/11/5
f 294/9/5 293/9/5 292/9/5
f 295/9/5 293/9/5 294/9/5
f 300/10/5 297/10/5 296/10/5
f 300/14/5 298/14/5 297/14/5
f 301/14/5 298/14/5 300/14/5
f 302/14/5 298/14/5 301/14/5
f 303/14/5 298/14/5 302/14/5
f 304/14/5 298/14/5 303/14/5
f 305/14/5 298/14/5 304/14/5
f 306/14/5 298/14/5 305/14/5
f 307/14/5 298/14/5 306/14/5
f 308/14/5 298/14/5 307/14/5
f 309/14/5 298/14/5 308/14/5
f 310/14/5 298/14/5 309/14/5
f 311/14/5 298/14/5 310/14/5
f 312/14/5 298/14/5 311/14/5
f 313/10/5 299/10/5 298/10/5
f 313/14/5 298/14/5 312/14/5
f 314/10/5 300/10/5 296/10/5
f 314/10/5 301/10/5 300/10/5
f 315/4/5 302/4/5 301/4/5
f 315/10/5 301/10/5 314/10/5
f 316/10/5 303/10/5 302/10/5
f 316/4/5 302/4/5 315/4/5
f 317/4/5 304/4/5 303/4/5
f 317/10/5 303/10/5 316/10/5
f 318/10/5 305/10/5 304/10/5
f 318/4/5 304/4/5 317/4/5
f 319/4/5 306/4/5 305/4/5
f 319/10/5 305/10/5 318/10/5
f 320/10/5 307/10/5 306/10/5
f 320/4/5 306/4/5 319/4/5
f 321/4/5 308/4/5 307/4/5
f 321/10/5 307/10/5 320/10/5
f 322/10/5 309/10/5 308/10/5
f 322/4/5 308/4/5 321/4/5
f 323/4/5 310/4/5 309/4/5
f 323/10/5 309/10/5 322/10/5
f 324/10/5 311/10/5 310/10/5
f 324/4/5 310/4/5 323/4/5
f 325/4/5 312/4/5 311/4/5
f 325/10/5 311/10/5 324/10/5
f 326/10/5 313/10/5 312/10/5
f 326/4/5 312/4/5 325/4/5
f 327/10/5 299/10/5 313/10/5
f 327/10/5 313/10/5 326/10/5
f 328/11/6 329/11/6 330/11/6
f 330/11/6 329/11/6 331/11/6
f 332/11/6 333/11/6 334/11/6
f 334/11/6 333/11/6 335/11/6
f 336/12/6 337/12/6 340/12/6
f 337/13/6 338/13/6 341/13/6
f 340/12/6 337/12/6 341/12/6
f 338/12/6 339/12/6 342/12/6
f 341/13/6 338/13/6 342/13/6
f 342/12/6 339/12/6 343/12/6
f 344/11/6 345/11/6 346/11/6
f 346/11/6 345/11/6 347/11/6
f 348/12/6 349/12/6 350/12/6
f 350/12/6 349/12/6 351/12/6
f 352/14/6 353/14/6 354/14/6
f 354/14/6 353/14/6 355/14/6
f 356/10/6 357/10/6 358/10/6
f 358/10/6 357/10/6 359/10/6
f 360/10/6 361/10/6 364/10/6
f 361/14/6 362/14/6 365/14/6
f 364/10/6 361/10/6 365/10/6
f 362/10/6 363/10/6 366/10/6
f 365/14/6 362/14/6 366/14/6
f 366/10/6 363/10/6 367/10/6
f 368/10/6 369/10/6 370/10/6
f 370/10/6 369/10/6 371/10/6
f 372/10/6 373/10/6 374/10/6
f 374/10/6 373/10/6 375/10/6
