# Blender v2.90.1 OBJ File: ''
# www.blender.org
mtllib blockreceiver.mtl
o off_base
v 0.500000 0.062500 0.500000
v 0.500000 -0.000000 0.500000
v 0.500000 0.062500 -0.500000
v 0.500000 0.000000 -0.500000
v -0.500000 0.062500 -0.500000
v -0.500000 0.000000 -0.500000
v -0.500000 0.062500 0.500000
v -0.500000 -0.000000 0.500000
vt 0.000000 0.062500
vt 0.000000 0.000000
vt 1.000000 0.062500
vt 1.000000 0.000000
vt 0.000000 0.062500
vt 0.000000 0.000000
vt 1.000000 0.062500
vt 1.000000 0.000000
vt 0.000000 1.000000
vt 0.000000 0.000000
vt 1.000000 1.000000
vt 1.000000 0.000000
vt 0.000000 0.062500
vt 0.000000 0.000000
vt 1.000000 0.062500
vt 1.000000 0.000000
vt 0.000000 0.062500
vt 0.000000 0.000000
vt 1.000000 0.062500
vt 1.000000 0.000000
vt 0.000000 1.000000
vt 1.000000 1.000000
vn 1.0000 0.0000 0.0000
vn -1.0000 0.0000 0.0000
vn 0.0000 1.0000 0.0000
vn 0.0000 0.0000 1.0000
vn 0.0000 0.0000 -1.0000
vn 0.0000 -1.0000 -0.0000
usemtl m_1
s 1
f 1/1/1 2/2/1 3/3/1
f 2/2/1 4/4/1 3/3/1
f 5/5/2 6/6/2 7/7/2
f 6/6/2 8/8/2 7/7/2
f 5/9/3 7/10/3 3/11/3
f 7/10/3 1/12/3 3/11/3
f 7/13/4 8/14/4 1/15/4
f 8/14/4 2/16/4 1/15/4
f 3/17/5 4/18/5 5/19/5
f 4/18/5 6/20/5 5/19/5
usemtl m_0
f 8/21/6 6/6/6 2/22/6
f 6/6/6 4/4/6 2/22/6
o on_base
v 0.500000 0.062500 0.500000
v 0.500000 -0.000000 0.500000
v 0.500000 0.062500 -0.500000
v 0.500000 0.000000 -0.500000
v -0.500000 0.062500 -0.500000
v -0.500000 0.000000 -0.500000
v -0.500000 0.062500 0.500000
v -0.500000 -0.000000 0.500000
vt 0.000000 0.062500
vt 0.000000 0.000000
vt 1.000000 0.062500
vt 1.000000 0.000000
vt 0.000000 0.062500
vt 0.000000 0.000000
vt 1.000000 0.062500
vt 1.000000 0.000000
vt 0.000000 1.000000
vt 0.000000 0.000000
vt 1.000000 1.000000
vt 1.000000 0.000000
vt 0.000000 0.062500
vt 0.000000 0.000000
vt 1.000000 0.062500
vt 1.000000 0.000000
vt 0.000000 0.062500
vt 0.000000 0.000000
vt 1.000000 0.062500
vt 1.000000 0.000000
vt 0.000000 1.000000
vt 1.000000 1.000000
vn 1.0000 0.0000 0.0000
vn -1.0000 0.0000 0.0000
vn 0.0000 1.0000 0.0000
vn 0.0000 0.0000 1.0000
vn 0.0000 0.0000 -1.0000
vn 0.0000 -1.0000 -0.0000
usemtl m_2
s 1
f 9/23/7 10/24/7 11/25/7
f 10/24/7 12/26/7 11/25/7
f 13/27/8 14/28/8 15/29/8
f 14/28/8 16/30/8 15/29/8
f 13/31/9 15/32/9 11/33/9
f 15/32/9 9/34/9 11/33/9
f 15/35/10 16/36/10 9/37/10
f 16/36/10 10/38/10 9/37/10
f 11/39/11 12/40/11 13/41/11
f 12/40/11 14/42/11 13/41/11
usemtl m_0
f 16/43/12 14/28/12 10/44/12
f 14/28/12 12/26/12 10/44/12
o general_antenna_base
v 0.031250 0.375000 0.031250
v 0.031250 0.062500 0.031250
v 0.031250 0.375000 -0.031250
v 0.031250 0.062500 -0.031250
v -0.031250 0.375000 -0.031250
v -0.031250 0.062500 -0.031250
v -0.031250 0.375000 0.031250
v -0.031250 0.062500 0.031250
vt 0.125000 0.687500
vt 0.125000 0.375000
vt 0.187500 0.687500
vt 0.187500 0.375000
vt 0.750000 0.312500
vt 0.750000 0.000000
vt 0.812500 0.312500
vt 0.812500 0.000000
vt 0.125000 1.000000
vt 0.125000 0.687500
vt 0.187500 1.000000
vt 0.187500 0.687500
vt 0.125000 0.375000
vt 0.125000 0.062500
vt 0.187500 0.375000
vt 0.187500 0.062500
vt 0.000000 1.000000
vt 0.000000 0.937500
vt 0.062500 1.000000
vt 0.062500 0.937500
vt 0.000000 1.000000
vt 0.000000 0.937500
vt 0.062500 1.000000
vt 0.062500 0.937500
vn 1.0000 -0.0000 0.0000
vn -1.0000 0.0000 0.0000
vn 0.0000 -0.0000 1.0000
vn 0.0000 0.0000 -1.0000
vn 0.0000 1.0000 0.0000
vn 0.0000 -1.0000 -0.0000
usemtl m_3
s 1
f 17/45/13 18/46/13 19/47/13
f 18/46/13 20/48/13 19/47/13
f 21/49/14 22/50/14 23/51/14
f 22/50/14 24/52/14 23/51/14
f 23/53/15 24/54/15 17/55/15
f 24/54/15 18/56/15 17/55/15
f 19/57/16 20/58/16 21/59/16
f 20/58/16 22/60/16 21/59/16
usemtl none
f 21/61/17 23/62/17 19/63/17
f 23/62/17 17/64/17 19/63/17
f 24/65/18 22/66/18 18/67/18
f 22/66/18 20/68/18 18/67/18
o general_antenna_base2
v 0.037500 0.443750 0.218750
v 0.037500 0.368750 0.218750
v 0.037500 0.443750 -0.343750
v 0.037500 0.368750 -0.343750
v -0.037500 0.443750 -0.343750
v -0.037500 0.368750 -0.343750
v -0.037500 0.443750 0.218750
v -0.037500 0.368750 0.218750
vt 0.437500 1.000000
vt 0.437500 0.937500
vt 0.500000 1.000000
vt 0.500000 0.937500
vt 0.437500 1.000000
vt 0.437500 0.937500
vt 0.500000 1.000000
vt 0.500000 0.937500
vt 0.437500 0.500000
vt 0.437500 0.437500
vt 0.500000 0.500000
vt 0.500000 0.437500
vt 0.437500 1.000000
vt 0.500000 1.000000
vt 0.812500 0.937500
vt 0.812500 0.875000
vt 0.875000 0.937500
vt 0.875000 0.875000
vt 0.437500 1.000000
vt 0.437500 0.937500
vt 0.500000 1.000000
vt 0.500000 0.937500
vn 1.0000 0.0000 0.0000
vn -1.0000 0.0000 0.0000
vn 0.0000 1.0000 0.0000
vn 0.0000 -1.0000 -0.0000
vn 0.0000 -0.0000 1.0000
vn 0.0000 0.0000 -1.0000
usemtl m_3
s 1
f 25/69/19 26/70/19 27/71/19
f 26/70/19 28/72/19 27/71/19
f 29/73/20 30/74/20 31/75/20
f 30/74/20 32/76/20 31/75/20
f 29/77/21 31/78/21 27/79/21
f 31/78/21 25/80/21 27/79/21
f 32/81/22 30/74/22 26/82/22
f 30/74/22 28/72/22 26/82/22
f 31/83/23 32/84/23 25/85/23
f 32/84/23 26/86/23 25/85/23
f 27/87/24 28/88/24 29/89/24
f 28/88/24 30/90/24 29/89/24
o general_antenna_arm1
v 0.093750 0.437500 -0.218750
v 0.093750 0.375000 -0.218750
v 0.093750 0.437500 -0.281250
v 0.093750 0.375000 -0.281250
v -0.093750 0.437500 -0.281250
v -0.093750 0.375000 -0.281250
v -0.093750 0.437500 -0.218750
v -0.093750 0.375000 -0.218750
vt 0.125000 0.500000
vt 0.125000 0.437500
vt 0.187500 0.500000
vt 0.187500 0.437500
vt 0.187500 0.562500
vt 0.187500 0.500000
vt 0.250000 0.562500
vt 0.250000 0.500000
vt 0.312500 0.875000
vt 0.312500 0.812500
vt 0.500000 0.875000
vt 0.500000 0.812500
vt 0.375000 0.812500
vt 0.375000 0.750000
vt 0.562500 0.812500
vt 0.562500 0.750000
vt 0.187500 0.812500
vt 0.187500 0.750000
vt 0.375000 0.812500
vt 0.375000 0.750000
vt 0.125000 0.875000
vt 0.125000 0.812500
vt 0.312500 0.812500
vn 1.0000 0.0000 0.0000
vn -1.0000 0.0000 0.0000
vn 0.0000 1.0000 0.0000
vn 0.0000 -1.0000 -0.0000
vn 0.0000 -0.0000 1.0000
vn 0.0000 0.0000 -1.0000
usemtl m_3
s 1
f 33/91/25 34/92/25 35/93/25
f 34/92/25 36/94/25 35/93/25
f 37/95/26 38/96/26 39/97/26
f 38/96/26 40/98/26 39/97/26
f 37/99/27 39/100/27 35/101/27
f 39/100/27 33/102/27 35/101/27
f 40/103/28 38/104/28 34/105/28
f 38/104/28 36/106/28 34/105/28
f 39/107/29 40/108/29 33/109/29
f 40/108/29 34/110/29 33/109/29
f 35/111/30 36/112/30 37/99/30
f 36/112/30 38/113/30 37/99/30
o general_antenna_arm2
v 0.125000 0.437500 -0.093750
v 0.125000 0.375000 -0.093750
v 0.125000 0.437500 -0.156250
v 0.125000 0.375000 -0.156250
v -0.125000 0.437500 -0.156250
v -0.125000 0.375000 -0.156250
v -0.125000 0.437500 -0.093750
v -0.125000 0.375000 -0.093750
vt 0.750000 0.625000
vt 0.750000 0.562500
vt 0.812500 0.625000
vt 0.812500 0.562500
vt 0.437500 0.437500
vt 0.437500 0.375000
vt 0.500000 0.437500
vt 0.500000 0.375000
vt 0.437500 0.250000
vt 0.437500 0.187500
vt 0.687500 0.250000
vt 0.687500 0.187500
vt 0.625000 0.250000
vt 0.625000 0.187500
vt 0.875000 0.250000
vt 0.875000 0.187500
vt 0.625000 0.187500
vt 0.625000 0.125000
vt 0.875000 0.187500
vt 0.875000 0.125000
vt 0.437500 0.187500
vt 0.437500 0.125000
vt 0.687500 0.187500
vt 0.687500 0.125000
vn 1.0000 0.0000 0.0000
vn -1.0000 0.0000 0.0000
vn 0.0000 1.0000 0.0000
vn 0.0000 -1.0000 0.0000
vn 0.0000 -0.0000 1.0000
vn 0.0000 0.0000 -1.0000
usemtl m_3
s 1
f 41/114/31 42/115/31 43/116/31
f 42/115/31 44/117/31 43/116/31
f 45/118/32 46/119/32 47/120/32
f 46/119/32 48/121/32 47/120/32
f 45/122/33 47/123/33 43/124/33
f 47/123/33 41/125/33 43/124/33
f 48/126/34 46/127/34 42/128/34
f 46/127/34 44/129/34 42/128/34
f 47/130/35 48/131/35 41/132/35
f 48/131/35 42/133/35 41/132/35
f 43/134/36 44/135/36 45/136/36
f 44/135/36 46/137/36 45/136/36
o general_antenna_arm3
v 0.156250 0.437500 0.031250
v 0.156250 0.375000 0.031250
v 0.156250 0.437500 -0.031250
v 0.156250 0.375000 -0.031250
v -0.156250 0.437500 -0.031250
v -0.156250 0.375000 -0.031250
v -0.156250 0.437500 0.031250
v -0.156250 0.375000 0.031250
vt 0.187500 0.187500
vt 0.187500 0.125000
vt 0.250000 0.187500
vt 0.250000 0.125000
vt 0.437500 0.937500
vt 0.437500 0.875000
vt 0.500000 0.937500
vt 0.500000 0.875000
vt 0.125000 0.875000
vt 0.125000 0.812500
vt 0.437500 0.875000
vt 0.437500 0.812500
vt 0.250000 0.875000
vt 0.250000 0.812500
vt 0.562500 0.875000
vt 0.562500 0.812500
vt 0.125000 0.750000
vt 0.437500 0.750000
vt 0.250000 0.812500
vt 0.250000 0.750000
vt 0.562500 0.812500
vt 0.562500 0.750000
vn 1.0000 0.0000 0.0000
vn -1.0000 -0.0000 0.0000
vn 0.0000 1.0000 0.0000
vn 0.0000 -1.0000 0.0000
vn 0.0000 -0.0000 1.0000
vn 0.0000 0.0000 -1.0000
usemtl m_3
s 1
f 49/138/37 50/139/37 51/140/37
f 50/139/37 52/141/37 51/140/37
f 53/142/38 54/143/38 55/144/38
f 54/143/38 56/145/38 55/144/38
f 53/146/39 55/147/39 51/148/39
f 55/147/39 49/149/39 51/148/39
f 56/150/40 54/151/40 50/152/40
f 54/151/40 52/153/40 50/152/40
f 55/147/41 56/154/41 49/149/41
f 56/154/41 50/155/41 49/149/41
f 51/156/42 52/157/42 53/158/42
f 52/157/42 54/159/42 53/158/42
o general_antenna_arm4
v 0.187500 0.437500 0.156250
v 0.187500 0.375000 0.156250
v 0.187500 0.437500 0.093750
v 0.187500 0.375000 0.093750
v -0.187500 0.437500 0.093750
v -0.187500 0.375000 0.093750
v -0.187500 0.437500 0.156250
v -0.187500 0.375000 0.156250
vt 0.250000 0.875000
vt 0.250000 0.812500
vt 0.312500 0.875000
vt 0.312500 0.812500
vt 0.125000 0.875000
vt 0.125000 0.812500
vt 0.187500 0.875000
vt 0.187500 0.812500
vt 0.437500 0.187500
vt 0.437500 0.125000
vt 0.812500 0.187500
vt 0.812500 0.125000
vt 0.500000 0.187500
vt 0.500000 0.125000
vt 0.875000 0.187500
vt 0.875000 0.125000
vt 0.500000 0.250000
vt 0.875000 0.250000
vt 0.437500 0.250000
vt 0.437500 0.187500
vt 0.812500 0.250000
vt 0.812500 0.187500
vn 1.0000 0.0000 0.0000
vn -1.0000 0.0000 0.0000
vn 0.0000 1.0000 0.0000
vn 0.0000 -1.0000 0.0000
vn 0.0000 -0.0000 1.0000
vn 0.0000 0.0000 -1.0000
usemtl m_3
s 1
f 57/160/43 58/161/43 59/162/43
f 58/161/43 60/163/43 59/162/43
f 61/164/44 62/165/44 63/166/44
f 62/165/44 64/167/44 63/166/44
f 61/168/45 63/169/45 59/170/45
f 63/169/45 57/171/45 59/170/45
f 64/172/46 62/173/46 58/174/46
f 62/173/46 60/175/46 58/174/46
f 63/176/47 64/172/47 57/177/47
f 64/172/47 58/174/47 57/177/47
f 59/178/48 60/179/48 61/180/48
f 60/179/48 62/181/48 61/180/48
