# Blender v2.90.1 OBJ File: ''
# www.blender.org
mtllib streckenblock.mtl
o topLeftRed
v 0.375000 0.875000 -0.438125
v 0.375000 0.718750 -0.438125
v 0.375000 0.875000 -0.500625
v 0.375000 0.718750 -0.500625
v 0.062500 0.875000 -0.500625
v 0.062500 0.718750 -0.500625
v 0.062500 0.875000 -0.438125
v 0.062500 0.718750 -0.438125
vt 0.000000 1.000000
vt 0.000000 0.937500
vt 0.062500 1.000000
vt 0.062500 0.937500
vt 0.000000 1.000000
vt 0.000000 0.937500
vt 0.062500 1.000000
vt 0.062500 0.937500
vt 0.000000 0.937500
vt 0.125000 1.000000
vt 0.125000 0.937500
vt 0.000000 1.000000
vt 0.125000 1.000000
vt 0.125000 0.937500
vt 0.000000 1.000000
vt 0.000000 0.937500
vt 0.125000 1.000000
vt 0.125000 0.937500
vt 0.000000 1.000000
vt 0.000000 0.000000
vt 1.000000 1.000000
vt 1.000000 0.000000
vn 1.0000 0.0000 0.0000
vn -1.0000 0.0000 0.0000
vn 0.0000 1.0000 0.0000
vn 0.0000 -1.0000 0.0000
vn 0.0000 -0.0000 1.0000
vn 0.0000 0.0000 -1.0000
usemtl m_6
s 1
f 1/1/1 2/2/1 3/3/1
f 2/2/1 4/4/1 3/3/1
f 5/5/2 6/6/2 7/7/2
f 6/6/2 8/8/2 7/7/2
f 5/5/3 7/9/3 3/10/3
f 7/9/3 1/11/3 3/10/3
f 8/12/4 6/6/4 2/13/4
f 6/6/4 4/14/4 2/13/4
f 7/15/5 8/16/5 1/17/5
f 8/16/5 2/18/5 1/17/5
usemtl m_4
f 3/19/6 4/20/6 5/21/6
f 4/20/6 6/22/6 5/21/6
o topLeftWhite
v 0.375000 0.875000 -0.438125
v 0.375000 0.718750 -0.438125
v 0.375000 0.875000 -0.500625
v 0.375000 0.718750 -0.500625
v 0.062500 0.875000 -0.500625
v 0.062500 0.718750 -0.500625
v 0.062500 0.875000 -0.438125
v 0.062500 0.718750 -0.438125
vt 0.000000 1.000000
vt 0.000000 0.937500
vt 0.062500 1.000000
vt 0.062500 0.937500
vt 0.000000 1.000000
vt 0.000000 0.937500
vt 0.062500 1.000000
vt 0.062500 0.937500
vt 0.000000 0.937500
vt 0.125000 1.000000
vt 0.125000 0.937500
vt 0.000000 1.000000
vt 0.125000 1.000000
vt 0.125000 0.937500
vt 0.000000 1.000000
vt 0.000000 0.937500
vt 0.125000 1.000000
vt 0.125000 0.937500
vt 0.000000 1.000000
vt 0.000000 0.000000
vt 1.000000 1.000000
vt 1.000000 0.000000
vn 1.0000 0.0000 0.0000
vn -1.0000 0.0000 0.0000
vn 0.0000 1.0000 0.0000
vn 0.0000 -1.0000 0.0000
vn 0.0000 -0.0000 1.0000
vn 0.0000 0.0000 -1.0000
usemtl m_6
s 1
f 9/23/7 10/24/7 11/25/7
f 10/24/7 12/26/7 11/25/7
f 13/27/8 14/28/8 15/29/8
f 14/28/8 16/30/8 15/29/8
f 13/27/9 15/31/9 11/32/9
f 15/31/9 9/33/9 11/32/9
f 16/34/10 14/28/10 10/35/10
f 14/28/10 12/36/10 10/35/10
f 15/37/11 16/38/11 9/39/11
f 16/38/11 10/40/11 9/39/11
usemtl m_5
f 11/41/12 12/42/12 13/43/12
f 12/42/12 14/44/12 13/43/12
o topLeftBlack
v 0.375000 0.875000 -0.438125
v 0.375000 0.718750 -0.438125
v 0.375000 0.875000 -0.500625
v 0.375000 0.718750 -0.500625
v 0.062500 0.875000 -0.500625
v 0.062500 0.718750 -0.500625
v 0.062500 0.875000 -0.438125
v 0.062500 0.718750 -0.438125
vt 0.000000 1.000000
vt 0.000000 0.937500
vt 0.062500 1.000000
vt 0.062500 0.937500
vt 0.000000 1.000000
vt 0.000000 0.937500
vt 0.062500 1.000000
vt 0.062500 0.937500
vt 0.000000 0.937500
vt 0.125000 1.000000
vt 0.125000 0.937500
vt 0.000000 1.000000
vt 0.125000 1.000000
vt 0.125000 0.937500
vt 0.000000 1.000000
vt 0.000000 0.937500
vt 0.125000 1.000000
vt 0.125000 0.937500
vt 0.000000 1.000000
vt 0.000000 0.000000
vt 1.000000 1.000000
vt 1.000000 0.000000
vn 1.0000 0.0000 0.0000
vn -1.0000 0.0000 0.0000
vn 0.0000 1.0000 0.0000
vn 0.0000 -1.0000 0.0000
vn 0.0000 -0.0000 1.0000
vn 0.0000 0.0000 -1.0000
usemtl m_6
s 1
f 17/45/13 18/46/13 19/47/13
f 18/46/13 20/48/13 19/47/13
f 21/49/14 22/50/14 23/51/14
f 22/50/14 24/52/14 23/51/14
f 21/49/15 23/53/15 19/54/15
f 23/53/15 17/55/15 19/54/15
f 24/56/16 22/50/16 18/57/16
f 22/50/16 20/58/16 18/57/16
f 23/59/17 24/60/17 17/61/17
f 24/60/17 18/62/17 17/61/17
usemtl m_3
f 19/63/18 20/64/18 21/65/18
f 20/64/18 22/66/18 21/65/18
o topRightBlack
v -0.062500 0.875000 -0.438125
v -0.062500 0.718750 -0.438125
v -0.062500 0.875000 -0.500625
v -0.062500 0.718750 -0.500625
v -0.375000 0.875000 -0.500625
v -0.375000 0.718750 -0.500625
v -0.375000 0.875000 -0.438125
v -0.375000 0.718750 -0.438125
vt 0.000000 1.000000
vt 0.000000 0.937500
vt 0.062500 1.000000
vt 0.062500 0.937500
vt 0.000000 1.000000
vt 0.000000 0.937500
vt 0.062500 1.000000
vt 0.062500 0.937500
vt 0.000000 0.937500
vt 0.125000 1.000000
vt 0.125000 0.937500
vt 0.000000 1.000000
vt 0.125000 1.000000
vt 0.125000 0.937500
vt 0.000000 1.000000
vt 0.000000 0.937500
vt 0.125000 1.000000
vt 0.125000 0.937500
vt 0.000000 1.000000
vt 0.000000 0.000000
vt 1.000000 1.000000
vt 1.000000 0.000000
vn 1.0000 0.0000 0.0000
vn -1.0000 0.0000 0.0000
vn 0.0000 1.0000 0.0000
vn 0.0000 -1.0000 0.0000
vn 0.0000 -0.0000 1.0000
vn 0.0000 0.0000 -1.0000
usemtl m_6
s 1
f 25/67/19 26/68/19 27/69/19
f 26/68/19 28/70/19 27/69/19
f 29/71/20 30/72/20 31/73/20
f 30/72/20 32/74/20 31/73/20
f 29/71/21 31/75/21 27/76/21
f 31/75/21 25/77/21 27/76/21
f 32/78/22 30/72/22 26/79/22
f 30/72/22 28/80/22 26/79/22
f 31/81/23 32/82/23 25/83/23
f 32/82/23 26/84/23 25/83/23
usemtl m_3
f 27/85/24 28/86/24 29/87/24
f 28/86/24 30/88/24 29/87/24
o topRightRed
v -0.062500 0.875000 -0.438125
v -0.062500 0.718750 -0.438125
v -0.062500 0.875000 -0.500625
v -0.062500 0.718750 -0.500625
v -0.375000 0.875000 -0.500625
v -0.375000 0.718750 -0.500625
v -0.375000 0.875000 -0.438125
v -0.375000 0.718750 -0.438125
vt 0.000000 1.000000
vt 0.000000 0.937500
vt 0.062500 1.000000
vt 0.062500 0.937500
vt 0.000000 1.000000
vt 0.000000 0.937500
vt 0.062500 1.000000
vt 0.062500 0.937500
vt 0.000000 0.937500
vt 0.125000 1.000000
vt 0.125000 0.937500
vt 0.000000 1.000000
vt 0.125000 1.000000
vt 0.125000 0.937500
vt 0.000000 1.000000
vt 0.000000 0.937500
vt 0.125000 1.000000
vt 0.125000 0.937500
vt 0.000000 1.000000
vt 0.000000 0.000000
vt 1.000000 1.000000
vt 1.000000 0.000000
vn 1.0000 0.0000 0.0000
vn -1.0000 0.0000 0.0000
vn 0.0000 1.0000 0.0000
vn 0.0000 -1.0000 0.0000
vn 0.0000 -0.0000 1.0000
vn 0.0000 0.0000 -1.0000
usemtl m_6
s 1
f 33/89/25 34/90/25 35/91/25
f 34/90/25 36/92/25 35/91/25
f 37/93/26 38/94/26 39/95/26
f 38/94/26 40/96/26 39/95/26
f 37/93/27 39/97/27 35/98/27
f 39/97/27 33/99/27 35/98/27
f 40/100/28 38/94/28 34/101/28
f 38/94/28 36/102/28 34/101/28
f 39/103/29 40/104/29 33/105/29
f 40/104/29 34/106/29 33/105/29
usemtl m_4
f 35/107/30 36/108/30 37/109/30
f 36/108/30 38/110/30 37/109/30
o topRightWhite
v -0.062500 0.875000 -0.438125
v -0.062500 0.718750 -0.438125
v -0.062500 0.875000 -0.500625
v -0.062500 0.718750 -0.500625
v -0.375000 0.875000 -0.500625
v -0.375000 0.718750 -0.500625
v -0.375000 0.875000 -0.438125
v -0.375000 0.718750 -0.438125
vt 0.000000 1.000000
vt 0.000000 0.937500
vt 0.062500 1.000000
vt 0.062500 0.937500
vt 0.000000 1.000000
vt 0.000000 0.937500
vt 0.062500 1.000000
vt 0.062500 0.937500
vt 0.000000 0.937500
vt 0.125000 1.000000
vt 0.125000 0.937500
vt 0.000000 1.000000
vt 0.125000 1.000000
vt 0.125000 0.937500
vt 0.000000 1.000000
vt 0.000000 0.937500
vt 0.125000 1.000000
vt 0.125000 0.937500
vt 0.000000 1.000000
vt 0.000000 0.000000
vt 1.000000 1.000000
vt 1.000000 0.000000
vn 1.0000 0.0000 0.0000
vn -1.0000 0.0000 0.0000
vn 0.0000 1.0000 0.0000
vn 0.0000 -1.0000 0.0000
vn 0.0000 -0.0000 1.0000
vn 0.0000 0.0000 -1.0000
usemtl m_6
s 1
f 41/111/31 42/112/31 43/113/31
f 42/112/31 44/114/31 43/113/31
f 45/115/32 46/116/32 47/117/32
f 46/116/32 48/118/32 47/117/32
f 45/115/33 47/119/33 43/120/33
f 47/119/33 41/121/33 43/120/33
f 48/122/34 46/116/34 42/123/34
f 46/116/34 44/124/34 42/123/34
f 47/125/35 48/126/35 41/127/35
f 48/126/35 42/128/35 41/127/35
usemtl m_5
f 43/129/36 44/130/36 45/131/36
f 44/130/36 46/132/36 45/131/36
o bottomLeftBlack
v 0.375000 0.281250 -0.438125
v 0.375000 0.125000 -0.438125
v 0.375000 0.281250 -0.500625
v 0.375000 0.125000 -0.500625
v 0.062500 0.281250 -0.500625
v 0.062500 0.125000 -0.500625
v 0.062500 0.281250 -0.438125
v 0.062500 0.125000 -0.438125
vt 0.000000 1.000000
vt 0.000000 0.937500
vt 0.062500 1.000000
vt 0.062500 0.937500
vt 0.000000 1.000000
vt 0.000000 0.937500
vt 0.062500 1.000000
vt 0.062500 0.937500
vt 0.000000 0.937500
vt 0.125000 1.000000
vt 0.125000 0.937500
vt 0.000000 1.000000
vt 0.125000 1.000000
vt 0.125000 0.937500
vt 0.000000 1.000000
vt 0.000000 0.937500
vt 0.125000 1.000000
vt 0.125000 0.937500
vt 0.000000 1.000000
vt 0.000000 0.000000
vt 1.000000 1.000000
vt 1.000000 0.000000
vn 1.0000 0.0000 0.0000
vn -1.0000 0.0000 0.0000
vn 0.0000 1.0000 0.0000
vn 0.0000 -1.0000 0.0000
vn 0.0000 -0.0000 1.0000
vn 0.0000 0.0000 -1.0000
usemtl m_6
s 1
f 49/133/37 50/134/37 51/135/37
f 50/134/37 52/136/37 51/135/37
f 53/137/38 54/138/38 55/139/38
f 54/138/38 56/140/38 55/139/38
f 53/137/39 55/141/39 51/142/39
f 55/141/39 49/143/39 51/142/39
f 56/144/40 54/138/40 50/145/40
f 54/138/40 52/146/40 50/145/40
f 55/147/41 56/148/41 49/149/41
f 56/148/41 50/150/41 49/149/41
usemtl m_0
f 51/151/42 52/152/42 53/153/42
f 52/152/42 54/154/42 53/153/42
o bottomLeftRed
v 0.375000 0.281250 -0.438125
v 0.375000 0.125000 -0.438125
v 0.375000 0.281250 -0.500625
v 0.375000 0.125000 -0.500625
v 0.062500 0.281250 -0.500625
v 0.062500 0.125000 -0.500625
v 0.062500 0.281250 -0.438125
v 0.062500 0.125000 -0.438125
vt 0.000000 1.000000
vt 0.000000 0.937500
vt 0.062500 1.000000
vt 0.062500 0.937500
vt 0.000000 1.000000
vt 0.000000 0.937500
vt 0.062500 1.000000
vt 0.062500 0.937500
vt 0.000000 0.937500
vt 0.125000 1.000000
vt 0.125000 0.937500
vt 0.000000 1.000000
vt 0.125000 1.000000
vt 0.125000 0.937500
vt 0.000000 1.000000
vt 0.000000 0.937500
vt 0.125000 1.000000
vt 0.125000 0.937500
vt 0.000000 1.000000
vt 0.000000 0.000000
vt 1.000000 1.000000
vt 1.000000 0.000000
vn 1.0000 0.0000 0.0000
vn -1.0000 0.0000 0.0000
vn 0.0000 1.0000 0.0000
vn 0.0000 -1.0000 0.0000
vn 0.0000 -0.0000 1.0000
vn 0.0000 0.0000 -1.0000
usemtl m_6
s 1
f 57/155/43 58/156/43 59/157/43
f 58/156/43 60/158/43 59/157/43
f 61/159/44 62/160/44 63/161/44
f 62/160/44 64/162/44 63/161/44
f 61/159/45 63/163/45 59/164/45
f 63/163/45 57/165/45 59/164/45
f 64/166/46 62/160/46 58/167/46
f 62/160/46 60/168/46 58/167/46
f 63/169/47 64/170/47 57/171/47
f 64/170/47 58/172/47 57/171/47
usemtl m_1
f 59/173/48 60/174/48 61/175/48
f 60/174/48 62/176/48 61/175/48
o bottomLeftWhite
v 0.375000 0.281250 -0.438125
v 0.375000 0.125000 -0.438125
v 0.375000 0.281250 -0.500625
v 0.375000 0.125000 -0.500625
v 0.062500 0.281250 -0.500625
v 0.062500 0.125000 -0.500625
v 0.062500 0.281250 -0.438125
v 0.062500 0.125000 -0.438125
vt 0.000000 1.000000
vt 0.000000 0.937500
vt 0.062500 1.000000
vt 0.062500 0.937500
vt 0.000000 1.000000
vt 0.000000 0.937500
vt 0.062500 1.000000
vt 0.062500 0.937500
vt 0.000000 0.937500
vt 0.125000 1.000000
vt 0.125000 0.937500
vt 0.000000 1.000000
vt 0.125000 1.000000
vt 0.125000 0.937500
vt 0.000000 1.000000
vt 0.000000 0.937500
vt 0.125000 1.000000
vt 0.125000 0.937500
vt 0.000000 1.000000
vt 0.000000 0.000000
vt 1.000000 1.000000
vt 1.000000 0.000000
vn 1.0000 0.0000 0.0000
vn -1.0000 0.0000 0.0000
vn 0.0000 1.0000 0.0000
vn 0.0000 -1.0000 0.0000
vn 0.0000 -0.0000 1.0000
vn 0.0000 0.0000 -1.0000
usemtl m_6
s 1
f 65/177/49 66/178/49 67/179/49
f 66/178/49 68/180/49 67/179/49
f 69/181/50 70/182/50 71/183/50
f 70/182/50 72/184/50 71/183/50
f 69/181/51 71/185/51 67/186/51
f 71/185/51 65/187/51 67/186/51
f 72/188/52 70/182/52 66/189/52
f 70/182/52 68/190/52 66/189/52
f 71/191/53 72/192/53 65/193/53
f 72/192/53 66/194/53 65/193/53
usemtl m_2
f 67/195/54 68/196/54 69/197/54
f 68/196/54 70/198/54 69/197/54
o bottomRightBlack
v -0.062500 0.281250 -0.438125
v -0.062500 0.125000 -0.438125
v -0.062500 0.281250 -0.500625
v -0.062500 0.125000 -0.500625
v -0.375000 0.281250 -0.500625
v -0.375000 0.125000 -0.500625
v -0.375000 0.281250 -0.438125
v -0.375000 0.125000 -0.438125
vt 0.000000 1.000000
vt 0.000000 0.937500
vt 0.062500 1.000000
vt 0.062500 0.937500
vt 0.000000 1.000000
vt 0.000000 0.937500
vt 0.062500 1.000000
vt 0.062500 0.937500
vt 0.000000 0.937500
vt 0.125000 1.000000
vt 0.125000 0.937500
vt 0.000000 1.000000
vt 0.125000 1.000000
vt 0.125000 0.937500
vt 0.000000 1.000000
vt 0.000000 0.937500
vt 0.125000 1.000000
vt 0.125000 0.937500
vt 0.000000 1.000000
vt 0.000000 0.000000
vt 1.000000 1.000000
vt 1.000000 0.000000
vn 1.0000 0.0000 0.0000
vn -1.0000 0.0000 0.0000
vn 0.0000 1.0000 0.0000
vn 0.0000 -1.0000 0.0000
vn 0.0000 -0.0000 1.0000
vn 0.0000 0.0000 -1.0000
usemtl m_6
s 1
f 73/199/55 74/200/55 75/201/55
f 74/200/55 76/202/55 75/201/55
f 77/203/56 78/204/56 79/205/56
f 78/204/56 80/206/56 79/205/56
f 77/203/57 79/207/57 75/208/57
f 79/207/57 73/209/57 75/208/57
f 80/210/58 78/204/58 74/211/58
f 78/204/58 76/212/58 74/211/58
f 79/213/59 80/214/59 73/215/59
f 80/214/59 74/216/59 73/215/59
usemtl m_0
f 75/217/60 76/218/60 77/219/60
f 76/218/60 78/220/60 77/219/60
o bottomRightRed
v -0.062500 0.281250 -0.438125
v -0.062500 0.125000 -0.438125
v -0.062500 0.281250 -0.500625
v -0.062500 0.125000 -0.500625
v -0.375000 0.281250 -0.500625
v -0.375000 0.125000 -0.500625
v -0.375000 0.281250 -0.438125
v -0.375000 0.125000 -0.438125
vt 0.000000 1.000000
vt 0.000000 0.937500
vt 0.062500 1.000000
vt 0.062500 0.937500
vt 0.000000 1.000000
vt 0.000000 0.937500
vt 0.062500 1.000000
vt 0.062500 0.937500
vt 0.000000 0.937500
vt 0.125000 1.000000
vt 0.125000 0.937500
vt 0.000000 1.000000
vt 0.125000 1.000000
vt 0.125000 0.937500
vt 0.000000 1.000000
vt 0.000000 0.937500
vt 0.125000 1.000000
vt 0.125000 0.937500
vt 0.000000 1.000000
vt 0.000000 0.000000
vt 1.000000 1.000000
vt 1.000000 0.000000
vn 1.0000 0.0000 0.0000
vn -1.0000 0.0000 0.0000
vn 0.0000 1.0000 0.0000
vn 0.0000 -1.0000 0.0000
vn 0.0000 -0.0000 1.0000
vn 0.0000 0.0000 -1.0000
usemtl m_6
s 1
f 81/221/61 82/222/61 83/223/61
f 82/222/61 84/224/61 83/223/61
f 85/225/62 86/226/62 87/227/62
f 86/226/62 88/228/62 87/227/62
f 85/225/63 87/229/63 83/230/63
f 87/229/63 81/231/63 83/230/63
f 88/232/64 86/226/64 82/233/64
f 86/226/64 84/234/64 82/233/64
f 87/235/65 88/236/65 81/237/65
f 88/236/65 82/238/65 81/237/65
usemtl m_1
f 83/239/66 84/240/66 85/241/66
f 84/240/66 86/242/66 85/241/66
o bottomRightWhite
v -0.062500 0.281250 -0.438125
v -0.062500 0.125000 -0.438125
v -0.062500 0.281250 -0.500625
v -0.062500 0.125000 -0.500625
v -0.375000 0.281250 -0.500625
v -0.375000 0.125000 -0.500625
v -0.375000 0.281250 -0.438125
v -0.375000 0.125000 -0.438125
vt 0.000000 1.000000
vt 0.000000 0.937500
vt 0.062500 1.000000
vt 0.062500 0.937500
vt 0.000000 1.000000
vt 0.000000 0.937500
vt 0.062500 1.000000
vt 0.062500 0.937500
vt 0.000000 0.937500
vt 0.125000 1.000000
vt 0.125000 0.937500
vt 0.000000 1.000000
vt 0.125000 1.000000
vt 0.125000 0.937500
vt 0.000000 1.000000
vt 0.000000 0.937500
vt 0.125000 1.000000
vt 0.125000 0.937500
vt 0.000000 1.000000
vt 0.000000 0.000000
vt 1.000000 1.000000
vt 1.000000 0.000000
vn 1.0000 0.0000 0.0000
vn -1.0000 0.0000 0.0000
vn 0.0000 1.0000 0.0000
vn 0.0000 -1.0000 0.0000
vn 0.0000 -0.0000 1.0000
vn 0.0000 0.0000 -1.0000
usemtl m_6
s 1
f 89/243/67 90/244/67 91/245/67
f 90/244/67 92/246/67 91/245/67
f 93/247/68 94/248/68 95/249/68
f 94/248/68 96/250/68 95/249/68
f 93/247/69 95/251/69 91/252/69
f 95/251/69 89/253/69 91/252/69
f 96/254/70 94/248/70 90/255/70
f 94/248/70 92/256/70 90/255/70
f 95/257/71 96/258/71 89/259/71
f 96/258/71 90/260/71 89/259/71
usemtl m_2
f 91/261/72 92/262/72 93/263/72
f 92/262/72 94/264/72 93/263/72
o itemTopLeftRed
v 0.375000 0.875000 -0.438125
v 0.375000 0.718750 -0.438125
v 0.375000 0.875000 -0.500625
v 0.375000 0.718750 -0.500625
v 0.062500 0.875000 -0.500625
v 0.062500 0.718750 -0.500625
v 0.062500 0.875000 -0.438125
v 0.062500 0.718750 -0.438125
vt 0.000000 1.000000
vt 0.000000 0.937500
vt 0.062500 1.000000
vt 0.062500 0.937500
vt 0.000000 1.000000
vt 0.000000 0.937500
vt 0.062500 1.000000
vt 0.062500 0.937500
vt 0.000000 0.937500
vt 0.125000 1.000000
vt 0.125000 0.937500
vt 0.000000 1.000000
vt 0.125000 1.000000
vt 0.125000 0.937500
vt 0.000000 1.000000
vt 0.000000 0.937500
vt 0.125000 1.000000
vt 0.125000 0.937500
vt 0.000000 1.000000
vt 0.000000 0.000000
vt 1.000000 1.000000
vt 1.000000 0.000000
vn 1.0000 0.0000 0.0000
vn -1.0000 0.0000 0.0000
vn 0.0000 1.0000 0.0000
vn 0.0000 -1.0000 0.0000
vn 0.0000 -0.0000 1.0000
vn 0.0000 0.0000 -1.0000
usemtl m_6
s 1
f 97/265/73 98/266/73 99/267/73
f 98/266/73 100/268/73 99/267/73
f 101/269/74 102/270/74 103/271/74
f 102/270/74 104/272/74 103/271/74
f 101/269/75 103/273/75 99/274/75
f 103/273/75 97/275/75 99/274/75
f 104/276/76 102/270/76 98/277/76
f 102/270/76 100/278/76 98/277/76
f 103/279/77 104/280/77 97/281/77
f 104/280/77 98/282/77 97/281/77
usemtl m_4
f 99/283/78 100/284/78 101/285/78
f 100/284/78 102/286/78 101/285/78
o itemTopRightRed
v -0.062500 0.875000 -0.438125
v -0.062500 0.718750 -0.438125
v -0.062500 0.875000 -0.500625
v -0.062500 0.718750 -0.500625
v -0.375000 0.875000 -0.500625
v -0.375000 0.718750 -0.500625
v -0.375000 0.875000 -0.438125
v -0.375000 0.718750 -0.438125
vt 0.000000 1.000000
vt 0.000000 0.937500
vt 0.062500 1.000000
vt 0.062500 0.937500
vt 0.000000 1.000000
vt 0.000000 0.937500
vt 0.062500 1.000000
vt 0.062500 0.937500
vt 0.000000 0.937500
vt 0.125000 1.000000
vt 0.125000 0.937500
vt 0.000000 1.000000
vt 0.125000 1.000000
vt 0.125000 0.937500
vt 0.000000 1.000000
vt 0.000000 0.937500
vt 0.125000 1.000000
vt 0.125000 0.937500
vt 0.000000 1.000000
vt 0.000000 0.000000
vt 1.000000 1.000000
vt 1.000000 0.000000
vn 1.0000 0.0000 0.0000
vn -1.0000 0.0000 0.0000
vn 0.0000 1.0000 0.0000
vn 0.0000 -1.0000 0.0000
vn 0.0000 -0.0000 1.0000
vn 0.0000 0.0000 -1.0000
usemtl m_6
s 1
f 105/287/79 106/288/79 107/289/79
f 106/288/79 108/290/79 107/289/79
f 109/291/80 110/292/80 111/293/80
f 110/292/80 112/294/80 111/293/80
f 109/291/81 111/295/81 107/296/81
f 111/295/81 105/297/81 107/296/81
f 112/298/82 110/292/82 106/299/82
f 110/292/82 108/300/82 106/299/82
f 111/301/83 112/302/83 105/303/83
f 112/302/83 106/304/83 105/303/83
usemtl m_4
f 107/305/84 108/306/84 109/307/84
f 108/306/84 110/308/84 109/307/84
o itemBottomLeftBlack
v 0.375000 0.281250 -0.438125
v 0.375000 0.125000 -0.438125
v 0.375000 0.281250 -0.500625
v 0.375000 0.125000 -0.500625
v 0.062500 0.281250 -0.500625
v 0.062500 0.125000 -0.500625
v 0.062500 0.281250 -0.438125
v 0.062500 0.125000 -0.438125
vt 0.000000 1.000000
vt 0.000000 0.937500
vt 0.062500 1.000000
vt 0.062500 0.937500
vt 0.000000 1.000000
vt 0.000000 0.937500
vt 0.062500 1.000000
vt 0.062500 0.937500
vt 0.000000 0.937500
vt 0.125000 1.000000
vt 0.125000 0.937500
vt 0.000000 1.000000
vt 0.125000 1.000000
vt 0.125000 0.937500
vt 0.000000 1.000000
vt 0.000000 0.937500
vt 0.125000 1.000000
vt 0.125000 0.937500
vt 0.000000 1.000000
vt 0.000000 0.000000
vt 1.000000 1.000000
vt 1.000000 0.000000
vn 1.0000 0.0000 0.0000
vn -1.0000 0.0000 0.0000
vn 0.0000 1.0000 0.0000
vn 0.0000 -1.0000 0.0000
vn 0.0000 -0.0000 1.0000
vn 0.0000 0.0000 -1.0000
usemtl m_6
s 1
f 113/309/85 114/310/85 115/311/85
f 114/310/85 116/312/85 115/311/85
f 117/313/86 118/314/86 119/315/86
f 118/314/86 120/316/86 119/315/86
f 117/313/87 119/317/87 115/318/87
f 119/317/87 113/319/87 115/318/87
f 120/320/88 118/314/88 114/321/88
f 118/314/88 116/322/88 114/321/88
f 119/323/89 120/324/89 113/325/89
f 120/324/89 114/326/89 113/325/89
usemtl m_0
f 115/327/90 116/328/90 117/329/90
f 116/328/90 118/330/90 117/329/90
o itemBottomRightWhite
v -0.062500 0.281250 -0.438125
v -0.062500 0.125000 -0.438125
v -0.062500 0.281250 -0.500625
v -0.062500 0.125000 -0.500625
v -0.375000 0.281250 -0.500625
v -0.375000 0.125000 -0.500625
v -0.375000 0.281250 -0.438125
v -0.375000 0.125000 -0.438125
vt 0.000000 1.000000
vt 0.000000 0.937500
vt 0.062500 1.000000
vt 0.062500 0.937500
vt 0.000000 1.000000
vt 0.000000 0.937500
vt 0.062500 1.000000
vt 0.062500 0.937500
vt 0.000000 0.937500
vt 0.125000 1.000000
vt 0.125000 0.937500
vt 0.000000 1.000000
vt 0.125000 1.000000
vt 0.125000 0.937500
vt 0.000000 1.000000
vt 0.000000 0.937500
vt 0.125000 1.000000
vt 0.125000 0.937500
vt 0.000000 1.000000
vt 0.000000 0.000000
vt 1.000000 1.000000
vt 1.000000 0.000000
vn 1.0000 0.0000 0.0000
vn -1.0000 0.0000 0.0000
vn 0.0000 1.0000 0.0000
vn 0.0000 -1.0000 0.0000
vn 0.0000 -0.0000 1.0000
vn 0.0000 0.0000 -1.0000
usemtl m_6
s 1
f 121/331/91 122/332/91 123/333/91
f 122/332/91 124/334/91 123/333/91
f 125/335/92 126/336/92 127/337/92
f 126/336/92 128/338/92 127/337/92
f 125/335/93 127/339/93 123/340/93
f 127/339/93 121/341/93 123/340/93
f 128/342/94 126/336/94 122/343/94
f 126/336/94 124/344/94 122/343/94
f 127/345/95 128/346/95 121/347/95
f 128/346/95 122/348/95 121/347/95
usemtl m_2
f 123/349/96 124/350/96 125/351/96
f 124/350/96 126/352/96 125/351/96
o generalCube
v 0.500000 1.000000 0.500000
v 0.500000 -0.000000 0.500000
v 0.500000 1.000000 -0.500000
v 0.500000 0.000000 -0.500000
v -0.500000 1.000000 -0.500000
v -0.500000 0.000000 -0.500000
v -0.500000 1.000000 0.500000
v -0.500000 -0.000000 0.500000
vt 0.000000 1.000000
vt 0.000000 0.000000
vt 1.000000 1.000000
vt 1.000000 0.000000
vt 0.000000 1.000000
vt 0.000000 0.000000
vt 1.000000 1.000000
vt 1.000000 0.000000
vt 0.000000 0.000000
vt 1.000000 0.000000
vt 0.000000 1.000000
vt 1.000000 1.000000
vt 0.000000 1.000000
vt 0.000000 0.000000
vt 1.000000 1.000000
vt 1.000000 0.000000
vt 0.000000 1.000000
vt 0.000000 0.000000
vt 1.000000 1.000000
vt 1.000000 0.000000
vn 1.0000 0.0000 0.0000
vn -1.0000 0.0000 0.0000
vn 0.0000 1.0000 0.0000
vn 0.0000 -1.0000 -0.0000
vn 0.0000 -0.0000 1.0000
vn 0.0000 0.0000 -1.0000
usemtl m_6
s 1
f 129/353/97 130/354/97 131/355/97
f 130/354/97 132/356/97 131/355/97
f 133/357/98 134/358/98 135/359/98
f 134/358/98 136/360/98 135/359/98
f 133/357/99 135/361/99 131/355/99
f 135/361/99 129/362/99 131/355/99
f 136/363/100 134/358/100 130/364/100
f 134/358/100 132/356/100 130/364/100
f 135/365/101 136/366/101 129/367/101
f 136/366/101 130/368/101 129/367/101
usemtl m_7
f 131/369/102 132/370/102 133/371/102
f 132/370/102 134/372/102 133/371/102
