# Blender v2.79 (sub 0) OBJ File: ''
# www.blender.org
mtllib hsigleft.mtl
o orange
v 0.500000 0.500000 -0.437500
v 0.500000 -0.500000 -0.437500
v 0.500000 0.500000 -0.500000
v 0.500000 -0.500000 -0.500000
v -0.500000 0.500000 -0.500000
v -0.500000 -0.500000 -0.500000
v -0.500000 0.500000 -0.437500
v -0.500000 -0.500000 -0.437500
vt 0.000000 1.000000
vt 0.000000 0.796875
vt 1.000000 1.000000
vt 1.000000 0.796875
vt 0.000000 1.000000
vt 0.000000 0.796875
vt 1.000000 1.000000
vt 1.000000 0.796875
vt 0.000000 0.937500
vt 1.000000 0.937500
vt 0.000000 1.000000
vt 0.000000 0.937500
vt 1.000000 1.000000
vt 1.000000 0.937500
vt 0.000000 1.000000
vt 0.000000 0.796875
vt 1.000000 1.000000
vt 1.000000 0.796875
vt 0.500000 1.000000
vt 0.500000 0.500000
vt 1.000000 1.000000
vt 1.000000 0.500000
vn 1.0000 0.0000 0.0000
vn -1.0000 0.0000 0.0000
vn 0.0000 1.0000 0.0000
vn 0.0000 -1.0000 0.0000
vn 0.0000 -0.0000 1.0000
vn 0.0000 0.0000 -1.0000
usemtl m_0
s 1
f 1/1/1 2/2/1 3/3/1
f 2/2/1 4/4/1 3/3/1
f 5/5/2 6/6/2 7/7/2
f 6/6/2 8/8/2 7/7/2
f 5/5/3 7/9/3 3/3/3
f 7/9/3 1/10/3 3/3/3
f 8/11/4 6/12/4 2/13/4
f 6/12/4 4/14/4 2/13/4
f 7/15/5 8/16/5 1/17/5
f 8/16/5 2/18/5 1/17/5
f 3/19/6 4/20/6 5/21/6
f 4/20/6 6/22/6 5/21/6
o off
v 0.500000 0.500000 -0.437500
v 0.500000 -0.500000 -0.437500
v 0.500000 0.500000 -0.500000
v 0.500000 -0.500000 -0.500000
v -0.500000 0.500000 -0.500000
v -0.500000 -0.500000 -0.500000
v -0.500000 0.500000 -0.437500
v -0.500000 -0.500000 -0.437500
vt 0.000000 1.000000
vt 0.000000 0.796875
vt 1.000000 1.000000
vt 1.000000 0.796875
vt 0.000000 1.000000
vt 0.000000 0.796875
vt 1.000000 1.000000
vt 1.000000 0.796875
vt 0.000000 0.937500
vt 1.000000 0.937500
vt 0.000000 1.000000
vt 0.000000 0.937500
vt 1.000000 1.000000
vt 1.000000 0.937500
vt 0.000000 1.000000
vt 0.000000 0.796875
vt 1.000000 1.000000
vt 1.000000 0.796875
vt 0.000000 1.000000
vt 0.000000 0.500000
vt 0.500000 1.000000
vt 0.500000 0.500000
vn 1.0000 0.0000 0.0000
vn -1.0000 0.0000 0.0000
vn 0.0000 1.0000 0.0000
vn 0.0000 -1.0000 0.0000
vn 0.0000 -0.0000 1.0000
vn 0.0000 0.0000 -1.0000
usemtl m_0
s 1
f 9/23/7 10/24/7 11/25/7
f 10/24/7 12/26/7 11/25/7
f 13/27/8 14/28/8 15/29/8
f 14/28/8 16/30/8 15/29/8
f 13/27/9 15/31/9 11/25/9
f 15/31/9 9/32/9 11/25/9
f 16/33/10 14/34/10 10/35/10
f 14/34/10 12/36/10 10/35/10
f 15/37/11 16/38/11 9/39/11
f 16/38/11 10/40/11 9/39/11
f 11/41/12 12/42/12 13/43/12
f 12/42/12 14/44/12 13/43/12
o green
v 0.500000 0.500000 -0.437500
v 0.500000 -0.500000 -0.437500
v 0.500000 0.500000 -0.500000
v 0.500000 -0.500000 -0.500000
v -0.500000 0.500000 -0.500000
v -0.500000 -0.500000 -0.500000
v -0.500000 0.500000 -0.437500
v -0.500000 -0.500000 -0.437500
vt 0.000000 1.000000
vt 0.000000 0.796875
vt 1.000000 1.000000
vt 1.000000 0.796875
vt 0.000000 1.000000
vt 0.000000 0.796875
vt 1.000000 1.000000
vt 1.000000 0.796875
vt 0.000000 0.937500
vt 1.000000 0.937500
vt 0.000000 1.000000
vt 0.000000 0.937500
vt 1.000000 1.000000
vt 1.000000 0.937500
vt 0.000000 1.000000
vt 0.000000 0.796875
vt 1.000000 1.000000
vt 1.000000 0.796875
vt 0.500000 0.500000
vt 0.500000 0.000000
vt 1.000000 0.500000
vt 1.000000 0.000000
vn 1.0000 0.0000 0.0000
vn -1.0000 0.0000 0.0000
vn 0.0000 1.0000 0.0000
vn 0.0000 -1.0000 0.0000
vn 0.0000 -0.0000 1.0000
vn 0.0000 0.0000 -1.0000
usemtl m_0
s 1
f 17/45/13 18/46/13 19/47/13
f 18/46/13 20/48/13 19/47/13
f 21/49/14 22/50/14 23/51/14
f 22/50/14 24/52/14 23/51/14
f 21/49/15 23/53/15 19/47/15
f 23/53/15 17/54/15 19/47/15
f 24/55/16 22/56/16 18/57/16
f 22/56/16 20/58/16 18/57/16
f 23/59/17 24/60/17 17/61/17
f 24/60/17 18/62/17 17/61/17
f 19/63/18 20/64/18 21/65/18
f 20/64/18 22/66/18 21/65/18
o generalCube
v 0.500000 0.500000 0.500000
v 0.500000 -0.500000 0.500000
v 0.500000 0.500000 -0.468750
v 0.500000 -0.500000 -0.468750
v -0.500000 0.500000 -0.468750
v -0.500000 -0.500000 -0.468750
v -0.500000 0.500000 0.500000
v -0.500000 -0.500000 0.500000
vt 0.000000 1.000000
vt 0.000000 0.789062
vt 1.000000 1.000000
vt 1.000000 0.789062
vt 0.000000 1.000000
vt 0.000000 0.796875
vt 1.000000 1.000000
vt 1.000000 0.796875
vt 0.000000 0.796875
vt 1.000000 0.796875
vt 0.000000 1.000000
vt 1.000000 1.000000
vt 1.000000 0.796875
vt 0.000000 1.000000
vt 0.000000 0.789062
vt 1.000000 1.000000
vt 1.000000 0.789062
vt 0.000000 1.000000
vt 0.000000 0.796875
vt 1.000000 1.000000
vt 1.000000 0.796875
vn 1.0000 -0.0000 0.0000
vn -1.0000 -0.0000 0.0000
vn 0.0000 1.0000 0.0000
vn 0.0000 -1.0000 -0.0000
vn 0.0000 -0.0000 1.0000
vn 0.0000 0.0000 -1.0000
usemtl m_0
s 1
f 25/67/19 26/68/19 27/69/19
f 26/68/19 28/70/19 27/69/19
f 29/71/20 30/72/20 31/73/20
f 30/72/20 32/74/20 31/73/20
f 29/71/21 31/75/21 27/69/21
f 31/75/21 25/76/21 27/69/21
f 32/77/22 30/72/22 26/78/22
f 30/72/22 28/79/22 26/78/22
f 31/80/23 32/81/23 25/82/23
f 32/81/23 26/83/23 25/82/23
f 27/84/24 28/85/24 29/86/24
f 28/85/24 30/87/24 29/86/24
o red
v 0.500000 0.500000 -0.437500
v 0.500000 -0.500000 -0.437500
v 0.500000 0.500000 -0.500000
v 0.500000 -0.500000 -0.500000
v -0.500000 0.500000 -0.500000
v -0.500000 -0.500000 -0.500000
v -0.500000 0.500000 -0.437500
v -0.500000 -0.500000 -0.437500
vt 0.000000 1.000000
vt 0.000000 0.796875
vt 1.000000 1.000000
vt 1.000000 0.796875
vt 0.000000 1.000000
vt 0.000000 0.796875
vt 1.000000 1.000000
vt 1.000000 0.796875
vt 0.000000 0.937500
vt 1.000000 0.937500
vt 0.000000 1.000000
vt 0.000000 0.937500
vt 1.000000 1.000000
vt 1.000000 0.937500
vt 0.000000 1.000000
vt 0.000000 0.796875
vt 1.000000 1.000000
vt 1.000000 0.796875
vt 0.000000 0.500000
vt 0.000000 0.000000
vt 0.500000 0.500000
vt 0.500000 0.000000
vn 1.0000 0.0000 0.0000
vn -1.0000 0.0000 0.0000
vn 0.0000 1.0000 0.0000
vn 0.0000 -1.0000 0.0000
vn 0.0000 -0.0000 1.0000
vn 0.0000 0.0000 -1.0000
usemtl m_0
s 1
f 33/88/25 34/89/25 35/90/25
f 34/89/25 36/91/25 35/90/25
f 37/92/26 38/93/26 39/94/26
f 38/93/26 40/95/26 39/94/26
f 37/92/27 39/96/27 35/90/27
f 39/96/27 33/97/27 35/90/27
f 40/98/28 38/99/28 34/100/28
f 38/99/28 36/101/28 34/100/28
f 39/102/29 40/103/29 33/104/29
f 40/103/29 34/105/29 33/104/29
f 35/106/30 36/107/30 37/108/30
f 36/107/30 38/109/30 37/108/30
