# MagicaVoxel @ Ephtracy

# group
o all

# material
mtllib vorsignal_boden.mtl
usemtl palette

# normals
vn -1 0 0
vn 1 0 0
vn 0 0 1
vn 0 0 -1
vn 0 -1 0
vn 0 1 0

# texcoords
vt 0.908203 0.5
vt 0.962891 0.5
vt 0.974609 0.5
vt 0.994141 0.5

# verts
v -0.4 1.4 0.5
v -0.4 1.4 0.4
v -0.4 1.4 0.3
v -0.4 2.8 0.5
v -0.4 2.8 0.4
v -0.4 2.8 0.3
v -0.3 1.2 0.5
v -0.3 1.2 -0.4
v -0.3 1.3 0.5
v -0.3 1.3 -0.4
v -0.3 1.4 -0.4
v -0.3 1.4 -0.8
v -0.3 2.3 -0.4
v -0.3 2.3 -0.8
v -0.1 1.3 0.3
v -0.1 1.3 0.1
v -0.1 1.3 0
v -0.1 1.3 -0.2
v -0.1 1.4 0.3
v -0.1 1.4 0.1
v -0.1 1.4 0
v -0.1 1.6 0.2
v -0.1 1.6 -0.1
v -0.1 1.6 -0.2
v -0.1 1.6 -0.4
v -0.1 1.7 -0.2
v -0.1 1.7 -0.4
v -0.1 1.9 0.2
v -0.1 1.9 -0.1
v -0.1 2 0.2
v -0.1 2 -0.1
v -0.1 2 -0.2
v -0.1 2 -0.4
v -0.1 2.1 -0.2
v -0.1 2.1 -0.4
v -0.1 2.3 0.2
v -0.1 2.3 -0.1
v -0.1 2.4 0.2
v -0.1 2.4 -0.1
v -0.1 2.7 0.2
v -0.1 2.7 -0.1
v -0.1 2.8 0.3
v -0.1 2.8 -0.2
v 0.1 1.6 -0.2
v 0.1 1.6 -0.4
v 0.1 1.7 -0.2
v 0.1 1.7 -0.4
v 0.1 2 -0.2
v 0.1 2 -0.4
v 0.1 2.1 -0.2
v 0.1 2.1 -0.4
v 0.2 1.3 0.3
v 0.2 1.3 0.1
v 0.2 1.3 0
v 0.2 1.3 -0.2
v 0.2 1.4 0.3
v 0.2 1.4 0.1
v 0.2 1.4 0
v 0.2 1.6 0.2
v 0.2 1.6 -0.1
v 0.2 1.9 0.2
v 0.2 1.9 -0.1
v 0.2 2 0.2
v 0.2 2 -0.1
v 0.2 2.3 0.2
v 0.2 2.3 -0.1
v 0.2 2.4 0.2
v 0.2 2.4 -0.1
v 0.2 2.7 0.2
v 0.2 2.7 -0.1
v 0.2 2.8 0.3
v 0.2 2.8 -0.2
v 0.4 1.2 0.5
v 0.4 1.2 -0.4
v 0.4 1.3 0.5
v 0.4 1.3 -0.4
v 0.4 1.4 -0.4
v 0.4 1.4 -0.8
v 0.4 2.3 -0.4
v 0.4 2.3 -0.8
v 0.5 1.4 0.5
v 0.5 1.4 0.4
v 0.5 1.4 0.3
v 0.5 2.8 0.5
v 0.5 2.8 0.4
v 0.5 2.8 0.3
v -0.4 1.4 0.5
v -0.4 2.8 0.5
v -0.3 1.2 0.5
v -0.3 1.3 0.5
v -0.3 1.6 0.5
v -0.3 2.6 0.5
v -0.2 1.5 0.5
v -0.2 1.6 0.5
v -0.2 1.8 0.5
v -0.2 2.4 0.5
v -0.2 2.6 0.5
v -0.2 2.7 0.5
v -0.1 1.6 0.5
v -0.1 1.8 0.5
v -0.1 2 0.5
v -0.1 2.2 0.5
v -0.1 2.4 0.5
v -0.1 2.6 0.5
v 0 1.8 0.5
v 0 2 0.5
v 0 2.2 0.5
v 0 2.4 0.5
v 0.1 1.8 0.5
v 0.1 2 0.5
v 0.1 2.2 0.5
v 0.1 2.4 0.5
v 0.2 1.6 0.5
v 0.2 1.8 0.5
v 0.2 2 0.5
v 0.2 2.2 0.5
v 0.2 2.4 0.5
v 0.2 2.6 0.5
v 0.3 1.5 0.5
v 0.3 1.6 0.5
v 0.3 1.8 0.5
v 0.3 2.4 0.5
v 0.3 2.6 0.5
v 0.3 2.7 0.5
v 0.4 1.2 0.5
v 0.4 1.3 0.5
v 0.4 1.6 0.5
v 0.4 2.6 0.5
v 0.5 1.4 0.5
v 0.5 2.8 0.5
v -0.1 1.3 0.3
v -0.1 1.4 0.3
v 0.2 1.3 0.3
v 0.2 1.4 0.3
v -0.1 1.3 0
v -0.1 1.4 0
v 0.2 1.3 0
v 0.2 1.4 0
v -0.1 1.6 -0.1
v -0.1 1.9 -0.1
v -0.1 2 -0.1
v -0.1 2.3 -0.1
v -0.1 2.4 -0.1
v -0.1 2.7 -0.1
v 0.2 1.6 -0.1
v 0.2 1.9 -0.1
v 0.2 2 -0.1
v 0.2 2.3 -0.1
v 0.2 2.4 -0.1
v 0.2 2.7 -0.1
v -0.3 1.4 -0.4
v -0.3 2.3 -0.4
v -0.1 1.6 -0.4
v -0.1 1.7 -0.4
v -0.1 2 -0.4
v -0.1 2.1 -0.4
v 0.1 1.6 -0.4
v 0.1 1.7 -0.4
v 0.1 2 -0.4
v 0.1 2.1 -0.4
v 0.4 1.4 -0.4
v 0.4 2.3 -0.4
v -0.4 1.4 0.3
v -0.4 2.8 0.3
v -0.1 1.4 0.3
v -0.1 2.8 0.3
v 0.2 1.4 0.3
v 0.2 2.8 0.3
v 0.5 1.4 0.3
v 0.5 2.8 0.3
v -0.1 1.6 0.2
v -0.1 1.9 0.2
v -0.1 2 0.2
v -0.1 2.3 0.2
v -0.1 2.4 0.2
v -0.1 2.7 0.2
v 0.2 1.6 0.2
v 0.2 1.9 0.2
v 0.2 2 0.2
v 0.2 2.3 0.2
v 0.2 2.4 0.2
v 0.2 2.7 0.2
v -0.1 1.3 0.1
v -0.1 1.4 0.1
v 0.2 1.3 0.1
v 0.2 1.4 0.1
v -0.1 1.3 -0.2
v -0.1 1.6 -0.2
v -0.1 1.7 -0.2
v -0.1 2 -0.2
v -0.1 2.1 -0.2
v -0.1 2.8 -0.2
v 0.1 1.6 -0.2
v 0.1 1.7 -0.2
v 0.1 2 -0.2
v 0.1 2.1 -0.2
v 0.2 1.3 -0.2
v 0.2 2.8 -0.2
v -0.3 1.2 -0.4
v -0.3 1.3 -0.4
v 0.4 1.2 -0.4
v 0.4 1.3 -0.4
v -0.3 1.4 -0.8
v -0.3 2.3 -0.8
v 0.4 1.4 -0.8
v 0.4 2.3 -0.8
v -0.3 1.2 0.5
v 0.4 1.2 0.5
v -0.3 1.2 -0.4
v 0.4 1.2 -0.4
v -0.4 1.4 0.5
v 0.5 1.4 0.5
v -0.4 1.4 0.4
v 0.5 1.4 0.4
v -0.4 1.4 0.3
v -0.1 1.4 0.3
v 0.2 1.4 0.3
v 0.5 1.4 0.3
v -0.1 1.4 0.1
v 0.2 1.4 0.1
v -0.1 1.4 0
v 0.2 1.4 0
v -0.3 1.4 -0.4
v 0.4 1.4 -0.4
v -0.3 1.4 -0.8
v 0.4 1.4 -0.8
v -0.1 1.6 -0.2
v 0.1 1.6 -0.2
v -0.1 1.6 -0.4
v 0.1 1.6 -0.4
v -0.1 1.9 0.2
v 0.2 1.9 0.2
v -0.1 1.9 -0.1
v 0.2 1.9 -0.1
v -0.1 2 -0.2
v 0.1 2 -0.2
v -0.1 2 -0.4
v 0.1 2 -0.4
v -0.1 2.3 0.2
v 0.2 2.3 0.2
v -0.1 2.3 -0.1
v 0.2 2.3 -0.1
v -0.1 2.7 0.2
v 0.2 2.7 0.2
v -0.1 2.7 -0.1
v 0.2 2.7 -0.1
v -0.3 1.3 0.5
v 0.4 1.3 0.5
v -0.1 1.3 0.3
v 0.2 1.3 0.3
v -0.1 1.3 0.1
v 0.2 1.3 0.1
v -0.1 1.3 0
v 0.2 1.3 0
v -0.1 1.3 -0.2
v 0.2 1.3 -0.2
v -0.3 1.3 -0.4
v 0.4 1.3 -0.4
v -0.1 1.6 0.2
v 0.2 1.6 0.2
v -0.1 1.6 -0.1
v 0.2 1.6 -0.1
v -0.1 1.7 -0.2
v 0.1 1.7 -0.2
v -0.1 1.7 -0.4
v 0.1 1.7 -0.4
v -0.1 2 0.2
v 0.2 2 0.2
v -0.1 2 -0.1
v 0.2 2 -0.1
v -0.1 2.1 -0.2
v 0.1 2.1 -0.2
v -0.1 2.1 -0.4
v 0.1 2.1 -0.4
v -0.3 2.3 -0.4
v 0.4 2.3 -0.4
v -0.3 2.3 -0.8
v 0.4 2.3 -0.8
v -0.1 2.4 0.2
v 0.2 2.4 0.2
v -0.1 2.4 -0.1
v 0.2 2.4 -0.1
v -0.4 2.8 0.5
v 0.5 2.8 0.5
v -0.4 2.8 0.4
v 0.5 2.8 0.4
v -0.4 2.8 0.3
v -0.1 2.8 0.3
v 0.2 2.8 0.3
v 0.5 2.8 0.3
v -0.1 2.8 -0.2
v 0.2 2.8 -0.2

# faces
f 4/4/1 2/4/1 1/4/1
f 5/3/1 3/3/1 2/3/1
f 5/4/1 2/4/1 4/4/1
f 6/3/1 3/3/1 5/3/1
f 9/1/1 8/1/1 7/1/1
f 10/1/1 8/1/1 9/1/1
f 13/3/1 12/3/1 11/3/1
f 14/3/1 12/3/1 13/3/1
f 19/1/1 16/1/1 15/1/1
f 20/1/1 16/1/1 19/1/1
f 21/1/1 18/1/1 17/1/1
f 22/1/1 20/1/1 19/1/1
f 22/1/1 21/1/1 20/1/1
f 23/1/1 18/1/1 21/1/1
f 23/1/1 21/1/1 22/1/1
f 24/1/1 18/1/1 23/1/1
f 26/1/1 25/1/1 24/1/1
f 26/1/1 24/1/1 23/1/1
f 27/1/1 25/1/1 26/1/1
f 28/1/1 22/1/1 19/1/1
f 29/1/1 26/1/1 23/1/1
f 30/1/1 28/1/1 19/1/1
f 30/1/1 29/1/1 28/1/1
f 31/1/1 26/1/1 29/1/1
f 31/1/1 29/1/1 30/1/1
f 32/1/1 26/1/1 31/1/1
f 34/1/1 33/1/1 32/1/1
f 34/1/1 32/1/1 31/1/1
f 35/1/1 33/1/1 34/1/1
f 36/1/1 30/1/1 19/1/1
f 37/1/1 34/1/1 31/1/1
f 38/1/1 36/1/1 19/1/1
f 38/1/1 37/1/1 36/1/1
f 39/1/1 34/1/1 37/1/1
f 39/1/1 37/1/1 38/1/1
f 40/1/1 38/1/1 19/1/1
f 41/1/1 34/1/1 39/1/1
f 42/1/1 40/1/1 19/1/1
f 42/1/1 41/1/1 40/1/1
f 43/1/1 34/1/1 41/1/1
f 43/1/1 41/1/1 42/1/1
f 44/1/2 45/1/2 46/1/2
f 46/1/2 45/1/2 47/1/2
f 48/1/2 49/1/2 50/1/2
f 50/1/2 49/1/2 51/1/2
f 52/1/2 53/1/2 56/1/2
f 56/1/2 53/1/2 57/1/2
f 54/1/2 55/1/2 58/1/2
f 56/1/2 57/1/2 59/1/2
f 57/1/2 58/1/2 59/1/2
f 58/1/2 55/1/2 60/1/2
f 59/1/2 58/1/2 60/1/2
f 56/1/2 59/1/2 61/1/2
f 60/1/2 55/1/2 62/1/2
f 56/1/2 61/1/2 63/1/2
f 61/1/2 62/1/2 63/1/2
f 62/1/2 55/1/2 64/1/2
f 63/1/2 62/1/2 64/1/2
f 56/1/2 63/1/2 65/1/2
f 64/1/2 55/1/2 66/1/2
f 56/1/2 65/1/2 67/1/2
f 65/1/2 66/1/2 67/1/2
f 66/1/2 55/1/2 68/1/2
f 67/1/2 66/1/2 68/1/2
f 56/1/2 67/1/2 69/1/2
f 68/1/2 55/1/2 70/1/2
f 56/1/2 69/1/2 71/1/2
f 69/1/2 70/1/2 71/1/2
f 70/1/2 55/1/2 72/1/2
f 71/1/2 70/1/2 72/1/2
f 73/1/2 74/1/2 75/1/2
f 75/1/2 74/1/2 76/1/2
f 77/3/2 78/3/2 79/3/2
f 79/3/2 78/3/2 80/3/2
f 81/4/2 82/4/2 84/4/2
f 82/3/2 83/3/2 85/3/2
f 84/4/2 82/4/2 85/4/2
f 85/3/2 83/3/2 86/3/2
f 91/4/3 88/4/3 87/4/3
f 92/4/3 88/4/3 91/4/3
f 93/4/3 91/4/3 87/4/3
f 94/2/3 92/2/3 91/2/3
f 94/4/3 91/4/3 93/4/3
f 95/2/3 92/2/3 94/2/3
f 96/2/3 92/2/3 95/2/3
f 97/4/3 88/4/3 92/4/3
f 97/2/3 92/2/3 96/2/3
f 98/4/3 88/4/3 97/4/3
f 99/2/3 94/2/3 93/2/3
f 99/4/3 95/4/3 94/4/3
f 100/2/3 96/2/3 95/2/3
f 100/4/3 95/4/3 99/4/3
f 101/2/3 96/2/3 100/2/3
f 102/2/3 96/2/3 101/2/3
f 103/4/3 97/4/3 96/4/3
f 103/2/3 96/2/3 102/2/3
f 104/2/3 98/2/3 97/2/3
f 104/4/3 97/4/3 103/4/3
f 105/2/3 100/2/3 99/2/3
f 105/4/3 101/4/3 100/4/3
f 106/2/3 102/2/3 101/2/3
f 106/4/3 101/4/3 105/4/3
f 107/4/3 103/4/3 102/4/3
f 107/2/3 102/2/3 106/2/3
f 108/2/3 104/2/3 103/2/3
f 108/4/3 103/4/3 107/4/3
f 109/2/3 106/2/3 105/2/3
f 109/2/3 105/2/3 99/2/3
f 110/4/3 107/4/3 106/4/3
f 110/2/3 106/2/3 109/2/3
f 111/2/3 108/2/3 107/2/3
f 111/4/3 107/4/3 110/4/3
f 112/2/3 104/2/3 108/2/3
f 112/2/3 108/2/3 111/2/3
f 113/2/3 99/2/3 93/2/3
f 113/2/3 109/2/3 99/2/3
f 114/4/3 110/4/3 109/4/3
f 114/2/3 109/2/3 113/2/3
f 115/2/3 111/2/3 110/2/3
f 115/4/3 110/4/3 114/4/3
f 116/4/3 112/4/3 111/4/3
f 116/2/3 111/2/3 115/2/3
f 117/2/3 104/2/3 112/2/3
f 117/4/3 112/4/3 116/4/3
f 118/2/3 98/2/3 104/2/3
f 118/2/3 104/2/3 117/2/3
f 119/4/3 93/4/3 87/4/3
f 119/2/3 113/2/3 93/2/3
f 120/4/3 114/4/3 113/4/3
f 120/2/3 113/2/3 119/2/3
f 121/2/3 116/2/3 115/2/3
f 121/4/3 114/4/3 120/4/3
f 121/2/3 117/2/3 116/2/3
f 121/2/3 115/2/3 114/2/3
f 122/4/3 118/4/3 117/4/3
f 122/2/3 117/2/3 121/2/3
f 123/2/3 98/2/3 118/2/3
f 123/4/3 118/4/3 122/4/3
f 124/4/3 88/4/3 98/4/3
f 124/2/3 98/2/3 123/2/3
f 125/1/3 90/1/3 89/1/3
f 126/1/3 90/1/3 125/1/3
f 127/4/3 120/4/3 119/4/3
f 127/2/3 122/2/3 121/2/3
f 127/2/3 123/2/3 122/2/3
f 127/2/3 121/2/3 120/2/3
f 128/4/3 124/4/3 123/4/3
f 128/2/3 123/2/3 127/2/3
f 129/4/3 127/4/3 119/4/3
f 129/4/3 128/4/3 127/4/3
f 129/4/3 119/4/3 87/4/3
f 130/4/3 88/4/3 124/4/3
f 130/4/3 128/4/3 129/4/3
f 130/4/3 124/4/3 128/4/3
f 133/1/3 132/1/3 131/1/3
f 134/1/3 132/1/3 133/1/3
f 137/1/3 136/1/3 135/1/3
f 138/1/3 136/1/3 137/1/3
f 145/1/3 140/1/3 139/1/3
f 146/1/3 140/1/3 145/1/3
f 147/1/3 142/1/3 141/1/3
f 148/1/3 142/1/3 147/1/3
f 149/1/3 144/1/3 143/1/3
f 150/1/3 144/1/3 149/1/3
f 153/3/3 152/3/3 151/3/3
f 154/3/3 152/3/3 153/3/3
f 155/3/3 152/3/3 154/3/3
f 156/3/3 152/3/3 155/3/3
f 157/3/3 153/3/3 151/3/3
f 158/3/3 155/3/3 154/3/3
f 159/3/3 155/3/3 158/3/3
f 160/3/3 152/3/3 156/3/3
f 161/3/3 159/3/3 158/3/3
f 161/3/3 160/3/3 159/3/3
f 161/3/3 157/3/3 151/3/3
f 161/3/3 158/3/3 157/3/3
f 162/3/3 152/3/3 160/3/3
f 162/3/3 160/3/3 161/3/3
f 163/3/4 164/3/4 165/3/4
f 165/3/4 164/3/4 166/3/4
f 167/3/4 168/3/4 169/3/4
f 169/3/4 168/3/4 170/3/4
f 171/1/4 172/1/4 177/1/4
f 177/1/4 172/1/4 178/1/4
f 173/1/4 174/1/4 179/1/4
f 179/1/4 174/1/4 180/1/4
f 175/1/4 176/1/4 181/1/4
f 181/1/4 176/1/4 182/1/4
f 183/1/4 184/1/4 185/1/4
f 185/1/4 184/1/4 186/1/4
f 187/1/4 188/1/4 193/1/4
f 189/1/4 190/1/4 194/1/4
f 194/1/4 190/1/4 195/1/4
f 191/1/4 192/1/4 196/1/4
f 194/1/4 195/1/4 197/1/4
f 195/1/4 196/1/4 197/1/4
f 187/1/4 193/1/4 197/1/4
f 193/1/4 194/1/4 197/1/4
f 196/1/4 192/1/4 198/1/4
f 197/1/4 196/1/4 198/1/4
f 199/1/4 200/1/4 201/1/4
f 201/1/4 200/1/4 202/1/4
f 203/3/4 204/3/4 205/3/4
f 205/3/4 204/3/4 206/3/4
f 209/1/5 208/1/5 207/1/5
f 210/1/5 208/1/5 209/1/5
f 213/4/5 212/4/5 211/4/5
f 214/4/5 212/4/5 213/4/5
f 215/3/5 214/3/5 213/3/5
f 216/3/5 214/3/5 215/3/5
f 217/3/5 214/3/5 216/3/5
f 218/3/5 214/3/5 217/3/5
f 221/1/5 220/1/5 219/1/5
f 222/1/5 220/1/5 221/1/5
f 225/3/5 224/3/5 223/3/5
f 226/3/5 224/3/5 225/3/5
f 229/1/5 228/1/5 227/1/5
f 230/1/5 228/1/5 229/1/5
f 233/1/5 232/1/5 231/1/5
f 234/1/5 232/1/5 233/1/5
f 237/1/5 236/1/5 235/1/5
f 238/1/5 236/1/5 237/1/5
f 241/1/5 240/1/5 239/1/5
f 242/1/5 240/1/5 241/1/5
f 245/1/5 244/1/5 243/1/5
f 246/1/5 244/1/5 245/1/5
f 247/1/6 248/1/6 249/1/6
f 249/1/6 248/1/6 250/1/6
f 247/1/6 249/1/6 251/1/6
f 250/1/6 248/1/6 252/1/6
f 247/1/6 251/1/6 253/1/6
f 251/1/6 252/1/6 253/1/6
f 252/1/6 248/1/6 254/1/6
f 253/1/6 252/1/6 254/1/6
f 247/1/6 253/1/6 255/1/6
f 254/1/6 248/1/6 256/1/6
f 247/1/6 255/1/6 257/1/6
f 255/1/6 256/1/6 257/1/6
f 256/1/6 248/1/6 258/1/6
f 257/1/6 256/1/6 258/1/6
f 259/1/6 260/1/6 261/1/6
f 261/1/6 260/1/6 262/1/6
f 263/1/6 264/1/6 265/1/6
f 265/1/6 264/1/6 266/1/6
f 267/1/6 268/1/6 269/1/6
f 269/1/6 268/1/6 270/1/6
f 271/1/6 272/1/6 273/1/6
f 273/1/6 272/1/6 274/1/6
f 275/3/6 276/3/6 277/3/6
f 277/3/6 276/3/6 278/3/6
f 279/1/6 280/1/6 281/1/6
f 281/1/6 280/1/6 282/1/6
f 283/4/6 284/4/6 285/4/6
f 285/4/6 284/4/6 286/4/6
f 285/3/6 286/3/6 287/3/6
f 287/3/6 286/3/6 288/3/6
f 288/3/6 286/3/6 289/3/6
f 289/3/6 286/3/6 290/3/6
f 288/1/6 289/1/6 291/1/6
f 291/1/6 289/1/6 292/1/6
