# Blender v2.90.1 OBJ File: ''
# www.blender.org
mtllib unisolatedtrack.mtl
o generalCube
v 0.500000 0.500000 0.500000
v 0.500000 -0.500000 0.500000
v 0.500000 0.500000 -0.500000
v 0.500000 -0.500000 -0.500000
v -0.500000 0.500000 -0.500000
v -0.500000 -0.500000 -0.500000
v -0.500000 0.500000 0.500000
v -0.500000 -0.500000 0.500000
vt 0.500000 1.000000
vt 0.500000 0.500000
vt 1.000000 1.000000
vt 1.000000 0.500000
vt 0.500000 1.000000
vt 0.500000 0.500000
vt 1.000000 1.000000
vt 1.000000 0.500000
vt 0.500000 0.500000
vt 1.000000 0.500000
vt 0.500000 1.000000
vt 1.000000 1.000000
vt 0.500000 1.000000
vt 0.500000 0.500000
vt 1.000000 1.000000
vt 1.000000 0.500000
vt 0.000000 1.000000
vt 0.000000 0.500000
vn 1.0000 -0.0000 0.0000
vn -1.0000 0.0000 0.0000
vn 0.0000 1.0000 0.0000
vn 0.0000 -1.0000 -0.0000
vn 0.0000 -0.0000 1.0000
vn 0.0000 0.0000 -1.0000
usemtl m_0
s 1
f 1/1/1 2/2/1 3/3/1
f 2/2/1 4/4/1 3/3/1
f 5/5/2 6/6/2 7/7/2
f 6/6/2 8/8/2 7/7/2
f 5/5/3 7/9/3 3/3/3
f 7/9/3 1/10/3 3/3/3
f 8/11/4 6/6/4 2/12/4
f 6/6/4 4/4/4 2/12/4
f 7/13/5 8/14/5 1/15/5
f 8/14/5 2/16/5 1/15/5
f 3/17/6 4/18/6 5/5/6
f 4/18/6 6/6/6 5/5/6
o off1
v -0.281250 0.046875 -0.500000
v -0.281250 -0.046875 -0.500000
v -0.281250 0.046875 -0.500625
v -0.281250 -0.046875 -0.500625
v -0.375000 0.046875 -0.500625
v -0.375000 -0.046875 -0.500625
v -0.375000 0.046875 -0.500000
v -0.375000 -0.046875 -0.500000
vt 0.000000 1.000000
vt 0.000000 0.906250
vt 0.000625 1.000000
vt 0.000625 0.906250
vt 0.000000 1.000000
vt 0.000000 0.906250
vt 0.000625 1.000000
vt 0.000625 0.906250
vt 0.000000 0.999375
vt 0.093750 1.000000
vt 0.093750 0.999375
vt 0.000000 1.000000
vt 0.000000 0.999375
vt 0.093750 1.000000
vt 0.093750 0.999375
vt 0.000000 0.093750
vt 0.000000 0.000000
vt 0.093750 0.093750
vt 0.093750 0.000000
vt 0.000000 0.093750
vt 0.000000 0.000000
vt 0.093750 0.093750
vt 0.093750 0.000000
vn 1.0000 0.0000 0.0000
vn -1.0000 0.0000 0.0000
vn 0.0000 1.0000 0.0000
vn 0.0000 -1.0000 0.0000
vn 0.0000 0.0000 1.0000
vn 0.0000 0.0000 -1.0000
usemtl none
s 1
f 9/19/7 10/20/7 11/21/7
f 10/20/7 12/22/7 11/21/7
f 13/23/8 14/24/8 15/25/8
f 14/24/8 16/26/8 15/25/8
f 13/23/9 15/27/9 11/28/9
f 15/27/9 9/29/9 11/28/9
f 16/30/10 14/31/10 10/32/10
f 14/31/10 12/33/10 10/32/10
usemtl m_0
f 15/34/11 16/35/11 9/36/11
f 16/35/11 10/37/11 9/36/11
f 11/38/12 12/39/12 13/40/12
f 12/39/12 14/41/12 13/40/12
o off2
v -0.125000 0.046875 -0.500000
v -0.125000 -0.046875 -0.500000
v -0.125000 0.046875 -0.500625
v -0.125000 -0.046875 -0.500625
v -0.218750 0.046875 -0.500625
v -0.218750 -0.046875 -0.500625
v -0.218750 0.046875 -0.500000
v -0.218750 -0.046875 -0.500000
vt 0.000000 1.000000
vt 0.000000 0.906250
vt 0.000625 1.000000
vt 0.000625 0.906250
vt 0.000000 1.000000
vt 0.000000 0.906250
vt 0.000625 1.000000
vt 0.000625 0.906250
vt 0.000000 0.999375
vt 0.093750 1.000000
vt 0.093750 0.999375
vt 0.000000 1.000000
vt 0.000000 0.999375
vt 0.093750 1.000000
vt 0.093750 0.999375
vt 0.000000 1.000000
vt 0.000000 0.906250
vt 0.093750 1.000000
vt 0.093750 0.906250
vt 0.000000 0.093750
vt 0.000000 0.000000
vt 0.093750 0.093750
vt 0.093750 0.000000
vn 1.0000 0.0000 0.0000
vn -1.0000 0.0000 0.0000
vn 0.0000 1.0000 0.0000
vn 0.0000 -1.0000 0.0000
vn 0.0000 0.0000 1.0000
vn 0.0000 0.0000 -1.0000
usemtl none
s 1
f 17/42/13 18/43/13 19/44/13
f 18/43/13 20/45/13 19/44/13
f 21/46/14 22/47/14 23/48/14
f 22/47/14 24/49/14 23/48/14
f 21/46/15 23/50/15 19/51/15
f 23/50/15 17/52/15 19/51/15
f 24/53/16 22/54/16 18/55/16
f 22/54/16 20/56/16 18/55/16
f 23/57/17 24/58/17 17/59/17
f 24/58/17 18/60/17 17/59/17
usemtl m_0
f 19/61/18 20/62/18 21/63/18
f 20/62/18 22/64/18 21/63/18
o off3
v 0.218750 0.046875 -0.500000
v 0.218750 -0.046875 -0.500000
v 0.218750 0.046875 -0.500625
v 0.218750 -0.046875 -0.500625
v 0.125000 0.046875 -0.500625
v 0.125000 -0.046875 -0.500625
v 0.125000 0.046875 -0.500000
v 0.125000 -0.046875 -0.500000
vt 0.000000 1.000000
vt 0.000000 0.906250
vt 0.000625 1.000000
vt 0.000625 0.906250
vt 0.000000 1.000000
vt 0.000000 0.906250
vt 0.000625 1.000000
vt 0.000625 0.906250
vt 0.000000 0.999375
vt 0.093750 1.000000
vt 0.093750 0.999375
vt 0.000000 1.000000
vt 0.000000 0.999375
vt 0.093750 1.000000
vt 0.093750 0.999375
vt 0.000000 1.000000
vt 0.000000 0.906250
vt 0.093750 1.000000
vt 0.093750 0.906250
vt 0.000000 0.093750
vt 0.000000 0.000000
vt 0.093750 0.093750
vt 0.093750 0.000000
vn 1.0000 0.0000 0.0000
vn -1.0000 0.0000 0.0000
vn 0.0000 1.0000 0.0000
vn 0.0000 -1.0000 0.0000
vn 0.0000 0.0000 1.0000
vn 0.0000 0.0000 -1.0000
usemtl none
s 1
f 25/65/19 26/66/19 27/67/19
f 26/66/19 28/68/19 27/67/19
f 29/69/20 30/70/20 31/71/20
f 30/70/20 32/72/20 31/71/20
f 29/69/21 31/73/21 27/74/21
f 31/73/21 25/75/21 27/74/21
f 32/76/22 30/77/22 26/78/22
f 30/77/22 28/79/22 26/78/22
f 31/80/23 32/81/23 25/82/23
f 32/81/23 26/83/23 25/82/23
usemtl m_0
f 27/84/24 28/85/24 29/86/24
f 28/85/24 30/87/24 29/86/24
o off4
v 0.375000 0.046875 -0.500000
v 0.375000 -0.046875 -0.500000
v 0.375000 0.046875 -0.500625
v 0.375000 -0.046875 -0.500625
v 0.281250 0.046875 -0.500625
v 0.281250 -0.046875 -0.500625
v 0.281250 0.046875 -0.500000
v 0.281250 -0.046875 -0.500000
vt 0.000000 1.000000
vt 0.000000 0.906250
vt 0.000625 1.000000
vt 0.000625 0.906250
vt 0.000000 1.000000
vt 0.000000 0.906250
vt 0.000625 1.000000
vt 0.000625 0.906250
vt 0.000000 0.999375
vt 0.093750 1.000000
vt 0.093750 0.999375
vt 0.000000 1.000000
vt 0.000000 0.999375
vt 0.093750 1.000000
vt 0.093750 0.999375
vt 0.000000 1.000000
vt 0.000000 0.906250
vt 0.093750 1.000000
vt 0.093750 0.906250
vt 0.000000 0.093750
vt 0.000000 0.000000
vt 0.093750 0.093750
vt 0.093750 0.000000
vn 1.0000 0.0000 0.0000
vn -1.0000 0.0000 0.0000
vn 0.0000 1.0000 0.0000
vn 0.0000 -1.0000 0.0000
vn 0.0000 0.0000 1.0000
vn 0.0000 0.0000 -1.0000
usemtl none
s 1
f 33/88/25 34/89/25 35/90/25
f 34/89/25 36/91/25 35/90/25
f 37/92/26 38/93/26 39/94/26
f 38/93/26 40/95/26 39/94/26
f 37/92/27 39/96/27 35/97/27
f 39/96/27 33/98/27 35/97/27
f 40/99/28 38/100/28 34/101/28
f 38/100/28 36/102/28 34/101/28
f 39/103/29 40/104/29 33/105/29
f 40/104/29 34/106/29 33/105/29
usemtl m_0
f 35/107/30 36/108/30 37/109/30
f 36/108/30 38/110/30 37/109/30
o white1
v -0.281250 0.046875 -0.500000
v -0.281250 -0.046875 -0.500000
v -0.281250 0.046875 -0.500625
v -0.281250 -0.046875 -0.500625
v -0.375000 0.046875 -0.500625
v -0.375000 -0.046875 -0.500625
v -0.375000 0.046875 -0.500000
v -0.375000 -0.046875 -0.500000
vt 0.000000 1.000000
vt 0.000000 0.906250
vt 0.000625 1.000000
vt 0.000625 0.906250
vt 0.000000 1.000000
vt 0.000000 0.906250
vt 0.000625 1.000000
vt 0.000625 0.906250
vt 0.000000 0.999375
vt 0.093750 1.000000
vt 0.093750 0.999375
vt 0.000000 1.000000
vt 0.000000 0.999375
vt 0.093750 1.000000
vt 0.093750 0.999375
vt 0.000000 0.093750
vt 0.000000 0.000000
vt 0.093750 0.093750
vt 0.093750 0.000000
vt 0.906250 0.093750
vt 0.906250 0.000000
vt 1.000000 0.093750
vt 1.000000 0.000000
vn 1.0000 0.0000 0.0000
vn -1.0000 0.0000 0.0000
vn 0.0000 1.0000 0.0000
vn 0.0000 -1.0000 0.0000
vn 0.0000 0.0000 1.0000
vn 0.0000 0.0000 -1.0000
usemtl none
s 1
f 41/111/31 42/112/31 43/113/31
f 42/112/31 44/114/31 43/113/31
f 45/115/32 46/116/32 47/117/32
f 46/116/32 48/118/32 47/117/32
f 45/115/33 47/119/33 43/120/33
f 47/119/33 41/121/33 43/120/33
f 48/122/34 46/123/34 42/124/34
f 46/123/34 44/125/34 42/124/34
usemtl m_0
f 47/126/35 48/127/35 41/128/35
f 48/127/35 42/129/35 41/128/35
f 43/130/36 44/131/36 45/132/36
f 44/131/36 46/133/36 45/132/36
o white2
v -0.125000 0.046875 -0.500000
v -0.125000 -0.046875 -0.500000
v -0.125000 0.046875 -0.500625
v -0.125000 -0.046875 -0.500625
v -0.218750 0.046875 -0.500625
v -0.218750 -0.046875 -0.500625
v -0.218750 0.046875 -0.500000
v -0.218750 -0.046875 -0.500000
vt 0.000000 1.000000
vt 0.000000 0.906250
vt 0.000625 1.000000
vt 0.000625 0.906250
vt 0.000000 1.000000
vt 0.000000 0.906250
vt 0.000625 1.000000
vt 0.000625 0.906250
vt 0.000000 0.999375
vt 0.093750 1.000000
vt 0.093750 0.999375
vt 0.000000 1.000000
vt 0.000000 0.999375
vt 0.093750 1.000000
vt 0.093750 0.999375
vt 0.000000 0.093750
vt 0.000000 0.000000
vt 0.093750 0.093750
vt 0.093750 0.000000
vt 0.906250 0.093750
vt 0.906250 0.000000
vt 1.000000 0.093750
vt 1.000000 0.000000
vn 1.0000 0.0000 0.0000
vn -1.0000 0.0000 0.0000
vn 0.0000 1.0000 0.0000
vn 0.0000 -1.0000 0.0000
vn 0.0000 0.0000 1.0000
vn 0.0000 0.0000 -1.0000
usemtl none
s 1
f 49/134/37 50/135/37 51/136/37
f 50/135/37 52/137/37 51/136/37
f 53/138/38 54/139/38 55/140/38
f 54/139/38 56/141/38 55/140/38
f 53/138/39 55/142/39 51/143/39
f 55/142/39 49/144/39 51/143/39
f 56/145/40 54/146/40 50/147/40
f 54/146/40 52/148/40 50/147/40
usemtl m_0
f 55/149/41 56/150/41 49/151/41
f 56/150/41 50/152/41 49/151/41
f 51/153/42 52/154/42 53/155/42
f 52/154/42 54/156/42 53/155/42
o white3
v 0.218750 0.046875 -0.500000
v 0.218750 -0.046875 -0.500000
v 0.218750 0.046875 -0.500625
v 0.218750 -0.046875 -0.500625
v 0.125000 0.046875 -0.500625
v 0.125000 -0.046875 -0.500625
v 0.125000 0.046875 -0.500000
v 0.125000 -0.046875 -0.500000
vt 0.000000 1.000000
vt 0.000000 0.906250
vt 0.000625 1.000000
vt 0.000625 0.906250
vt 0.000000 1.000000
vt 0.000000 0.906250
vt 0.000625 1.000000
vt 0.000625 0.906250
vt 0.000000 0.999375
vt 0.093750 1.000000
vt 0.093750 0.999375
vt 0.000000 1.000000
vt 0.000000 0.999375
vt 0.093750 1.000000
vt 0.093750 0.999375
vt 0.000000 0.093750
vt 0.000000 0.000000
vt 0.093750 0.093750
vt 0.093750 0.000000
vt 0.906250 0.093750
vt 0.906250 0.000000
vt 1.000000 0.093750
vt 1.000000 0.000000
vn 1.0000 0.0000 0.0000
vn -1.0000 0.0000 0.0000
vn 0.0000 1.0000 0.0000
vn 0.0000 -1.0000 0.0000
vn 0.0000 0.0000 1.0000
vn 0.0000 0.0000 -1.0000
usemtl none
s 1
f 57/157/43 58/158/43 59/159/43
f 58/158/43 60/160/43 59/159/43
f 61/161/44 62/162/44 63/163/44
f 62/162/44 64/164/44 63/163/44
f 61/161/45 63/165/45 59/166/45
f 63/165/45 57/167/45 59/166/45
f 64/168/46 62/169/46 58/170/46
f 62/169/46 60/171/46 58/170/46
usemtl m_0
f 63/172/47 64/173/47 57/174/47
f 64/173/47 58/175/47 57/174/47
f 59/176/48 60/177/48 61/178/48
f 60/177/48 62/179/48 61/178/48
o white4
v 0.375000 0.046875 -0.500000
v 0.375000 -0.046875 -0.500000
v 0.375000 0.046875 -0.500625
v 0.375000 -0.046875 -0.500625
v 0.281250 0.046875 -0.500625
v 0.281250 -0.046875 -0.500625
v 0.281250 0.046875 -0.500000
v 0.281250 -0.046875 -0.500000
vt 0.000000 1.000000
vt 0.000000 0.906250
vt 0.000625 1.000000
vt 0.000625 0.906250
vt 0.000000 1.000000
vt 0.000000 0.906250
vt 0.000625 1.000000
vt 0.000625 0.906250
vt 0.000000 0.999375
vt 0.093750 1.000000
vt 0.093750 0.999375
vt 0.000000 1.000000
vt 0.000000 0.999375
vt 0.093750 1.000000
vt 0.093750 0.999375
vt 0.000000 0.093750
vt 0.000000 0.000000
vt 0.093750 0.093750
vt 0.093750 0.000000
vt 0.906250 0.093750
vt 0.906250 0.000000
vt 1.000000 0.093750
vt 1.000000 0.000000
vn 1.0000 0.0000 0.0000
vn -1.0000 0.0000 0.0000
vn 0.0000 1.0000 0.0000
vn 0.0000 -1.0000 0.0000
vn 0.0000 0.0000 1.0000
vn 0.0000 0.0000 -1.0000
usemtl none
s 1
f 65/180/49 66/181/49 67/182/49
f 66/181/49 68/183/49 67/182/49
f 69/184/50 70/185/50 71/186/50
f 70/185/50 72/187/50 71/186/50
f 69/184/51 71/188/51 67/189/51
f 71/188/51 65/190/51 67/189/51
f 72/191/52 70/192/52 66/193/52
f 70/192/52 68/194/52 66/193/52
usemtl m_0
f 71/195/53 72/196/53 65/197/53
f 72/196/53 66/198/53 65/197/53
f 67/199/54 68/200/54 69/201/54
f 68/200/54 70/202/54 69/201/54
