# MagicaVoxel @ Ephtracy

# group
o all

# material
mtllib hauptsignal_boden.mtl
usemtl palette

# normals
vn -1 0 0
vn 1 0 0
vn 0 0 1
vn 0 0 -1
vn 0 -1 0
vn 0 1 0

# texcoords
vt 0.845703 0.5
vt 0.908203 0.5
vt 0.962891 0.5
vt 0.974609 0.5

# verts
v -0.3 0.4 0.5
v -0.3 0.4 -0.4
v -0.3 0.5 0.5
v -0.3 0.5 -0.4
v -0.3 0.6 -0.3
v -0.3 0.6 -0.7
v -0.3 1.5 -0.3
v -0.3 1.5 -0.7
v -0.1 0.5 0.3
v -0.1 0.5 0.1
v -0.1 0.5 0
v -0.1 0.5 -0.2
v -0.1 0.6 0.1
v -0.1 0.6 0
v -0.1 0.8 0.2
v -0.1 0.8 -0.1
v -0.1 0.8 -0.2
v -0.1 0.8 -0.3
v -0.1 0.9 -0.2
v -0.1 0.9 -0.3
v -0.1 1.1 0.2
v -0.1 1.1 -0.1
v -0.1 1.2 0.2
v -0.1 1.2 -0.1
v -0.1 1.2 -0.2
v -0.1 1.2 -0.3
v -0.1 1.3 -0.2
v -0.1 1.3 -0.3
v -0.1 1.5 0.4
v -0.1 1.5 0.3
v -0.1 1.5 0.2
v -0.1 1.5 -0.1
v -0.1 1.6 0.2
v -0.1 1.6 -0.1
v -0.1 1.9 0.2
v -0.1 1.9 -0.1
v -0.1 2 0.4
v -0.1 2 0.3
v -0.1 2 0.2
v -0.1 2 -0.1
v -0.1 2.3 0.2
v -0.1 2.3 -0.1
v -0.1 2.4 0.2
v -0.1 2.4 -0.1
v -0.1 2.7 0.2
v -0.1 2.7 -0.1
v -0.1 2.8 0.2
v -0.1 2.8 -0.1
v -0.1 3 0.4
v -0.1 3 0.3
v -0.1 3.1 0.2
v -0.1 3.1 -0.1
v -0.1 3.2 0.2
v -0.1 3.2 -0.1
v -0.1 3.5 0.4
v -0.1 3.5 0.3
v -0.1 3.5 0.2
v -0.1 3.5 -0.1
v -0.1 3.6 0.3
v -0.1 3.6 -0.2
v 0.2 0.5 0.3
v 0.2 0.5 0.1
v 0.2 0.5 0
v 0.2 0.5 -0.2
v 0.2 0.6 0.1
v 0.2 0.6 0
v 0.2 0.8 0.2
v 0.2 0.8 -0.1
v 0.2 0.8 -0.2
v 0.2 0.8 -0.3
v 0.2 0.9 -0.2
v 0.2 0.9 -0.3
v 0.2 1.1 0.2
v 0.2 1.1 -0.1
v 0.2 1.2 0.2
v 0.2 1.2 -0.1
v 0.2 1.2 -0.2
v 0.2 1.2 -0.3
v 0.2 1.3 -0.2
v 0.2 1.3 -0.3
v 0.2 1.5 0.4
v 0.2 1.5 0.3
v 0.2 1.5 0.2
v 0.2 1.5 -0.1
v 0.2 1.6 0.2
v 0.2 1.6 -0.1
v 0.2 1.9 0.2
v 0.2 1.9 -0.1
v 0.2 2 0.4
v 0.2 2 0.3
v 0.2 2 0.2
v 0.2 2 -0.1
v 0.2 2.3 0.2
v 0.2 2.3 -0.1
v 0.2 2.4 0.2
v 0.2 2.4 -0.1
v 0.2 2.7 0.2
v 0.2 2.7 -0.1
v 0.2 2.8 0.2
v 0.2 2.8 -0.1
v 0.2 3 0.4
v 0.2 3 0.3
v 0.2 3.1 0.2
v 0.2 3.1 -0.1
v 0.2 3.2 0.2
v 0.2 3.2 -0.1
v 0.2 3.5 0.4
v 0.2 3.5 0.3
v 0.2 3.5 0.2
v 0.2 3.5 -0.1
v 0.2 3.6 0.3
v 0.2 3.6 -0.2
v 0.4 0.4 0.5
v 0.4 0.4 -0.4
v 0.4 0.5 0.5
v 0.4 0.5 -0.4
v 0.4 0.6 -0.3
v 0.4 0.6 -0.7
v 0.4 1.5 -0.3
v 0.4 1.5 -0.7
v -0.3 0.4 0.5
v -0.3 0.5 0.5
v 0.4 0.4 0.5
v 0.4 0.5 0.5
v -0.1 1.5 0.4
v -0.1 2 0.4
v -0.1 3 0.4
v -0.1 3.5 0.4
v 0.2 1.5 0.4
v 0.2 2 0.4
v 0.2 3 0.4
v 0.2 3.5 0.4
v -0.1 0.5 0.3
v -0.1 1.5 0.3
v -0.1 3.5 0.3
v -0.1 3.6 0.3
v 0.2 0.5 0.3
v 0.2 1.5 0.3
v 0.2 3.5 0.3
v 0.2 3.6 0.3
v -0.1 0.5 0
v -0.1 0.6 0
v 0.2 0.5 0
v 0.2 0.6 0
v -0.1 0.8 -0.1
v -0.1 1.1 -0.1
v -0.1 1.2 -0.1
v -0.1 1.5 -0.1
v -0.1 1.6 -0.1
v -0.1 1.9 -0.1
v -0.1 2 -0.1
v -0.1 2.3 -0.1
v -0.1 2.4 -0.1
v -0.1 2.7 -0.1
v -0.1 2.8 -0.1
v -0.1 3.1 -0.1
v -0.1 3.2 -0.1
v -0.1 3.5 -0.1
v 0.2 0.8 -0.1
v 0.2 1.1 -0.1
v 0.2 1.2 -0.1
v 0.2 1.5 -0.1
v 0.2 1.6 -0.1
v 0.2 1.9 -0.1
v 0.2 2 -0.1
v 0.2 2.3 -0.1
v 0.2 2.4 -0.1
v 0.2 2.7 -0.1
v 0.2 2.8 -0.1
v 0.2 3.1 -0.1
v 0.2 3.2 -0.1
v 0.2 3.5 -0.1
v -0.3 0.6 -0.3
v -0.3 1.5 -0.3
v -0.1 0.8 -0.3
v -0.1 0.9 -0.3
v -0.1 1.2 -0.3
v -0.1 1.3 -0.3
v 0.2 0.8 -0.3
v 0.2 0.9 -0.3
v 0.2 1.2 -0.3
v 0.2 1.3 -0.3
v 0.4 0.6 -0.3
v 0.4 1.5 -0.3
v -0.1 0.8 0.2
v -0.1 1.1 0.2
v -0.1 1.2 0.2
v -0.1 1.5 0.2
v -0.1 1.6 0.2
v -0.1 1.9 0.2
v -0.1 2 0.2
v -0.1 2.3 0.2
v -0.1 2.4 0.2
v -0.1 2.7 0.2
v -0.1 2.8 0.2
v -0.1 3.1 0.2
v -0.1 3.2 0.2
v -0.1 3.5 0.2
v 0.2 0.8 0.2
v 0.2 1.1 0.2
v 0.2 1.2 0.2
v 0.2 1.5 0.2
v 0.2 1.6 0.2
v 0.2 1.9 0.2
v 0.2 2 0.2
v 0.2 2.3 0.2
v 0.2 2.4 0.2
v 0.2 2.7 0.2
v 0.2 2.8 0.2
v 0.2 3.1 0.2
v 0.2 3.2 0.2
v 0.2 3.5 0.2
v -0.1 0.5 0.1
v -0.1 0.6 0.1
v 0.2 0.5 0.1
v 0.2 0.6 0.1
v -0.1 0.5 -0.2
v -0.1 0.8 -0.2
v -0.1 0.9 -0.2
v -0.1 1.2 -0.2
v -0.1 1.3 -0.2
v -0.1 3.6 -0.2
v 0.2 0.5 -0.2
v 0.2 0.8 -0.2
v 0.2 0.9 -0.2
v 0.2 1.2 -0.2
v 0.2 1.3 -0.2
v 0.2 3.6 -0.2
v -0.3 0.4 -0.4
v -0.3 0.5 -0.4
v 0.4 0.4 -0.4
v 0.4 0.5 -0.4
v -0.3 0.6 -0.7
v -0.3 1.5 -0.7
v 0.4 0.6 -0.7
v 0.4 1.5 -0.7
v -0.3 0.4 0.5
v 0.4 0.4 0.5
v -0.3 0.4 -0.4
v 0.4 0.4 -0.4
v -0.1 0.6 0.1
v 0.2 0.6 0.1
v -0.1 0.6 0
v 0.2 0.6 0
v -0.3 0.6 -0.3
v 0.4 0.6 -0.3
v -0.3 0.6 -0.7
v 0.4 0.6 -0.7
v -0.1 0.8 -0.2
v 0.2 0.8 -0.2
v -0.1 0.8 -0.3
v 0.2 0.8 -0.3
v -0.1 1.1 0.2
v 0.2 1.1 0.2
v -0.1 1.1 -0.1
v 0.2 1.1 -0.1
v -0.1 1.2 -0.2
v 0.2 1.2 -0.2
v -0.1 1.2 -0.3
v 0.2 1.2 -0.3
v -0.1 1.5 0.4
v 0.2 1.5 0.4
v -0.1 1.5 0.3
v 0.2 1.5 0.3
v -0.1 1.5 0.2
v 0.2 1.5 0.2
v -0.1 1.5 -0.1
v 0.2 1.5 -0.1
v -0.1 1.9 0.2
v 0.2 1.9 0.2
v -0.1 1.9 -0.1
v 0.2 1.9 -0.1
v -0.1 2.3 0.2
v 0.2 2.3 0.2
v -0.1 2.3 -0.1
v 0.2 2.3 -0.1
v -0.1 2.7 0.2
v 0.2 2.7 0.2
v -0.1 2.7 -0.1
v 0.2 2.7 -0.1
v -0.1 3.1 0.2
v 0.2 3.1 0.2
v -0.1 3.1 -0.1
v 0.2 3.1 -0.1
v -0.1 3.5 0.2
v 0.2 3.5 0.2
v -0.1 3.5 -0.1
v 0.2 3.5 -0.1
v -0.3 0.5 0.5
v 0.4 0.5 0.5
v -0.1 0.5 0.3
v 0.2 0.5 0.3
v -0.1 0.5 0.1
v 0.2 0.5 0.1
v -0.1 0.5 0
v 0.2 0.5 0
v -0.1 0.5 -0.2
v 0.2 0.5 -0.2
v -0.3 0.5 -0.4
v 0.4 0.5 -0.4
v -0.1 0.8 0.2
v 0.2 0.8 0.2
v -0.1 0.8 -0.1
v 0.2 0.8 -0.1
v -0.1 0.9 -0.2
v 0.2 0.9 -0.2
v -0.1 0.9 -0.3
v 0.2 0.9 -0.3
v -0.1 1.2 0.2
v 0.2 1.2 0.2
v -0.1 1.2 -0.1
v 0.2 1.2 -0.1
v -0.1 1.3 -0.2
v 0.2 1.3 -0.2
v -0.1 1.3 -0.3
v 0.2 1.3 -0.3
v -0.3 1.5 -0.3
v 0.4 1.5 -0.3
v -0.3 1.5 -0.7
v 0.4 1.5 -0.7
v -0.1 1.6 0.2
v 0.2 1.6 0.2
v -0.1 1.6 -0.1
v 0.2 1.6 -0.1
v -0.1 2 0.2
v 0.2 2 0.2
v -0.1 2 -0.1
v 0.2 2 -0.1
v -0.1 2.4 0.2
v 0.2 2.4 0.2
v -0.1 2.4 -0.1
v 0.2 2.4 -0.1
v -0.1 2.8 0.2
v 0.2 2.8 0.2
v -0.1 2.8 -0.1
v 0.2 2.8 -0.1
v -0.1 3.2 0.2
v 0.2 3.2 0.2
v -0.1 3.2 -0.1
v 0.2 3.2 -0.1
v -0.1 3.5 0.4
v 0.2 3.5 0.4
v -0.1 3.5 0.3
v 0.2 3.5 0.3
v -0.1 3.6 0.3
v 0.2 3.6 0.3
v -0.1 3.6 -0.2
v 0.2 3.6 -0.2

# faces
f 3/2/1 2/2/1 1/2/1
f 4/2/1 2/2/1 3/2/1
f 7/4/1 6/4/1 5/4/1
f 8/4/1 6/4/1 7/4/1
f 13/2/1 10/2/1 9/2/1
f 14/2/1 12/2/1 11/2/1
f 15/2/1 13/2/1 9/2/1
f 15/2/1 14/2/1 13/2/1
f 16/2/1 12/2/1 14/2/1
f 16/2/1 14/2/1 15/2/1
f 17/2/1 12/2/1 16/2/1
f 19/2/1 18/2/1 17/2/1
f 19/2/1 17/2/1 16/2/1
f 20/2/1 18/2/1 19/2/1
f 21/2/1 15/2/1 9/2/1
f 22/2/1 19/2/1 16/2/1
f 23/2/1 21/2/1 9/2/1
f 23/2/1 22/2/1 21/2/1
f 24/2/1 19/2/1 22/2/1
f 24/2/1 22/2/1 23/2/1
f 25/2/1 19/2/1 24/2/1
f 27/2/1 26/2/1 25/2/1
f 27/2/1 25/2/1 24/2/1
f 28/2/1 26/2/1 27/2/1
f 30/2/1 23/2/1 9/2/1
f 31/2/1 23/2/1 30/2/1
f 32/2/1 27/2/1 24/2/1
f 33/2/1 31/2/1 30/2/1
f 33/2/1 32/2/1 31/2/1
f 34/2/1 27/2/1 32/2/1
f 34/2/1 32/2/1 33/2/1
f 35/2/1 33/2/1 30/2/1
f 36/2/1 27/2/1 34/2/1
f 37/3/1 30/3/1 29/3/1
f 38/2/1 35/2/1 30/2/1
f 38/3/1 30/3/1 37/3/1
f 38/2/1 36/2/1 35/2/1
f 39/2/1 36/2/1 38/2/1
f 40/2/1 27/2/1 36/2/1
f 40/2/1 36/2/1 39/2/1
f 41/2/1 39/2/1 38/2/1
f 42/2/1 27/2/1 40/2/1
f 43/2/1 41/2/1 38/2/1
f 43/2/1 42/2/1 41/2/1
f 44/2/1 27/2/1 42/2/1
f 44/2/1 42/2/1 43/2/1
f 45/2/1 43/2/1 38/2/1
f 46/2/1 27/2/1 44/2/1
f 47/2/1 45/2/1 38/2/1
f 47/2/1 46/2/1 45/2/1
f 48/2/1 27/2/1 46/2/1
f 48/2/1 46/2/1 47/2/1
f 49/1/1 38/1/1 37/1/1
f 50/2/1 47/2/1 38/2/1
f 50/1/1 38/1/1 49/1/1
f 51/2/1 47/2/1 50/2/1
f 52/2/1 27/2/1 48/2/1
f 53/2/1 51/2/1 50/2/1
f 53/2/1 52/2/1 51/2/1
f 54/2/1 27/2/1 52/2/1
f 54/2/1 52/2/1 53/2/1
f 55/3/1 50/3/1 49/3/1
f 56/2/1 53/2/1 50/2/1
f 56/3/1 50/3/1 55/3/1
f 57/2/1 53/2/1 56/2/1
f 58/2/1 27/2/1 54/2/1
f 59/2/1 57/2/1 56/2/1
f 59/2/1 58/2/1 57/2/1
f 60/2/1 27/2/1 58/2/1
f 60/2/1 58/2/1 59/2/1
f 61/2/2 62/2/2 65/2/2
f 63/2/2 64/2/2 66/2/2
f 61/2/2 65/2/2 67/2/2
f 65/2/2 66/2/2 67/2/2
f 66/2/2 64/2/2 68/2/2
f 67/2/2 66/2/2 68/2/2
f 68/2/2 64/2/2 69/2/2
f 69/2/2 70/2/2 71/2/2
f 68/2/2 69/2/2 71/2/2
f 71/2/2 70/2/2 72/2/2
f 61/2/2 67/2/2 73/2/2
f 68/2/2 71/2/2 74/2/2
f 61/2/2 73/2/2 75/2/2
f 73/2/2 74/2/2 75/2/2
f 74/2/2 71/2/2 76/2/2
f 75/2/2 74/2/2 76/2/2
f 76/2/2 71/2/2 77/2/2
f 77/2/2 78/2/2 79/2/2
f 76/2/2 77/2/2 79/2/2
f 79/2/2 78/2/2 80/2/2
f 61/2/2 75/2/2 82/2/2
f 82/2/2 75/2/2 83/2/2
f 76/2/2 79/2/2 84/2/2
f 82/2/2 83/2/2 85/2/2
f 83/2/2 84/2/2 85/2/2
f 84/2/2 79/2/2 86/2/2
f 85/2/2 84/2/2 86/2/2
f 82/2/2 85/2/2 87/2/2
f 86/2/2 79/2/2 88/2/2
f 81/3/2 82/3/2 89/3/2
f 82/2/2 87/2/2 90/2/2
f 89/3/2 82/3/2 90/3/2
f 87/2/2 88/2/2 90/2/2
f 90/2/2 88/2/2 91/2/2
f 88/2/2 79/2/2 92/2/2
f 91/2/2 88/2/2 92/2/2
f 90/2/2 91/2/2 93/2/2
f 92/2/2 79/2/2 94/2/2
f 90/2/2 93/2/2 95/2/2
f 93/2/2 94/2/2 95/2/2
f 94/2/2 79/2/2 96/2/2
f 95/2/2 94/2/2 96/2/2
f 90/2/2 95/2/2 97/2/2
f 96/2/2 79/2/2 98/2/2
f 90/2/2 97/2/2 99/2/2
f 97/2/2 98/2/2 99/2/2
f 98/2/2 79/2/2 100/2/2
f 99/2/2 98/2/2 100/2/2
f 89/1/2 90/1/2 101/1/2
f 90/2/2 99/2/2 102/2/2
f 101/1/2 90/1/2 102/1/2
f 102/2/2 99/2/2 103/2/2
f 100/2/2 79/2/2 104/2/2
f 102/2/2 103/2/2 105/2/2
f 103/2/2 104/2/2 105/2/2
f 104/2/2 79/2/2 106/2/2
f 105/2/2 104/2/2 106/2/2
f 101/3/2 102/3/2 107/3/2
f 102/2/2 105/2/2 108/2/2
f 107/3/2 102/3/2 108/3/2
f 108/2/2 105/2/2 109/2/2
f 106/2/2 79/2/2 110/2/2
f 108/2/2 109/2/2 111/2/2
f 109/2/2 110/2/2 111/2/2
f 110/2/2 79/2/2 112/2/2
f 111/2/2 110/2/2 112/2/2
f 113/2/2 114/2/2 115/2/2
f 115/2/2 114/2/2 116/2/2
f 117/4/2 118/4/2 119/4/2
f 119/4/2 118/4/2 120/4/2
f 123/2/3 122/2/3 121/2/3
f 124/2/3 122/2/3 123/2/3
f 129/3/3 126/3/3 125/3/3
f 130/1/3 127/1/3 126/1/3
f 130/3/3 126/3/3 129/3/3
f 131/3/3 128/3/3 127/3/3
f 131/1/3 127/1/3 130/1/3
f 132/3/3 128/3/3 131/3/3
f 137/2/3 134/2/3 133/2/3
f 138/2/3 134/2/3 137/2/3
f 139/2/3 136/2/3 135/2/3
f 140/2/3 136/2/3 139/2/3
f 143/2/3 142/2/3 141/2/3
f 144/2/3 142/2/3 143/2/3
f 159/2/3 146/2/3 145/2/3
f 160/2/3 146/2/3 159/2/3
f 161/2/3 148/2/3 147/2/3
f 162/2/3 148/2/3 161/2/3
f 163/2/3 150/2/3 149/2/3
f 164/2/3 150/2/3 163/2/3
f 165/2/3 152/2/3 151/2/3
f 166/2/3 152/2/3 165/2/3
f 167/2/3 154/2/3 153/2/3
f 168/2/3 154/2/3 167/2/3
f 169/2/3 156/2/3 155/2/3
f 170/2/3 156/2/3 169/2/3
f 171/2/3 158/2/3 157/2/3
f 172/2/3 158/2/3 171/2/3
f 175/4/3 174/4/3 173/4/3
f 176/4/3 174/4/3 175/4/3
f 177/4/3 174/4/3 176/4/3
f 178/4/3 174/4/3 177/4/3
f 179/4/3 175/4/3 173/4/3
f 180/4/3 177/4/3 176/4/3
f 181/4/3 177/4/3 180/4/3
f 182/4/3 174/4/3 178/4/3
f 183/4/3 181/4/3 180/4/3
f 183/4/3 182/4/3 181/4/3
f 183/4/3 179/4/3 173/4/3
f 183/4/3 180/4/3 179/4/3
f 184/4/3 174/4/3 182/4/3
f 184/4/3 182/4/3 183/4/3
f 185/2/4 186/2/4 199/2/4
f 199/2/4 186/2/4 200/2/4
f 187/2/4 188/2/4 201/2/4
f 201/2/4 188/2/4 202/2/4
f 189/2/4 190/2/4 203/2/4
f 203/2/4 190/2/4 204/2/4
f 191/2/4 192/2/4 205/2/4
f 205/2/4 192/2/4 206/2/4
f 193/2/4 194/2/4 207/2/4
f 207/2/4 194/2/4 208/2/4
f 195/2/4 196/2/4 209/2/4
f 209/2/4 196/2/4 210/2/4
f 197/2/4 198/2/4 211/2/4
f 211/2/4 198/2/4 212/2/4
f 213/2/4 214/2/4 215/2/4
f 215/2/4 214/2/4 216/2/4
f 217/2/4 218/2/4 223/2/4
f 223/2/4 218/2/4 224/2/4
f 219/2/4 220/2/4 225/2/4
f 225/2/4 220/2/4 226/2/4
f 221/2/4 222/2/4 227/2/4
f 227/2/4 222/2/4 228/2/4
f 229/2/4 230/2/4 231/2/4
f 231/2/4 230/2/4 232/2/4
f 233/4/4 234/4/4 235/4/4
f 235/4/4 234/4/4 236/4/4
f 239/2/5 238/2/5 237/2/5
f 240/2/5 238/2/5 239/2/5
f 243/2/5 242/2/5 241/2/5
f 244/2/5 242/2/5 243/2/5
f 247/4/5 246/4/5 245/4/5
f 248/4/5 246/4/5 247/4/5
f 251/2/5 250/2/5 249/2/5
f 252/2/5 250/2/5 251/2/5
f 255/2/5 254/2/5 253/2/5
f 256/2/5 254/2/5 255/2/5
f 259/2/5 258/2/5 257/2/5
f 260/2/5 258/2/5 259/2/5
f 263/3/5 262/3/5 261/3/5
f 264/3/5 262/3/5 263/3/5
f 267/2/5 266/2/5 265/2/5
f 268/2/5 266/2/5 267/2/5
f 271/2/5 270/2/5 269/2/5
f 272/2/5 270/2/5 271/2/5
f 275/2/5 274/2/5 273/2/5
f 276/2/5 274/2/5 275/2/5
f 279/2/5 278/2/5 277/2/5
f 280/2/5 278/2/5 279/2/5
f 283/2/5 282/2/5 281/2/5
f 284/2/5 282/2/5 283/2/5
f 287/2/5 286/2/5 285/2/5
f 288/2/5 286/2/5 287/2/5
f 289/2/6 290/2/6 291/2/6
f 291/2/6 290/2/6 292/2/6
f 289/2/6 291/2/6 293/2/6
f 292/2/6 290/2/6 294/2/6
f 289/2/6 293/2/6 295/2/6
f 293/2/6 294/2/6 295/2/6
f 294/2/6 290/2/6 296/2/6
f 295/2/6 294/2/6 296/2/6
f 289/2/6 295/2/6 297/2/6
f 296/2/6 290/2/6 298/2/6
f 289/2/6 297/2/6 299/2/6
f 297/2/6 298/2/6 299/2/6
f 298/2/6 290/2/6 300/2/6
f 299/2/6 298/2/6 300/2/6
f 301/2/6 302/2/6 303/2/6
f 303/2/6 302/2/6 304/2/6
f 305/2/6 306/2/6 307/2/6
f 307/2/6 306/2/6 308/2/6
f 309/2/6 310/2/6 311/2/6
f 311/2/6 310/2/6 312/2/6
f 313/2/6 314/2/6 315/2/6
f 315/2/6 314/2/6 316/2/6
f 317/4/6 318/4/6 319/4/6
f 319/4/6 318/4/6 320/4/6
f 321/2/6 322/2/6 323/2/6
f 323/2/6 322/2/6 324/2/6
f 325/2/6 326/2/6 327/2/6
f 327/2/6 326/2/6 328/2/6
f 329/2/6 330/2/6 331/2/6
f 331/2/6 330/2/6 332/2/6
f 333/2/6 334/2/6 335/2/6
f 335/2/6 334/2/6 336/2/6
f 337/2/6 338/2/6 339/2/6
f 339/2/6 338/2/6 340/2/6
f 341/3/6 342/3/6 343/3/6
f 343/3/6 342/3/6 344/3/6
f 345/2/6 346/2/6 347/2/6
f 347/2/6 346/2/6 348/2/6
